ISO-10303-21;
HEADER;
/* Generated by software containing ST-Developer
 * from STEP Tools, Inc. (www.steptools.com) 
 */

FILE_DESCRIPTION(
/* description */ (''),
/* implementation_level */ '2;1');

FILE_NAME(
/* name */ 'Jarned V1 - Bottom 2.step',
/* time_stamp */ '2026-08-03T11:04:13+01:00',
/* author */ (''),
/* organization */ (''),
/* preprocessor_version */ 'ST-DEVELOPER v20.1',
/* originating_system */ 'Autodesk Translation Framework v15.8.0.0',
/* authorisation */ '');

FILE_SCHEMA (('AUTOMOTIVE_DESIGN { 1 0 10303 214 3 1 1 }'));
ENDSEC;

DATA;
#10=MECHANICAL_DESIGN_GEOMETRIC_PRESENTATION_REPRESENTATION('',(#13),#607);
#11=SHAPE_REPRESENTATION_RELATIONSHIP('SRR','None',#614,#12);
#12=ADVANCED_BREP_SHAPE_REPRESENTATION('',(#14),#606);
#13=STYLED_ITEM('',(#623),#14);
#14=MANIFOLD_SOLID_BREP('Body1',#371);
#15=FACE_BOUND('',#69,.T.);
#16=FACE_BOUND('',#73,.T.);
#17=FACE_BOUND('',#74,.T.);
#18=FACE_BOUND('',#75,.T.);
#19=FACE_BOUND('',#76,.T.);
#20=FACE_BOUND('',#77,.T.);
#21=FACE_BOUND('',#79,.T.);
#22=FACE_BOUND('',#80,.T.);
#23=FACE_BOUND('',#81,.T.);
#24=FACE_BOUND('',#82,.T.);
#25=CIRCLE('',#390,1.6);
#26=CIRCLE('',#391,1.6);
#27=CIRCLE('',#393,1.6);
#28=CIRCLE('',#394,1.6);
#29=CIRCLE('',#396,1.6);
#30=CIRCLE('',#397,1.6);
#31=CIRCLE('',#399,1.6);
#32=CIRCLE('',#400,1.6);
#33=CYLINDRICAL_SURFACE('',#389,1.6);
#34=CYLINDRICAL_SURFACE('',#392,1.6);
#35=CYLINDRICAL_SURFACE('',#395,1.6);
#36=CYLINDRICAL_SURFACE('',#398,1.6);
#37=FACE_OUTER_BOUND('',#55,.T.);
#38=FACE_OUTER_BOUND('',#56,.T.);
#39=FACE_OUTER_BOUND('',#57,.T.);
#40=FACE_OUTER_BOUND('',#58,.T.);
#41=FACE_OUTER_BOUND('',#59,.T.);
#42=FACE_OUTER_BOUND('',#60,.T.);
#43=FACE_OUTER_BOUND('',#61,.T.);
#44=FACE_OUTER_BOUND('',#62,.T.);
#45=FACE_OUTER_BOUND('',#63,.T.);
#46=FACE_OUTER_BOUND('',#64,.T.);
#47=FACE_OUTER_BOUND('',#65,.T.);
#48=FACE_OUTER_BOUND('',#66,.T.);
#49=FACE_OUTER_BOUND('',#67,.T.);
#50=FACE_OUTER_BOUND('',#68,.T.);
#51=FACE_OUTER_BOUND('',#70,.T.);
#52=FACE_OUTER_BOUND('',#71,.T.);
#53=FACE_OUTER_BOUND('',#72,.T.);
#54=FACE_OUTER_BOUND('',#78,.T.);
#55=EDGE_LOOP('',(#243,#244,#245,#246));
#56=EDGE_LOOP('',(#247,#248,#249,#250));
#57=EDGE_LOOP('',(#251,#252,#253,#254));
#58=EDGE_LOOP('',(#255,#256,#257,#258,#259,#260,#261,#262));
#59=EDGE_LOOP('',(#263,#264,#265,#266));
#60=EDGE_LOOP('',(#267,#268,#269,#270));
#61=EDGE_LOOP('',(#271,#272,#273,#274));
#62=EDGE_LOOP('',(#275,#276,#277,#278));
#63=EDGE_LOOP('',(#279,#280,#281,#282,#283,#284,#285,#286));
#64=EDGE_LOOP('',(#287,#288,#289,#290));
#65=EDGE_LOOP('',(#291,#292,#293,#294));
#66=EDGE_LOOP('',(#295,#296,#297,#298));
#67=EDGE_LOOP('',(#299,#300,#301,#302));
#68=EDGE_LOOP('',(#303,#304,#305,#306));
#69=EDGE_LOOP('',(#307,#308,#309,#310));
#70=EDGE_LOOP('',(#311,#312,#313,#314));
#71=EDGE_LOOP('',(#315,#316,#317,#318));
#72=EDGE_LOOP('',(#319,#320,#321,#322));
#73=EDGE_LOOP('',(#323));
#74=EDGE_LOOP('',(#324));
#75=EDGE_LOOP('',(#325));
#76=EDGE_LOOP('',(#326));
#77=EDGE_LOOP('',(#327,#328,#329,#330));
#78=EDGE_LOOP('',(#331,#332,#333,#334));
#79=EDGE_LOOP('',(#335));
#80=EDGE_LOOP('',(#336));
#81=EDGE_LOOP('',(#337));
#82=EDGE_LOOP('',(#338));
#83=LINE('',#509,#123);
#84=LINE('',#511,#124);
#85=LINE('',#513,#125);
#86=LINE('',#514,#126);
#87=LINE('',#517,#127);
#88=LINE('',#519,#128);
#89=LINE('',#520,#129);
#90=LINE('',#523,#130);
#91=LINE('',#525,#131);
#92=LINE('',#526,#132);
#93=LINE('',#529,#133);
#94=LINE('',#531,#134);
#95=LINE('',#533,#135);
#96=LINE('',#535,#136);
#97=LINE('',#536,#137);
#98=LINE('',#541,#138);
#99=LINE('',#547,#139);
#100=LINE('',#553,#140);
#101=LINE('',#559,#141);
#102=LINE('',#564,#142);
#103=LINE('',#565,#143);
#104=LINE('',#566,#144);
#105=LINE('',#567,#145);
#106=LINE('',#570,#146);
#107=LINE('',#571,#147);
#108=LINE('',#574,#148);
#109=LINE('',#575,#149);
#110=LINE('',#577,#150);
#111=LINE('',#581,#151);
#112=LINE('',#583,#152);
#113=LINE('',#585,#153);
#114=LINE('',#586,#154);
#115=LINE('',#589,#155);
#116=LINE('',#591,#156);
#117=LINE('',#592,#157);
#118=LINE('',#595,#158);
#119=LINE('',#597,#159);
#120=LINE('',#598,#160);
#121=LINE('',#600,#161);
#122=LINE('',#601,#162);
#123=VECTOR('',#415,10.);
#124=VECTOR('',#416,10.);
#125=VECTOR('',#417,10.);
#126=VECTOR('',#418,10.);
#127=VECTOR('',#421,10.);
#128=VECTOR('',#422,10.);
#129=VECTOR('',#423,10.);
#130=VECTOR('',#426,10.);
#131=VECTOR('',#427,10.);
#132=VECTOR('',#428,10.);
#133=VECTOR('',#431,10.);
#134=VECTOR('',#432,10.);
#135=VECTOR('',#433,10.);
#136=VECTOR('',#434,10.);
#137=VECTOR('',#435,10.);
#138=VECTOR('',#440,1.6);
#139=VECTOR('',#447,1.6);
#140=VECTOR('',#454,1.6);
#141=VECTOR('',#461,1.6);
#142=VECTOR('',#466,10.);
#143=VECTOR('',#467,10.);
#144=VECTOR('',#468,10.);
#145=VECTOR('',#469,10.);
#146=VECTOR('',#472,10.);
#147=VECTOR('',#473,10.);
#148=VECTOR('',#476,10.);
#149=VECTOR('',#477,10.);
#150=VECTOR('',#480,10.);
#151=VECTOR('',#483,10.);
#152=VECTOR('',#484,10.);
#153=VECTOR('',#485,10.);
#154=VECTOR('',#486,10.);
#155=VECTOR('',#489,10.);
#156=VECTOR('',#490,10.);
#157=VECTOR('',#491,10.);
#158=VECTOR('',#494,10.);
#159=VECTOR('',#495,10.);
#160=VECTOR('',#496,10.);
#161=VECTOR('',#499,10.);
#162=VECTOR('',#500,10.);
#163=VERTEX_POINT('',#507);
#164=VERTEX_POINT('',#508);
#165=VERTEX_POINT('',#510);
#166=VERTEX_POINT('',#512);
#167=VERTEX_POINT('',#516);
#168=VERTEX_POINT('',#518);
#169=VERTEX_POINT('',#522);
#170=VERTEX_POINT('',#524);
#171=VERTEX_POINT('',#528);
#172=VERTEX_POINT('',#530);
#173=VERTEX_POINT('',#532);
#174=VERTEX_POINT('',#534);
#175=VERTEX_POINT('',#538);
#176=VERTEX_POINT('',#540);
#177=VERTEX_POINT('',#544);
#178=VERTEX_POINT('',#546);
#179=VERTEX_POINT('',#550);
#180=VERTEX_POINT('',#552);
#181=VERTEX_POINT('',#556);
#182=VERTEX_POINT('',#558);
#183=VERTEX_POINT('',#562);
#184=VERTEX_POINT('',#563);
#185=VERTEX_POINT('',#569);
#186=VERTEX_POINT('',#573);
#187=VERTEX_POINT('',#579);
#188=VERTEX_POINT('',#580);
#189=VERTEX_POINT('',#582);
#190=VERTEX_POINT('',#584);
#191=VERTEX_POINT('',#588);
#192=VERTEX_POINT('',#590);
#193=VERTEX_POINT('',#594);
#194=VERTEX_POINT('',#596);
#195=EDGE_CURVE('',#163,#164,#83,.T.);
#196=EDGE_CURVE('',#163,#165,#84,.T.);
#197=EDGE_CURVE('',#166,#165,#85,.T.);
#198=EDGE_CURVE('',#164,#166,#86,.T.);
#199=EDGE_CURVE('',#167,#163,#87,.T.);
#200=EDGE_CURVE('',#167,#168,#88,.T.);
#201=EDGE_CURVE('',#165,#168,#89,.T.);
#202=EDGE_CURVE('',#169,#167,#90,.T.);
#203=EDGE_CURVE('',#169,#170,#91,.T.);
#204=EDGE_CURVE('',#168,#170,#92,.T.);
#205=EDGE_CURVE('',#170,#171,#93,.T.);
#206=EDGE_CURVE('',#171,#172,#94,.T.);
#207=EDGE_CURVE('',#173,#172,#95,.T.);
#208=EDGE_CURVE('',#174,#173,#96,.T.);
#209=EDGE_CURVE('',#174,#166,#97,.T.);
#210=EDGE_CURVE('',#175,#175,#25,.T.);
#211=EDGE_CURVE('',#175,#176,#98,.T.);
#212=EDGE_CURVE('',#176,#176,#26,.T.);
#213=EDGE_CURVE('',#177,#177,#27,.T.);
#214=EDGE_CURVE('',#177,#178,#99,.T.);
#215=EDGE_CURVE('',#178,#178,#28,.T.);
#216=EDGE_CURVE('',#179,#179,#29,.T.);
#217=EDGE_CURVE('',#179,#180,#100,.T.);
#218=EDGE_CURVE('',#180,#180,#30,.T.);
#219=EDGE_CURVE('',#181,#181,#31,.T.);
#220=EDGE_CURVE('',#181,#182,#101,.T.);
#221=EDGE_CURVE('',#182,#182,#32,.T.);
#222=EDGE_CURVE('',#183,#184,#102,.T.);
#223=EDGE_CURVE('',#171,#183,#103,.T.);
#224=EDGE_CURVE('',#164,#169,#104,.T.);
#225=EDGE_CURVE('',#184,#174,#105,.T.);
#226=EDGE_CURVE('',#183,#185,#106,.T.);
#227=EDGE_CURVE('',#172,#185,#107,.T.);
#228=EDGE_CURVE('',#186,#173,#108,.T.);
#229=EDGE_CURVE('',#184,#186,#109,.T.);
#230=EDGE_CURVE('',#185,#186,#110,.T.);
#231=EDGE_CURVE('',#187,#188,#111,.T.);
#232=EDGE_CURVE('',#187,#189,#112,.T.);
#233=EDGE_CURVE('',#190,#189,#113,.T.);
#234=EDGE_CURVE('',#188,#190,#114,.T.);
#235=EDGE_CURVE('',#188,#191,#115,.T.);
#236=EDGE_CURVE('',#192,#190,#116,.T.);
#237=EDGE_CURVE('',#191,#192,#117,.T.);
#238=EDGE_CURVE('',#191,#193,#118,.T.);
#239=EDGE_CURVE('',#194,#192,#119,.T.);
#240=EDGE_CURVE('',#193,#194,#120,.T.);
#241=EDGE_CURVE('',#193,#187,#121,.T.);
#242=EDGE_CURVE('',#189,#194,#122,.T.);
#243=ORIENTED_EDGE('',*,*,#195,.F.);
#244=ORIENTED_EDGE('',*,*,#196,.T.);
#245=ORIENTED_EDGE('',*,*,#197,.F.);
#246=ORIENTED_EDGE('',*,*,#198,.F.);
#247=ORIENTED_EDGE('',*,*,#199,.F.);
#248=ORIENTED_EDGE('',*,*,#200,.T.);
#249=ORIENTED_EDGE('',*,*,#201,.F.);
#250=ORIENTED_EDGE('',*,*,#196,.F.);
#251=ORIENTED_EDGE('',*,*,#202,.F.);
#252=ORIENTED_EDGE('',*,*,#203,.T.);
#253=ORIENTED_EDGE('',*,*,#204,.F.);
#254=ORIENTED_EDGE('',*,*,#200,.F.);
#255=ORIENTED_EDGE('',*,*,#197,.T.);
#256=ORIENTED_EDGE('',*,*,#201,.T.);
#257=ORIENTED_EDGE('',*,*,#204,.T.);
#258=ORIENTED_EDGE('',*,*,#205,.T.);
#259=ORIENTED_EDGE('',*,*,#206,.T.);
#260=ORIENTED_EDGE('',*,*,#207,.F.);
#261=ORIENTED_EDGE('',*,*,#208,.F.);
#262=ORIENTED_EDGE('',*,*,#209,.T.);
#263=ORIENTED_EDGE('',*,*,#210,.F.);
#264=ORIENTED_EDGE('',*,*,#211,.T.);
#265=ORIENTED_EDGE('',*,*,#212,.F.);
#266=ORIENTED_EDGE('',*,*,#211,.F.);
#267=ORIENTED_EDGE('',*,*,#213,.F.);
#268=ORIENTED_EDGE('',*,*,#214,.T.);
#269=ORIENTED_EDGE('',*,*,#215,.F.);
#270=ORIENTED_EDGE('',*,*,#214,.F.);
#271=ORIENTED_EDGE('',*,*,#216,.F.);
#272=ORIENTED_EDGE('',*,*,#217,.T.);
#273=ORIENTED_EDGE('',*,*,#218,.F.);
#274=ORIENTED_EDGE('',*,*,#217,.F.);
#275=ORIENTED_EDGE('',*,*,#219,.F.);
#276=ORIENTED_EDGE('',*,*,#220,.T.);
#277=ORIENTED_EDGE('',*,*,#221,.F.);
#278=ORIENTED_EDGE('',*,*,#220,.F.);
#279=ORIENTED_EDGE('',*,*,#222,.F.);
#280=ORIENTED_EDGE('',*,*,#223,.F.);
#281=ORIENTED_EDGE('',*,*,#205,.F.);
#282=ORIENTED_EDGE('',*,*,#203,.F.);
#283=ORIENTED_EDGE('',*,*,#224,.F.);
#284=ORIENTED_EDGE('',*,*,#198,.T.);
#285=ORIENTED_EDGE('',*,*,#209,.F.);
#286=ORIENTED_EDGE('',*,*,#225,.F.);
#287=ORIENTED_EDGE('',*,*,#223,.T.);
#288=ORIENTED_EDGE('',*,*,#226,.T.);
#289=ORIENTED_EDGE('',*,*,#227,.F.);
#290=ORIENTED_EDGE('',*,*,#206,.F.);
#291=ORIENTED_EDGE('',*,*,#225,.T.);
#292=ORIENTED_EDGE('',*,*,#208,.T.);
#293=ORIENTED_EDGE('',*,*,#228,.F.);
#294=ORIENTED_EDGE('',*,*,#229,.F.);
#295=ORIENTED_EDGE('',*,*,#222,.T.);
#296=ORIENTED_EDGE('',*,*,#229,.T.);
#297=ORIENTED_EDGE('',*,*,#230,.F.);
#298=ORIENTED_EDGE('',*,*,#226,.F.);
#299=ORIENTED_EDGE('',*,*,#231,.F.);
#300=ORIENTED_EDGE('',*,*,#232,.T.);
#301=ORIENTED_EDGE('',*,*,#233,.F.);
#302=ORIENTED_EDGE('',*,*,#234,.F.);
#303=ORIENTED_EDGE('',*,*,#235,.F.);
#304=ORIENTED_EDGE('',*,*,#234,.T.);
#305=ORIENTED_EDGE('',*,*,#236,.F.);
#306=ORIENTED_EDGE('',*,*,#237,.F.);
#307=ORIENTED_EDGE('',*,*,#224,.T.);
#308=ORIENTED_EDGE('',*,*,#202,.T.);
#309=ORIENTED_EDGE('',*,*,#199,.T.);
#310=ORIENTED_EDGE('',*,*,#195,.T.);
#311=ORIENTED_EDGE('',*,*,#238,.F.);
#312=ORIENTED_EDGE('',*,*,#237,.T.);
#313=ORIENTED_EDGE('',*,*,#239,.F.);
#314=ORIENTED_EDGE('',*,*,#240,.F.);
#315=ORIENTED_EDGE('',*,*,#241,.F.);
#316=ORIENTED_EDGE('',*,*,#240,.T.);
#317=ORIENTED_EDGE('',*,*,#242,.F.);
#318=ORIENTED_EDGE('',*,*,#232,.F.);
#319=ORIENTED_EDGE('',*,*,#242,.T.);
#320=ORIENTED_EDGE('',*,*,#239,.T.);
#321=ORIENTED_EDGE('',*,*,#236,.T.);
#322=ORIENTED_EDGE('',*,*,#233,.T.);
#323=ORIENTED_EDGE('',*,*,#210,.T.);
#324=ORIENTED_EDGE('',*,*,#213,.T.);
#325=ORIENTED_EDGE('',*,*,#216,.T.);
#326=ORIENTED_EDGE('',*,*,#219,.T.);
#327=ORIENTED_EDGE('',*,*,#230,.T.);
#328=ORIENTED_EDGE('',*,*,#228,.T.);
#329=ORIENTED_EDGE('',*,*,#207,.T.);
#330=ORIENTED_EDGE('',*,*,#227,.T.);
#331=ORIENTED_EDGE('',*,*,#241,.T.);
#332=ORIENTED_EDGE('',*,*,#231,.T.);
#333=ORIENTED_EDGE('',*,*,#235,.T.);
#334=ORIENTED_EDGE('',*,*,#238,.T.);
#335=ORIENTED_EDGE('',*,*,#212,.T.);
#336=ORIENTED_EDGE('',*,*,#215,.T.);
#337=ORIENTED_EDGE('',*,*,#218,.T.);
#338=ORIENTED_EDGE('',*,*,#221,.T.);
#339=PLANE('',#385);
#340=PLANE('',#386);
#341=PLANE('',#387);
#342=PLANE('',#388);
#343=PLANE('',#401);
#344=PLANE('',#402);
#345=PLANE('',#403);
#346=PLANE('',#404);
#347=PLANE('',#405);
#348=PLANE('',#406);
#349=PLANE('',#407);
#350=PLANE('',#408);
#351=PLANE('',#409);
#352=PLANE('',#410);
#353=ADVANCED_FACE('',(#37),#339,.F.);
#354=ADVANCED_FACE('',(#38),#340,.F.);
#355=ADVANCED_FACE('',(#39),#341,.F.);
#356=ADVANCED_FACE('',(#40),#342,.T.);
#357=ADVANCED_FACE('',(#41),#33,.F.);
#358=ADVANCED_FACE('',(#42),#34,.F.);
#359=ADVANCED_FACE('',(#43),#35,.F.);
#360=ADVANCED_FACE('',(#44),#36,.F.);
#361=ADVANCED_FACE('',(#45),#343,.T.);
#362=ADVANCED_FACE('',(#46),#344,.T.);
#363=ADVANCED_FACE('',(#47),#345,.T.);
#364=ADVANCED_FACE('',(#48),#346,.T.);
#365=ADVANCED_FACE('',(#49),#347,.T.);
#366=ADVANCED_FACE('',(#50,#15),#348,.T.);
#367=ADVANCED_FACE('',(#51),#349,.T.);
#368=ADVANCED_FACE('',(#52),#350,.T.);
#369=ADVANCED_FACE('',(#53,#16,#17,#18,#19,#20),#351,.T.);
#370=ADVANCED_FACE('',(#54,#21,#22,#23,#24),#352,.F.);
#371=CLOSED_SHELL('',(#353,#354,#355,#356,#357,#358,#359,#360,#361,#362,
#363,#364,#365,#366,#367,#368,#369,#370));
#372=DERIVED_UNIT_ELEMENT(#374,1.);
#373=DERIVED_UNIT_ELEMENT(#609,-3.);
#374=(
MASS_UNIT()
NAMED_UNIT(*)
SI_UNIT(.KILO.,.GRAM.)
);
#375=DERIVED_UNIT((#372,#373));
#376=MEASURE_REPRESENTATION_ITEM('density measure',
POSITIVE_RATIO_MEASURE(7850.),#375);
#377=PROPERTY_DEFINITION_REPRESENTATION(#382,#379);
#378=PROPERTY_DEFINITION_REPRESENTATION(#383,#380);
#379=REPRESENTATION('material name',(#381),#606);
#380=REPRESENTATION('density',(#376),#606);
#381=DESCRIPTIVE_REPRESENTATION_ITEM('Steel','Steel');
#382=PROPERTY_DEFINITION('material property','material name',#616);
#383=PROPERTY_DEFINITION('material property','density of part',#616);
#384=AXIS2_PLACEMENT_3D('',#505,#411,#412);
#385=AXIS2_PLACEMENT_3D('',#506,#413,#414);
#386=AXIS2_PLACEMENT_3D('',#515,#419,#420);
#387=AXIS2_PLACEMENT_3D('',#521,#424,#425);
#388=AXIS2_PLACEMENT_3D('',#527,#429,#430);
#389=AXIS2_PLACEMENT_3D('',#537,#436,#437);
#390=AXIS2_PLACEMENT_3D('',#539,#438,#439);
#391=AXIS2_PLACEMENT_3D('',#542,#441,#442);
#392=AXIS2_PLACEMENT_3D('',#543,#443,#444);
#393=AXIS2_PLACEMENT_3D('',#545,#445,#446);
#394=AXIS2_PLACEMENT_3D('',#548,#448,#449);
#395=AXIS2_PLACEMENT_3D('',#549,#450,#451);
#396=AXIS2_PLACEMENT_3D('',#551,#452,#453);
#397=AXIS2_PLACEMENT_3D('',#554,#455,#456);
#398=AXIS2_PLACEMENT_3D('',#555,#457,#458);
#399=AXIS2_PLACEMENT_3D('',#557,#459,#460);
#400=AXIS2_PLACEMENT_3D('',#560,#462,#463);
#401=AXIS2_PLACEMENT_3D('',#561,#464,#465);
#402=AXIS2_PLACEMENT_3D('',#568,#470,#471);
#403=AXIS2_PLACEMENT_3D('',#572,#474,#475);
#404=AXIS2_PLACEMENT_3D('',#576,#478,#479);
#405=AXIS2_PLACEMENT_3D('',#578,#481,#482);
#406=AXIS2_PLACEMENT_3D('',#587,#487,#488);
#407=AXIS2_PLACEMENT_3D('',#593,#492,#493);
#408=AXIS2_PLACEMENT_3D('',#599,#497,#498);
#409=AXIS2_PLACEMENT_3D('',#602,#501,#502);
#410=AXIS2_PLACEMENT_3D('',#603,#503,#504);
#411=DIRECTION('axis',(0.,0.,1.));
#412=DIRECTION('refdir',(1.,0.,0.));
#413=DIRECTION('center_axis',(-1.,0.,0.));
#414=DIRECTION('ref_axis',(0.,0.,-1.));
#415=DIRECTION('',(0.,0.,-1.));
#416=DIRECTION('',(0.,-1.,0.));
#417=DIRECTION('',(0.,0.,1.));
#418=DIRECTION('',(0.,-1.,0.));
#419=DIRECTION('center_axis',(0.,0.,1.));
#420=DIRECTION('ref_axis',(-1.,0.,0.));
#421=DIRECTION('',(-1.,0.,0.));
#422=DIRECTION('',(0.,-1.,0.));
#423=DIRECTION('',(1.,0.,0.));
#424=DIRECTION('center_axis',(1.,0.,0.));
#425=DIRECTION('ref_axis',(0.,0.,1.));
#426=DIRECTION('',(0.,0.,1.));
#427=DIRECTION('',(0.,-1.,0.));
#428=DIRECTION('',(0.,0.,-1.));
#429=DIRECTION('center_axis',(0.,-1.,0.));
#430=DIRECTION('ref_axis',(1.,0.,0.));
#431=DIRECTION('',(1.,0.,0.));
#432=DIRECTION('',(0.,0.,1.));
#433=DIRECTION('',(1.,0.,0.));
#434=DIRECTION('',(0.,0.,1.));
#435=DIRECTION('',(1.,0.,0.));
#436=DIRECTION('center_axis',(0.,0.,-1.));
#437=DIRECTION('ref_axis',(-1.,0.,0.));
#438=DIRECTION('center_axis',(0.,0.,-1.));
#439=DIRECTION('ref_axis',(-1.,0.,0.));
#440=DIRECTION('',(0.,0.,-1.));
#441=DIRECTION('center_axis',(0.,0.,1.));
#442=DIRECTION('ref_axis',(-1.,0.,0.));
#443=DIRECTION('center_axis',(0.,0.,-1.));
#444=DIRECTION('ref_axis',(-1.,0.,0.));
#445=DIRECTION('center_axis',(0.,0.,-1.));
#446=DIRECTION('ref_axis',(-1.,0.,0.));
#447=DIRECTION('',(0.,0.,-1.));
#448=DIRECTION('center_axis',(0.,0.,1.));
#449=DIRECTION('ref_axis',(-1.,0.,0.));
#450=DIRECTION('center_axis',(0.,0.,-1.));
#451=DIRECTION('ref_axis',(-1.,0.,0.));
#452=DIRECTION('center_axis',(0.,0.,-1.));
#453=DIRECTION('ref_axis',(-1.,0.,0.));
#454=DIRECTION('',(0.,0.,-1.));
#455=DIRECTION('center_axis',(0.,0.,1.));
#456=DIRECTION('ref_axis',(-1.,0.,0.));
#457=DIRECTION('center_axis',(0.,0.,-1.));
#458=DIRECTION('ref_axis',(-1.,0.,0.));
#459=DIRECTION('center_axis',(0.,0.,-1.));
#460=DIRECTION('ref_axis',(-1.,0.,0.));
#461=DIRECTION('',(0.,0.,-1.));
#462=DIRECTION('center_axis',(0.,0.,1.));
#463=DIRECTION('ref_axis',(-1.,0.,0.));
#464=DIRECTION('center_axis',(0.,0.,1.));
#465=DIRECTION('ref_axis',(1.,0.,0.));
#466=DIRECTION('',(-1.,0.,0.));
#467=DIRECTION('',(0.,-1.,0.));
#468=DIRECTION('',(1.,0.,0.));
#469=DIRECTION('',(0.,1.,0.));
#470=DIRECTION('center_axis',(-1.,0.,0.));
#471=DIRECTION('ref_axis',(0.,-1.,0.));
#472=DIRECTION('',(0.,0.,1.));
#473=DIRECTION('',(0.,-1.,0.));
#474=DIRECTION('center_axis',(1.,0.,0.));
#475=DIRECTION('ref_axis',(0.,1.,0.));
#476=DIRECTION('',(0.,1.,0.));
#477=DIRECTION('',(0.,0.,1.));
#478=DIRECTION('center_axis',(0.,1.,0.));
#479=DIRECTION('ref_axis',(-1.,0.,0.));
#480=DIRECTION('',(-1.,0.,0.));
#481=DIRECTION('center_axis',(-1.,0.,0.));
#482=DIRECTION('ref_axis',(0.,-1.,0.));
#483=DIRECTION('',(0.,1.,0.));
#484=DIRECTION('',(0.,0.,1.));
#485=DIRECTION('',(0.,-1.,0.));
#486=DIRECTION('',(0.,0.,1.));
#487=DIRECTION('center_axis',(0.,1.,0.));
#488=DIRECTION('ref_axis',(-1.,0.,0.));
#489=DIRECTION('',(1.,0.,0.));
#490=DIRECTION('',(-1.,0.,0.));
#491=DIRECTION('',(0.,0.,1.));
#492=DIRECTION('center_axis',(1.,0.,0.));
#493=DIRECTION('ref_axis',(0.,1.,0.));
#494=DIRECTION('',(0.,-1.,0.));
#495=DIRECTION('',(0.,1.,0.));
#496=DIRECTION('',(0.,0.,1.));
#497=DIRECTION('center_axis',(0.,-1.,0.));
#498=DIRECTION('ref_axis',(1.,0.,0.));
#499=DIRECTION('',(-1.,0.,0.));
#500=DIRECTION('',(1.,0.,0.));
#501=DIRECTION('center_axis',(0.,0.,1.));
#502=DIRECTION('ref_axis',(1.,0.,0.));
#503=DIRECTION('center_axis',(0.,0.,1.));
#504=DIRECTION('ref_axis',(1.,0.,0.));
#505=CARTESIAN_POINT('',(0.,0.,0.));
#506=CARTESIAN_POINT('Origin',(-5.90000044703482,20.0000002980232,7.));
#507=CARTESIAN_POINT('',(-5.90000044703482,20.0000002980232,7.));
#508=CARTESIAN_POINT('',(-5.90000044703482,20.0000002980232,3.));
#509=CARTESIAN_POINT('',(-5.90000044703482,20.0000002980232,3.5));
#510=CARTESIAN_POINT('',(-5.90000044703482,10.0000002980232,7.));
#511=CARTESIAN_POINT('',(-5.90000044703482,20.0000002980232,7.));
#512=CARTESIAN_POINT('',(-5.90000044703482,10.0000002980232,3.));
#513=CARTESIAN_POINT('',(-5.90000044703482,10.0000001490116,3.5));
#514=CARTESIAN_POINT('',(-5.90000044703482,20.0000002980232,3.));
#515=CARTESIAN_POINT('Origin',(4.49999955296518,20.0000002980232,7.));
#516=CARTESIAN_POINT('',(4.49999955296518,20.0000002980232,7.));
#517=CARTESIAN_POINT('',(35.9499995529652,20.0000002980232,7.));
#518=CARTESIAN_POINT('',(4.49999955296518,10.0000002980232,7.));
#519=CARTESIAN_POINT('',(4.49999955296518,20.0000002980232,7.));
#520=CARTESIAN_POINT('',(-7.75000037252902,10.0000001490116,7.));
#521=CARTESIAN_POINT('Origin',(4.49999955296518,20.0000002980232,3.));
#522=CARTESIAN_POINT('',(4.49999955296518,20.0000002980232,3.));
#523=CARTESIAN_POINT('',(4.49999955296518,20.0000002980232,1.5));
#524=CARTESIAN_POINT('',(4.49999955296518,10.0000002980232,3.));
#525=CARTESIAN_POINT('',(4.49999955296518,20.0000002980232,3.));
#526=CARTESIAN_POINT('',(4.49999955296518,10.0000001490116,1.5));
#527=CARTESIAN_POINT('Origin',(-20.0000002980232,10.0000001490116,0.));
#528=CARTESIAN_POINT('',(57.3999997019768,10.0000001490116,3.));
#529=CARTESIAN_POINT('',(-0.650000298023221,10.0000001490116,3.));
#530=CARTESIAN_POINT('',(57.3999997019768,10.0000001490116,13.));
#531=CARTESIAN_POINT('',(57.3999997019768,10.0000001490116,0.));
#532=CARTESIAN_POINT('',(-20.0000002980232,10.0000001490116,13.));
#533=CARTESIAN_POINT('',(-20.0000002980232,10.0000001490116,13.));
#534=CARTESIAN_POINT('',(-20.0000002980232,10.0000001490116,3.));
#535=CARTESIAN_POINT('',(-20.0000002980232,10.0000001490116,0.));
#536=CARTESIAN_POINT('',(-0.650000298023221,10.0000001490116,3.));
#537=CARTESIAN_POINT('Origin',(62.3999995529652,-64.8999997019768,13.));
#538=CARTESIAN_POINT('',(63.9999995529652,-64.8999997019768,13.));
#539=CARTESIAN_POINT('Origin',(62.3999995529652,-64.8999997019768,13.));
#540=CARTESIAN_POINT('',(63.9999995529652,-64.8999997019768,0.));
#541=CARTESIAN_POINT('',(63.9999995529652,-64.8999997019768,13.));
#542=CARTESIAN_POINT('Origin',(62.3999995529652,-64.8999997019768,0.));
#543=CARTESIAN_POINT('Origin',(-25.0000004470348,-64.8999997019768,13.));
#544=CARTESIAN_POINT('',(-23.4000004470348,-64.8999997019768,13.));
#545=CARTESIAN_POINT('Origin',(-25.0000004470348,-64.8999997019768,13.));
#546=CARTESIAN_POINT('',(-23.4000004470348,-64.8999997019768,0.));
#547=CARTESIAN_POINT('',(-23.4000004470348,-64.8999997019768,13.));
#548=CARTESIAN_POINT('Origin',(-25.0000004470348,-64.8999997019768,0.));
#549=CARTESIAN_POINT('Origin',(62.3999997019768,15.0000002235174,13.));
#550=CARTESIAN_POINT('',(63.9999997019768,15.0000002235174,13.));
#551=CARTESIAN_POINT('Origin',(62.3999997019768,15.0000002235174,13.));
#552=CARTESIAN_POINT('',(63.9999997019768,15.0000002235174,0.));
#553=CARTESIAN_POINT('',(63.9999997019768,15.0000002235174,13.));
#554=CARTESIAN_POINT('Origin',(62.3999997019768,15.0000002235174,0.));
#555=CARTESIAN_POINT('Origin',(-25.000000372529,15.0000002235174,13.));
#556=CARTESIAN_POINT('',(-23.400000372529,15.0000002235174,13.));
#557=CARTESIAN_POINT('Origin',(-25.000000372529,15.0000002235174,13.));
#558=CARTESIAN_POINT('',(-23.400000372529,15.0000002235174,0.));
#559=CARTESIAN_POINT('',(-23.400000372529,15.0000002235174,13.));
#560=CARTESIAN_POINT('Origin',(-25.000000372529,15.0000002235174,0.));
#561=CARTESIAN_POINT('Origin',(18.6999997019768,-24.9499998509884,3.));
#562=CARTESIAN_POINT('',(57.3999997019768,-59.8999998509884,3.));
#563=CARTESIAN_POINT('',(-20.0000002980232,-59.8999998509884,3.));
#564=CARTESIAN_POINT('',(38.0499997019768,-59.8999998509884,3.));
#565=CARTESIAN_POINT('',(57.3999997019768,-7.47499985098839,3.));
#566=CARTESIAN_POINT('',(30.7499995529652,20.0000002980232,3.));
#567=CARTESIAN_POINT('',(-20.0000002980232,-42.4249998509884,3.));
#568=CARTESIAN_POINT('Origin',(57.3999997019768,10.0000001490116,0.));
#569=CARTESIAN_POINT('',(57.3999997019768,-59.8999998509884,13.));
#570=CARTESIAN_POINT('',(57.3999997019768,-59.8999998509884,0.));
#571=CARTESIAN_POINT('',(57.3999997019768,10.0000001490116,13.));
#572=CARTESIAN_POINT('Origin',(-20.0000002980232,-59.8999998509884,0.));
#573=CARTESIAN_POINT('',(-20.0000002980232,-59.8999998509884,13.));
#574=CARTESIAN_POINT('',(-20.0000002980232,-59.8999998509884,13.));
#575=CARTESIAN_POINT('',(-20.0000002980232,-59.8999998509884,0.));
#576=CARTESIAN_POINT('Origin',(57.3999997019768,-59.8999998509884,0.));
#577=CARTESIAN_POINT('',(57.3999997019768,-59.8999998509884,13.));
#578=CARTESIAN_POINT('Origin',(-30.0000004470348,20.0000002980232,0.));
#579=CARTESIAN_POINT('',(-30.0000004470348,-69.8999997019768,0.));
#580=CARTESIAN_POINT('',(-30.0000004470348,20.0000002980232,0.));
#581=CARTESIAN_POINT('',(-30.0000004470348,-69.8999997019768,0.));
#582=CARTESIAN_POINT('',(-30.0000004470348,-69.8999997019768,13.));
#583=CARTESIAN_POINT('',(-30.0000004470348,-69.8999997019768,0.));
#584=CARTESIAN_POINT('',(-30.0000004470348,20.0000002980232,13.));
#585=CARTESIAN_POINT('',(-30.0000004470348,-69.8999997019768,13.));
#586=CARTESIAN_POINT('',(-30.0000004470348,20.0000002980232,0.));
#587=CARTESIAN_POINT('Origin',(67.3999995529652,20.0000002980232,0.));
#588=CARTESIAN_POINT('',(67.3999995529652,20.0000002980232,0.));
#589=CARTESIAN_POINT('',(-30.0000004470348,20.0000002980232,0.));
#590=CARTESIAN_POINT('',(67.3999995529652,20.0000002980232,13.));
#591=CARTESIAN_POINT('',(-30.0000004470348,20.0000002980232,13.));
#592=CARTESIAN_POINT('',(67.3999995529652,20.0000002980232,0.));
#593=CARTESIAN_POINT('Origin',(67.3999995529652,-69.8999997019768,0.));
#594=CARTESIAN_POINT('',(67.3999995529652,-69.8999997019768,0.));
#595=CARTESIAN_POINT('',(67.3999995529652,20.0000002980232,0.));
#596=CARTESIAN_POINT('',(67.3999995529652,-69.8999997019768,13.));
#597=CARTESIAN_POINT('',(67.3999995529652,20.0000002980232,13.));
#598=CARTESIAN_POINT('',(67.3999995529652,-69.8999997019768,0.));
#599=CARTESIAN_POINT('Origin',(-30.0000004470348,-69.8999997019768,0.));
#600=CARTESIAN_POINT('',(67.3999995529652,-69.8999997019768,0.));
#601=CARTESIAN_POINT('',(67.3999995529652,-69.8999997019768,13.));
#602=CARTESIAN_POINT('Origin',(18.6999995529652,-24.9499997019768,13.));
#603=CARTESIAN_POINT('Origin',(18.6999995529652,-24.9499997019768,0.));
#604=UNCERTAINTY_MEASURE_WITH_UNIT(LENGTH_MEASURE(0.01),#608,
'DISTANCE_ACCURACY_VALUE',
'Maximum model space distance between geometric entities at asserted c
onnectivities');
#605=UNCERTAINTY_MEASURE_WITH_UNIT(LENGTH_MEASURE(0.01),#608,
'DISTANCE_ACCURACY_VALUE',
'Maximum model space distance between geometric entities at asserted c
onnectivities');
#606=(
GEOMETRIC_REPRESENTATION_CONTEXT(3)
GLOBAL_UNCERTAINTY_ASSIGNED_CONTEXT((#604))
GLOBAL_UNIT_ASSIGNED_CONTEXT((#608,#610,#611))
REPRESENTATION_CONTEXT('','3D')
);
#607=(
GEOMETRIC_REPRESENTATION_CONTEXT(3)
GLOBAL_UNCERTAINTY_ASSIGNED_CONTEXT((#605))
GLOBAL_UNIT_ASSIGNED_CONTEXT((#608,#610,#611))
REPRESENTATION_CONTEXT('','3D')
);
#608=(
LENGTH_UNIT()
NAMED_UNIT(*)
SI_UNIT(.MILLI.,.METRE.)
);
#609=(
LENGTH_UNIT()
NAMED_UNIT(*)
SI_UNIT($,.METRE.)
);
#610=(
NAMED_UNIT(*)
PLANE_ANGLE_UNIT()
SI_UNIT($,.RADIAN.)
);
#611=(
NAMED_UNIT(*)
SI_UNIT($,.STERADIAN.)
SOLID_ANGLE_UNIT()
);
#612=SHAPE_DEFINITION_REPRESENTATION(#613,#614);
#613=PRODUCT_DEFINITION_SHAPE('',$,#616);
#614=SHAPE_REPRESENTATION('',(#384),#606);
#615=PRODUCT_DEFINITION_CONTEXT('part definition',#620,'design');
#616=PRODUCT_DEFINITION('2026-08-02-16-25-32-052',
'Jarned V1 - Bottom 2',#617,#615);
#617=PRODUCT_DEFINITION_FORMATION('',$,#622);
#618=PRODUCT_RELATED_PRODUCT_CATEGORY('Jarned V1 - Bottom 2',
'Jarned V1 - Bottom 2',(#622));
#619=APPLICATION_PROTOCOL_DEFINITION('international standard',
'automotive_design',2009,#620);
#620=APPLICATION_CONTEXT(
'Core Data for Automotive Mechanical Design Process');
#621=PRODUCT_CONTEXT('part definition',#620,'mechanical');
#622=PRODUCT('2026-08-02-16-25-32-052','Jarned V1 - Bottom 2',$,(#621));
#623=PRESENTATION_STYLE_ASSIGNMENT((#624));
#624=SURFACE_STYLE_USAGE(.BOTH.,#625);
#625=SURFACE_SIDE_STYLE('',(#626));
#626=SURFACE_STYLE_FILL_AREA(#627);
#627=FILL_AREA_STYLE('Steel - Satin',(#628));
#628=FILL_AREA_STYLE_COLOUR('Steel - Satin',#629);
#629=COLOUR_RGB('Steel - Satin',0.627450980392157,0.627450980392157,0.627450980392157);
ENDSEC;
END-ISO-10303-21;
