ISO-10303-21;
HEADER;
/* Generated by software containing ST-Developer
 * from STEP Tools, Inc. (www.steptools.com) 
 */

FILE_DESCRIPTION(
/* description */ (''),
/* implementation_level */ '2;1');

FILE_NAME(
/* name */ 'Jarned V1 - Top.step',
/* time_stamp */ '2026-06-07T19:43:35+01:00',
/* author */ (''),
/* organization */ (''),
/* preprocessor_version */ 'ST-DEVELOPER v20.1',
/* originating_system */ 'Autodesk Translation Framework v15.8.0.0',
/* authorisation */ '');

FILE_SCHEMA (('AUTOMOTIVE_DESIGN { 1 0 10303 214 3 1 1 }'));
ENDSEC;

DATA;
#10=MECHANICAL_DESIGN_GEOMETRIC_PRESENTATION_REPRESENTATION('',(#13),#1135);
#11=SHAPE_REPRESENTATION_RELATIONSHIP('SRR','None',#1142,#12);
#12=ADVANCED_BREP_SHAPE_REPRESENTATION('',(#14),#1134);
#13=STYLED_ITEM('',(#1151),#14);
#14=MANIFOLD_SOLID_BREP('Body1',#723);
#15=FACE_BOUND('',#96,.T.);
#16=FACE_BOUND('',#97,.T.);
#17=FACE_BOUND('',#98,.T.);
#18=FACE_BOUND('',#99,.T.);
#19=FACE_BOUND('',#100,.T.);
#20=FACE_BOUND('',#101,.T.);
#21=FACE_BOUND('',#102,.T.);
#22=FACE_BOUND('',#104,.T.);
#23=FACE_BOUND('',#105,.T.);
#24=FACE_BOUND('',#106,.T.);
#25=FACE_BOUND('',#107,.T.);
#26=FACE_BOUND('',#108,.T.);
#27=FACE_BOUND('',#109,.T.);
#28=FACE_BOUND('',#110,.T.);
#29=FACE_OUTER_BOUND('',#63,.T.);
#30=FACE_OUTER_BOUND('',#64,.T.);
#31=FACE_OUTER_BOUND('',#65,.T.);
#32=FACE_OUTER_BOUND('',#66,.T.);
#33=FACE_OUTER_BOUND('',#67,.T.);
#34=FACE_OUTER_BOUND('',#68,.T.);
#35=FACE_OUTER_BOUND('',#69,.T.);
#36=FACE_OUTER_BOUND('',#70,.T.);
#37=FACE_OUTER_BOUND('',#71,.T.);
#38=FACE_OUTER_BOUND('',#72,.T.);
#39=FACE_OUTER_BOUND('',#73,.T.);
#40=FACE_OUTER_BOUND('',#74,.T.);
#41=FACE_OUTER_BOUND('',#75,.T.);
#42=FACE_OUTER_BOUND('',#76,.T.);
#43=FACE_OUTER_BOUND('',#77,.T.);
#44=FACE_OUTER_BOUND('',#78,.T.);
#45=FACE_OUTER_BOUND('',#79,.T.);
#46=FACE_OUTER_BOUND('',#80,.T.);
#47=FACE_OUTER_BOUND('',#81,.T.);
#48=FACE_OUTER_BOUND('',#82,.T.);
#49=FACE_OUTER_BOUND('',#83,.T.);
#50=FACE_OUTER_BOUND('',#84,.T.);
#51=FACE_OUTER_BOUND('',#85,.T.);
#52=FACE_OUTER_BOUND('',#86,.T.);
#53=FACE_OUTER_BOUND('',#87,.T.);
#54=FACE_OUTER_BOUND('',#88,.T.);
#55=FACE_OUTER_BOUND('',#89,.T.);
#56=FACE_OUTER_BOUND('',#90,.T.);
#57=FACE_OUTER_BOUND('',#91,.T.);
#58=FACE_OUTER_BOUND('',#92,.T.);
#59=FACE_OUTER_BOUND('',#93,.T.);
#60=FACE_OUTER_BOUND('',#94,.T.);
#61=FACE_OUTER_BOUND('',#95,.T.);
#62=FACE_OUTER_BOUND('',#103,.T.);
#63=EDGE_LOOP('',(#463,#464,#465,#466));
#64=EDGE_LOOP('',(#467,#468,#469,#470));
#65=EDGE_LOOP('',(#471,#472,#473,#474));
#66=EDGE_LOOP('',(#475,#476,#477,#478));
#67=EDGE_LOOP('',(#479,#480,#481,#482));
#68=EDGE_LOOP('',(#483,#484,#485,#486));
#69=EDGE_LOOP('',(#487,#488,#489,#490));
#70=EDGE_LOOP('',(#491,#492,#493,#494));
#71=EDGE_LOOP('',(#495,#496,#497,#498));
#72=EDGE_LOOP('',(#499,#500,#501,#502));
#73=EDGE_LOOP('',(#503,#504,#505,#506));
#74=EDGE_LOOP('',(#507,#508,#509,#510));
#75=EDGE_LOOP('',(#511,#512,#513,#514));
#76=EDGE_LOOP('',(#515,#516,#517,#518));
#77=EDGE_LOOP('',(#519,#520,#521,#522));
#78=EDGE_LOOP('',(#523,#524,#525,#526));
#79=EDGE_LOOP('',(#527,#528,#529,#530));
#80=EDGE_LOOP('',(#531,#532,#533,#534));
#81=EDGE_LOOP('',(#535,#536,#537,#538));
#82=EDGE_LOOP('',(#539,#540,#541,#542));
#83=EDGE_LOOP('',(#543,#544,#545,#546));
#84=EDGE_LOOP('',(#547,#548,#549,#550));
#85=EDGE_LOOP('',(#551,#552,#553,#554));
#86=EDGE_LOOP('',(#555,#556,#557,#558));
#87=EDGE_LOOP('',(#559,#560,#561,#562));
#88=EDGE_LOOP('',(#563,#564,#565,#566));
#89=EDGE_LOOP('',(#567,#568,#569,#570));
#90=EDGE_LOOP('',(#571,#572,#573,#574));
#91=EDGE_LOOP('',(#575,#576,#577,#578));
#92=EDGE_LOOP('',(#579,#580,#581,#582));
#93=EDGE_LOOP('',(#583,#584,#585,#586));
#94=EDGE_LOOP('',(#587,#588,#589,#590));
#95=EDGE_LOOP('',(#591,#592,#593,#594));
#96=EDGE_LOOP('',(#595,#596,#597,#598));
#97=EDGE_LOOP('',(#599,#600,#601,#602));
#98=EDGE_LOOP('',(#603,#604,#605,#606));
#99=EDGE_LOOP('',(#607,#608,#609,#610));
#100=EDGE_LOOP('',(#611,#612,#613,#614));
#101=EDGE_LOOP('',(#615,#616,#617,#618));
#102=EDGE_LOOP('',(#619,#620,#621,#622));
#103=EDGE_LOOP('',(#623,#624,#625,#626));
#104=EDGE_LOOP('',(#627,#628,#629,#630));
#105=EDGE_LOOP('',(#631,#632,#633,#634));
#106=EDGE_LOOP('',(#635,#636,#637,#638));
#107=EDGE_LOOP('',(#639,#640,#641,#642));
#108=EDGE_LOOP('',(#643,#644,#645,#646));
#109=EDGE_LOOP('',(#647,#648,#649,#650));
#110=EDGE_LOOP('',(#651,#652,#653,#654));
#111=LINE('',#941,#207);
#112=LINE('',#943,#208);
#113=LINE('',#945,#209);
#114=LINE('',#946,#210);
#115=LINE('',#949,#211);
#116=LINE('',#951,#212);
#117=LINE('',#952,#213);
#118=LINE('',#955,#214);
#119=LINE('',#957,#215);
#120=LINE('',#958,#216);
#121=LINE('',#960,#217);
#122=LINE('',#961,#218);
#123=LINE('',#965,#219);
#124=LINE('',#967,#220);
#125=LINE('',#969,#221);
#126=LINE('',#970,#222);
#127=LINE('',#973,#223);
#128=LINE('',#975,#224);
#129=LINE('',#976,#225);
#130=LINE('',#979,#226);
#131=LINE('',#981,#227);
#132=LINE('',#982,#228);
#133=LINE('',#984,#229);
#134=LINE('',#985,#230);
#135=LINE('',#989,#231);
#136=LINE('',#991,#232);
#137=LINE('',#993,#233);
#138=LINE('',#994,#234);
#139=LINE('',#997,#235);
#140=LINE('',#999,#236);
#141=LINE('',#1000,#237);
#142=LINE('',#1003,#238);
#143=LINE('',#1005,#239);
#144=LINE('',#1006,#240);
#145=LINE('',#1008,#241);
#146=LINE('',#1009,#242);
#147=LINE('',#1013,#243);
#148=LINE('',#1015,#244);
#149=LINE('',#1017,#245);
#150=LINE('',#1018,#246);
#151=LINE('',#1021,#247);
#152=LINE('',#1023,#248);
#153=LINE('',#1024,#249);
#154=LINE('',#1027,#250);
#155=LINE('',#1029,#251);
#156=LINE('',#1030,#252);
#157=LINE('',#1032,#253);
#158=LINE('',#1033,#254);
#159=LINE('',#1037,#255);
#160=LINE('',#1039,#256);
#161=LINE('',#1041,#257);
#162=LINE('',#1042,#258);
#163=LINE('',#1045,#259);
#164=LINE('',#1047,#260);
#165=LINE('',#1048,#261);
#166=LINE('',#1051,#262);
#167=LINE('',#1053,#263);
#168=LINE('',#1054,#264);
#169=LINE('',#1056,#265);
#170=LINE('',#1057,#266);
#171=LINE('',#1061,#267);
#172=LINE('',#1063,#268);
#173=LINE('',#1065,#269);
#174=LINE('',#1066,#270);
#175=LINE('',#1069,#271);
#176=LINE('',#1071,#272);
#177=LINE('',#1072,#273);
#178=LINE('',#1075,#274);
#179=LINE('',#1077,#275);
#180=LINE('',#1078,#276);
#181=LINE('',#1080,#277);
#182=LINE('',#1081,#278);
#183=LINE('',#1085,#279);
#184=LINE('',#1087,#280);
#185=LINE('',#1089,#281);
#186=LINE('',#1090,#282);
#187=LINE('',#1093,#283);
#188=LINE('',#1095,#284);
#189=LINE('',#1096,#285);
#190=LINE('',#1099,#286);
#191=LINE('',#1101,#287);
#192=LINE('',#1102,#288);
#193=LINE('',#1104,#289);
#194=LINE('',#1105,#290);
#195=LINE('',#1109,#291);
#196=LINE('',#1111,#292);
#197=LINE('',#1113,#293);
#198=LINE('',#1114,#294);
#199=LINE('',#1117,#295);
#200=LINE('',#1119,#296);
#201=LINE('',#1120,#297);
#202=LINE('',#1123,#298);
#203=LINE('',#1125,#299);
#204=LINE('',#1126,#300);
#205=LINE('',#1128,#301);
#206=LINE('',#1129,#302);
#207=VECTOR('',#775,10.);
#208=VECTOR('',#776,10.);
#209=VECTOR('',#777,10.);
#210=VECTOR('',#778,10.);
#211=VECTOR('',#781,10.);
#212=VECTOR('',#782,10.);
#213=VECTOR('',#783,10.);
#214=VECTOR('',#786,10.);
#215=VECTOR('',#787,10.);
#216=VECTOR('',#788,10.);
#217=VECTOR('',#791,10.);
#218=VECTOR('',#792,10.);
#219=VECTOR('',#795,10.);
#220=VECTOR('',#796,10.);
#221=VECTOR('',#797,10.);
#222=VECTOR('',#798,10.);
#223=VECTOR('',#801,10.);
#224=VECTOR('',#802,10.);
#225=VECTOR('',#803,10.);
#226=VECTOR('',#806,10.);
#227=VECTOR('',#807,10.);
#228=VECTOR('',#808,10.);
#229=VECTOR('',#811,10.);
#230=VECTOR('',#812,10.);
#231=VECTOR('',#815,10.);
#232=VECTOR('',#816,10.);
#233=VECTOR('',#817,10.);
#234=VECTOR('',#818,10.);
#235=VECTOR('',#821,10.);
#236=VECTOR('',#822,10.);
#237=VECTOR('',#823,10.);
#238=VECTOR('',#826,10.);
#239=VECTOR('',#827,10.);
#240=VECTOR('',#828,10.);
#241=VECTOR('',#831,10.);
#242=VECTOR('',#832,10.);
#243=VECTOR('',#835,10.);
#244=VECTOR('',#836,10.);
#245=VECTOR('',#837,10.);
#246=VECTOR('',#838,10.);
#247=VECTOR('',#841,10.);
#248=VECTOR('',#842,10.);
#249=VECTOR('',#843,10.);
#250=VECTOR('',#846,10.);
#251=VECTOR('',#847,10.);
#252=VECTOR('',#848,10.);
#253=VECTOR('',#851,10.);
#254=VECTOR('',#852,10.);
#255=VECTOR('',#855,10.);
#256=VECTOR('',#856,10.);
#257=VECTOR('',#857,10.);
#258=VECTOR('',#858,10.);
#259=VECTOR('',#861,10.);
#260=VECTOR('',#862,10.);
#261=VECTOR('',#863,10.);
#262=VECTOR('',#866,10.);
#263=VECTOR('',#867,10.);
#264=VECTOR('',#868,10.);
#265=VECTOR('',#871,10.);
#266=VECTOR('',#872,10.);
#267=VECTOR('',#875,10.);
#268=VECTOR('',#876,10.);
#269=VECTOR('',#877,10.);
#270=VECTOR('',#878,10.);
#271=VECTOR('',#881,10.);
#272=VECTOR('',#882,10.);
#273=VECTOR('',#883,10.);
#274=VECTOR('',#886,10.);
#275=VECTOR('',#887,10.);
#276=VECTOR('',#888,10.);
#277=VECTOR('',#891,10.);
#278=VECTOR('',#892,10.);
#279=VECTOR('',#895,10.);
#280=VECTOR('',#896,10.);
#281=VECTOR('',#897,10.);
#282=VECTOR('',#898,10.);
#283=VECTOR('',#901,10.);
#284=VECTOR('',#902,10.);
#285=VECTOR('',#903,10.);
#286=VECTOR('',#906,10.);
#287=VECTOR('',#907,10.);
#288=VECTOR('',#908,10.);
#289=VECTOR('',#911,10.);
#290=VECTOR('',#912,10.);
#291=VECTOR('',#915,10.);
#292=VECTOR('',#916,10.);
#293=VECTOR('',#917,10.);
#294=VECTOR('',#918,10.);
#295=VECTOR('',#921,10.);
#296=VECTOR('',#922,10.);
#297=VECTOR('',#923,10.);
#298=VECTOR('',#926,10.);
#299=VECTOR('',#927,10.);
#300=VECTOR('',#928,10.);
#301=VECTOR('',#931,10.);
#302=VECTOR('',#932,10.);
#303=VERTEX_POINT('',#939);
#304=VERTEX_POINT('',#940);
#305=VERTEX_POINT('',#942);
#306=VERTEX_POINT('',#944);
#307=VERTEX_POINT('',#948);
#308=VERTEX_POINT('',#950);
#309=VERTEX_POINT('',#954);
#310=VERTEX_POINT('',#956);
#311=VERTEX_POINT('',#963);
#312=VERTEX_POINT('',#964);
#313=VERTEX_POINT('',#966);
#314=VERTEX_POINT('',#968);
#315=VERTEX_POINT('',#972);
#316=VERTEX_POINT('',#974);
#317=VERTEX_POINT('',#978);
#318=VERTEX_POINT('',#980);
#319=VERTEX_POINT('',#987);
#320=VERTEX_POINT('',#988);
#321=VERTEX_POINT('',#990);
#322=VERTEX_POINT('',#992);
#323=VERTEX_POINT('',#996);
#324=VERTEX_POINT('',#998);
#325=VERTEX_POINT('',#1002);
#326=VERTEX_POINT('',#1004);
#327=VERTEX_POINT('',#1011);
#328=VERTEX_POINT('',#1012);
#329=VERTEX_POINT('',#1014);
#330=VERTEX_POINT('',#1016);
#331=VERTEX_POINT('',#1020);
#332=VERTEX_POINT('',#1022);
#333=VERTEX_POINT('',#1026);
#334=VERTEX_POINT('',#1028);
#335=VERTEX_POINT('',#1035);
#336=VERTEX_POINT('',#1036);
#337=VERTEX_POINT('',#1038);
#338=VERTEX_POINT('',#1040);
#339=VERTEX_POINT('',#1044);
#340=VERTEX_POINT('',#1046);
#341=VERTEX_POINT('',#1050);
#342=VERTEX_POINT('',#1052);
#343=VERTEX_POINT('',#1059);
#344=VERTEX_POINT('',#1060);
#345=VERTEX_POINT('',#1062);
#346=VERTEX_POINT('',#1064);
#347=VERTEX_POINT('',#1068);
#348=VERTEX_POINT('',#1070);
#349=VERTEX_POINT('',#1074);
#350=VERTEX_POINT('',#1076);
#351=VERTEX_POINT('',#1083);
#352=VERTEX_POINT('',#1084);
#353=VERTEX_POINT('',#1086);
#354=VERTEX_POINT('',#1088);
#355=VERTEX_POINT('',#1092);
#356=VERTEX_POINT('',#1094);
#357=VERTEX_POINT('',#1098);
#358=VERTEX_POINT('',#1100);
#359=VERTEX_POINT('',#1107);
#360=VERTEX_POINT('',#1108);
#361=VERTEX_POINT('',#1110);
#362=VERTEX_POINT('',#1112);
#363=VERTEX_POINT('',#1116);
#364=VERTEX_POINT('',#1118);
#365=VERTEX_POINT('',#1122);
#366=VERTEX_POINT('',#1124);
#367=EDGE_CURVE('',#303,#304,#111,.T.);
#368=EDGE_CURVE('',#303,#305,#112,.T.);
#369=EDGE_CURVE('',#306,#305,#113,.T.);
#370=EDGE_CURVE('',#304,#306,#114,.T.);
#371=EDGE_CURVE('',#307,#303,#115,.T.);
#372=EDGE_CURVE('',#307,#308,#116,.T.);
#373=EDGE_CURVE('',#305,#308,#117,.T.);
#374=EDGE_CURVE('',#309,#307,#118,.T.);
#375=EDGE_CURVE('',#309,#310,#119,.T.);
#376=EDGE_CURVE('',#308,#310,#120,.T.);
#377=EDGE_CURVE('',#304,#309,#121,.T.);
#378=EDGE_CURVE('',#310,#306,#122,.T.);
#379=EDGE_CURVE('',#311,#312,#123,.T.);
#380=EDGE_CURVE('',#311,#313,#124,.T.);
#381=EDGE_CURVE('',#314,#313,#125,.T.);
#382=EDGE_CURVE('',#312,#314,#126,.T.);
#383=EDGE_CURVE('',#315,#311,#127,.T.);
#384=EDGE_CURVE('',#315,#316,#128,.T.);
#385=EDGE_CURVE('',#313,#316,#129,.T.);
#386=EDGE_CURVE('',#317,#315,#130,.T.);
#387=EDGE_CURVE('',#317,#318,#131,.T.);
#388=EDGE_CURVE('',#316,#318,#132,.T.);
#389=EDGE_CURVE('',#312,#317,#133,.T.);
#390=EDGE_CURVE('',#318,#314,#134,.T.);
#391=EDGE_CURVE('',#319,#320,#135,.T.);
#392=EDGE_CURVE('',#319,#321,#136,.T.);
#393=EDGE_CURVE('',#322,#321,#137,.T.);
#394=EDGE_CURVE('',#320,#322,#138,.T.);
#395=EDGE_CURVE('',#323,#319,#139,.T.);
#396=EDGE_CURVE('',#323,#324,#140,.T.);
#397=EDGE_CURVE('',#321,#324,#141,.T.);
#398=EDGE_CURVE('',#325,#323,#142,.T.);
#399=EDGE_CURVE('',#325,#326,#143,.T.);
#400=EDGE_CURVE('',#324,#326,#144,.T.);
#401=EDGE_CURVE('',#320,#325,#145,.T.);
#402=EDGE_CURVE('',#326,#322,#146,.T.);
#403=EDGE_CURVE('',#327,#328,#147,.T.);
#404=EDGE_CURVE('',#327,#329,#148,.T.);
#405=EDGE_CURVE('',#330,#329,#149,.T.);
#406=EDGE_CURVE('',#328,#330,#150,.T.);
#407=EDGE_CURVE('',#331,#327,#151,.T.);
#408=EDGE_CURVE('',#331,#332,#152,.T.);
#409=EDGE_CURVE('',#329,#332,#153,.T.);
#410=EDGE_CURVE('',#333,#331,#154,.T.);
#411=EDGE_CURVE('',#333,#334,#155,.T.);
#412=EDGE_CURVE('',#332,#334,#156,.T.);
#413=EDGE_CURVE('',#328,#333,#157,.T.);
#414=EDGE_CURVE('',#334,#330,#158,.T.);
#415=EDGE_CURVE('',#335,#336,#159,.T.);
#416=EDGE_CURVE('',#335,#337,#160,.T.);
#417=EDGE_CURVE('',#338,#337,#161,.T.);
#418=EDGE_CURVE('',#336,#338,#162,.T.);
#419=EDGE_CURVE('',#339,#335,#163,.T.);
#420=EDGE_CURVE('',#339,#340,#164,.T.);
#421=EDGE_CURVE('',#337,#340,#165,.T.);
#422=EDGE_CURVE('',#341,#339,#166,.T.);
#423=EDGE_CURVE('',#341,#342,#167,.T.);
#424=EDGE_CURVE('',#340,#342,#168,.T.);
#425=EDGE_CURVE('',#336,#341,#169,.T.);
#426=EDGE_CURVE('',#342,#338,#170,.T.);
#427=EDGE_CURVE('',#343,#344,#171,.T.);
#428=EDGE_CURVE('',#343,#345,#172,.T.);
#429=EDGE_CURVE('',#346,#345,#173,.T.);
#430=EDGE_CURVE('',#344,#346,#174,.T.);
#431=EDGE_CURVE('',#347,#343,#175,.T.);
#432=EDGE_CURVE('',#347,#348,#176,.T.);
#433=EDGE_CURVE('',#345,#348,#177,.T.);
#434=EDGE_CURVE('',#349,#347,#178,.T.);
#435=EDGE_CURVE('',#349,#350,#179,.T.);
#436=EDGE_CURVE('',#348,#350,#180,.T.);
#437=EDGE_CURVE('',#344,#349,#181,.T.);
#438=EDGE_CURVE('',#350,#346,#182,.T.);
#439=EDGE_CURVE('',#351,#352,#183,.T.);
#440=EDGE_CURVE('',#351,#353,#184,.T.);
#441=EDGE_CURVE('',#354,#353,#185,.T.);
#442=EDGE_CURVE('',#352,#354,#186,.T.);
#443=EDGE_CURVE('',#355,#351,#187,.T.);
#444=EDGE_CURVE('',#355,#356,#188,.T.);
#445=EDGE_CURVE('',#353,#356,#189,.T.);
#446=EDGE_CURVE('',#357,#355,#190,.T.);
#447=EDGE_CURVE('',#357,#358,#191,.T.);
#448=EDGE_CURVE('',#356,#358,#192,.T.);
#449=EDGE_CURVE('',#352,#357,#193,.T.);
#450=EDGE_CURVE('',#358,#354,#194,.T.);
#451=EDGE_CURVE('',#359,#360,#195,.T.);
#452=EDGE_CURVE('',#359,#361,#196,.T.);
#453=EDGE_CURVE('',#362,#361,#197,.T.);
#454=EDGE_CURVE('',#360,#362,#198,.T.);
#455=EDGE_CURVE('',#360,#363,#199,.T.);
#456=EDGE_CURVE('',#364,#362,#200,.T.);
#457=EDGE_CURVE('',#363,#364,#201,.T.);
#458=EDGE_CURVE('',#363,#365,#202,.T.);
#459=EDGE_CURVE('',#366,#364,#203,.T.);
#460=EDGE_CURVE('',#365,#366,#204,.T.);
#461=EDGE_CURVE('',#365,#359,#205,.T.);
#462=EDGE_CURVE('',#361,#366,#206,.T.);
#463=ORIENTED_EDGE('',*,*,#367,.F.);
#464=ORIENTED_EDGE('',*,*,#368,.T.);
#465=ORIENTED_EDGE('',*,*,#369,.F.);
#466=ORIENTED_EDGE('',*,*,#370,.F.);
#467=ORIENTED_EDGE('',*,*,#371,.F.);
#468=ORIENTED_EDGE('',*,*,#372,.T.);
#469=ORIENTED_EDGE('',*,*,#373,.F.);
#470=ORIENTED_EDGE('',*,*,#368,.F.);
#471=ORIENTED_EDGE('',*,*,#374,.F.);
#472=ORIENTED_EDGE('',*,*,#375,.T.);
#473=ORIENTED_EDGE('',*,*,#376,.F.);
#474=ORIENTED_EDGE('',*,*,#372,.F.);
#475=ORIENTED_EDGE('',*,*,#377,.F.);
#476=ORIENTED_EDGE('',*,*,#370,.T.);
#477=ORIENTED_EDGE('',*,*,#378,.F.);
#478=ORIENTED_EDGE('',*,*,#375,.F.);
#479=ORIENTED_EDGE('',*,*,#379,.F.);
#480=ORIENTED_EDGE('',*,*,#380,.T.);
#481=ORIENTED_EDGE('',*,*,#381,.F.);
#482=ORIENTED_EDGE('',*,*,#382,.F.);
#483=ORIENTED_EDGE('',*,*,#383,.F.);
#484=ORIENTED_EDGE('',*,*,#384,.T.);
#485=ORIENTED_EDGE('',*,*,#385,.F.);
#486=ORIENTED_EDGE('',*,*,#380,.F.);
#487=ORIENTED_EDGE('',*,*,#386,.F.);
#488=ORIENTED_EDGE('',*,*,#387,.T.);
#489=ORIENTED_EDGE('',*,*,#388,.F.);
#490=ORIENTED_EDGE('',*,*,#384,.F.);
#491=ORIENTED_EDGE('',*,*,#389,.F.);
#492=ORIENTED_EDGE('',*,*,#382,.T.);
#493=ORIENTED_EDGE('',*,*,#390,.F.);
#494=ORIENTED_EDGE('',*,*,#387,.F.);
#495=ORIENTED_EDGE('',*,*,#391,.F.);
#496=ORIENTED_EDGE('',*,*,#392,.T.);
#497=ORIENTED_EDGE('',*,*,#393,.F.);
#498=ORIENTED_EDGE('',*,*,#394,.F.);
#499=ORIENTED_EDGE('',*,*,#395,.F.);
#500=ORIENTED_EDGE('',*,*,#396,.T.);
#501=ORIENTED_EDGE('',*,*,#397,.F.);
#502=ORIENTED_EDGE('',*,*,#392,.F.);
#503=ORIENTED_EDGE('',*,*,#398,.F.);
#504=ORIENTED_EDGE('',*,*,#399,.T.);
#505=ORIENTED_EDGE('',*,*,#400,.F.);
#506=ORIENTED_EDGE('',*,*,#396,.F.);
#507=ORIENTED_EDGE('',*,*,#401,.F.);
#508=ORIENTED_EDGE('',*,*,#394,.T.);
#509=ORIENTED_EDGE('',*,*,#402,.F.);
#510=ORIENTED_EDGE('',*,*,#399,.F.);
#511=ORIENTED_EDGE('',*,*,#403,.F.);
#512=ORIENTED_EDGE('',*,*,#404,.T.);
#513=ORIENTED_EDGE('',*,*,#405,.F.);
#514=ORIENTED_EDGE('',*,*,#406,.F.);
#515=ORIENTED_EDGE('',*,*,#407,.F.);
#516=ORIENTED_EDGE('',*,*,#408,.T.);
#517=ORIENTED_EDGE('',*,*,#409,.F.);
#518=ORIENTED_EDGE('',*,*,#404,.F.);
#519=ORIENTED_EDGE('',*,*,#410,.F.);
#520=ORIENTED_EDGE('',*,*,#411,.T.);
#521=ORIENTED_EDGE('',*,*,#412,.F.);
#522=ORIENTED_EDGE('',*,*,#408,.F.);
#523=ORIENTED_EDGE('',*,*,#413,.F.);
#524=ORIENTED_EDGE('',*,*,#406,.T.);
#525=ORIENTED_EDGE('',*,*,#414,.F.);
#526=ORIENTED_EDGE('',*,*,#411,.F.);
#527=ORIENTED_EDGE('',*,*,#415,.F.);
#528=ORIENTED_EDGE('',*,*,#416,.T.);
#529=ORIENTED_EDGE('',*,*,#417,.F.);
#530=ORIENTED_EDGE('',*,*,#418,.F.);
#531=ORIENTED_EDGE('',*,*,#419,.F.);
#532=ORIENTED_EDGE('',*,*,#420,.T.);
#533=ORIENTED_EDGE('',*,*,#421,.F.);
#534=ORIENTED_EDGE('',*,*,#416,.F.);
#535=ORIENTED_EDGE('',*,*,#422,.F.);
#536=ORIENTED_EDGE('',*,*,#423,.T.);
#537=ORIENTED_EDGE('',*,*,#424,.F.);
#538=ORIENTED_EDGE('',*,*,#420,.F.);
#539=ORIENTED_EDGE('',*,*,#425,.F.);
#540=ORIENTED_EDGE('',*,*,#418,.T.);
#541=ORIENTED_EDGE('',*,*,#426,.F.);
#542=ORIENTED_EDGE('',*,*,#423,.F.);
#543=ORIENTED_EDGE('',*,*,#427,.F.);
#544=ORIENTED_EDGE('',*,*,#428,.T.);
#545=ORIENTED_EDGE('',*,*,#429,.F.);
#546=ORIENTED_EDGE('',*,*,#430,.F.);
#547=ORIENTED_EDGE('',*,*,#431,.F.);
#548=ORIENTED_EDGE('',*,*,#432,.T.);
#549=ORIENTED_EDGE('',*,*,#433,.F.);
#550=ORIENTED_EDGE('',*,*,#428,.F.);
#551=ORIENTED_EDGE('',*,*,#434,.F.);
#552=ORIENTED_EDGE('',*,*,#435,.T.);
#553=ORIENTED_EDGE('',*,*,#436,.F.);
#554=ORIENTED_EDGE('',*,*,#432,.F.);
#555=ORIENTED_EDGE('',*,*,#437,.F.);
#556=ORIENTED_EDGE('',*,*,#430,.T.);
#557=ORIENTED_EDGE('',*,*,#438,.F.);
#558=ORIENTED_EDGE('',*,*,#435,.F.);
#559=ORIENTED_EDGE('',*,*,#439,.F.);
#560=ORIENTED_EDGE('',*,*,#440,.T.);
#561=ORIENTED_EDGE('',*,*,#441,.F.);
#562=ORIENTED_EDGE('',*,*,#442,.F.);
#563=ORIENTED_EDGE('',*,*,#443,.F.);
#564=ORIENTED_EDGE('',*,*,#444,.T.);
#565=ORIENTED_EDGE('',*,*,#445,.F.);
#566=ORIENTED_EDGE('',*,*,#440,.F.);
#567=ORIENTED_EDGE('',*,*,#446,.F.);
#568=ORIENTED_EDGE('',*,*,#447,.T.);
#569=ORIENTED_EDGE('',*,*,#448,.F.);
#570=ORIENTED_EDGE('',*,*,#444,.F.);
#571=ORIENTED_EDGE('',*,*,#449,.F.);
#572=ORIENTED_EDGE('',*,*,#442,.T.);
#573=ORIENTED_EDGE('',*,*,#450,.F.);
#574=ORIENTED_EDGE('',*,*,#447,.F.);
#575=ORIENTED_EDGE('',*,*,#451,.F.);
#576=ORIENTED_EDGE('',*,*,#452,.T.);
#577=ORIENTED_EDGE('',*,*,#453,.F.);
#578=ORIENTED_EDGE('',*,*,#454,.F.);
#579=ORIENTED_EDGE('',*,*,#455,.F.);
#580=ORIENTED_EDGE('',*,*,#454,.T.);
#581=ORIENTED_EDGE('',*,*,#456,.F.);
#582=ORIENTED_EDGE('',*,*,#457,.F.);
#583=ORIENTED_EDGE('',*,*,#458,.F.);
#584=ORIENTED_EDGE('',*,*,#457,.T.);
#585=ORIENTED_EDGE('',*,*,#459,.F.);
#586=ORIENTED_EDGE('',*,*,#460,.F.);
#587=ORIENTED_EDGE('',*,*,#461,.F.);
#588=ORIENTED_EDGE('',*,*,#460,.T.);
#589=ORIENTED_EDGE('',*,*,#462,.F.);
#590=ORIENTED_EDGE('',*,*,#452,.F.);
#591=ORIENTED_EDGE('',*,*,#462,.T.);
#592=ORIENTED_EDGE('',*,*,#459,.T.);
#593=ORIENTED_EDGE('',*,*,#456,.T.);
#594=ORIENTED_EDGE('',*,*,#453,.T.);
#595=ORIENTED_EDGE('',*,*,#367,.T.);
#596=ORIENTED_EDGE('',*,*,#377,.T.);
#597=ORIENTED_EDGE('',*,*,#374,.T.);
#598=ORIENTED_EDGE('',*,*,#371,.T.);
#599=ORIENTED_EDGE('',*,*,#379,.T.);
#600=ORIENTED_EDGE('',*,*,#389,.T.);
#601=ORIENTED_EDGE('',*,*,#386,.T.);
#602=ORIENTED_EDGE('',*,*,#383,.T.);
#603=ORIENTED_EDGE('',*,*,#391,.T.);
#604=ORIENTED_EDGE('',*,*,#401,.T.);
#605=ORIENTED_EDGE('',*,*,#398,.T.);
#606=ORIENTED_EDGE('',*,*,#395,.T.);
#607=ORIENTED_EDGE('',*,*,#403,.T.);
#608=ORIENTED_EDGE('',*,*,#413,.T.);
#609=ORIENTED_EDGE('',*,*,#410,.T.);
#610=ORIENTED_EDGE('',*,*,#407,.T.);
#611=ORIENTED_EDGE('',*,*,#415,.T.);
#612=ORIENTED_EDGE('',*,*,#425,.T.);
#613=ORIENTED_EDGE('',*,*,#422,.T.);
#614=ORIENTED_EDGE('',*,*,#419,.T.);
#615=ORIENTED_EDGE('',*,*,#427,.T.);
#616=ORIENTED_EDGE('',*,*,#437,.T.);
#617=ORIENTED_EDGE('',*,*,#434,.T.);
#618=ORIENTED_EDGE('',*,*,#431,.T.);
#619=ORIENTED_EDGE('',*,*,#439,.T.);
#620=ORIENTED_EDGE('',*,*,#449,.T.);
#621=ORIENTED_EDGE('',*,*,#446,.T.);
#622=ORIENTED_EDGE('',*,*,#443,.T.);
#623=ORIENTED_EDGE('',*,*,#461,.T.);
#624=ORIENTED_EDGE('',*,*,#451,.T.);
#625=ORIENTED_EDGE('',*,*,#455,.T.);
#626=ORIENTED_EDGE('',*,*,#458,.T.);
#627=ORIENTED_EDGE('',*,*,#369,.T.);
#628=ORIENTED_EDGE('',*,*,#373,.T.);
#629=ORIENTED_EDGE('',*,*,#376,.T.);
#630=ORIENTED_EDGE('',*,*,#378,.T.);
#631=ORIENTED_EDGE('',*,*,#381,.T.);
#632=ORIENTED_EDGE('',*,*,#385,.T.);
#633=ORIENTED_EDGE('',*,*,#388,.T.);
#634=ORIENTED_EDGE('',*,*,#390,.T.);
#635=ORIENTED_EDGE('',*,*,#393,.T.);
#636=ORIENTED_EDGE('',*,*,#397,.T.);
#637=ORIENTED_EDGE('',*,*,#400,.T.);
#638=ORIENTED_EDGE('',*,*,#402,.T.);
#639=ORIENTED_EDGE('',*,*,#405,.T.);
#640=ORIENTED_EDGE('',*,*,#409,.T.);
#641=ORIENTED_EDGE('',*,*,#412,.T.);
#642=ORIENTED_EDGE('',*,*,#414,.T.);
#643=ORIENTED_EDGE('',*,*,#417,.T.);
#644=ORIENTED_EDGE('',*,*,#421,.T.);
#645=ORIENTED_EDGE('',*,*,#424,.T.);
#646=ORIENTED_EDGE('',*,*,#426,.T.);
#647=ORIENTED_EDGE('',*,*,#429,.T.);
#648=ORIENTED_EDGE('',*,*,#433,.T.);
#649=ORIENTED_EDGE('',*,*,#436,.T.);
#650=ORIENTED_EDGE('',*,*,#438,.T.);
#651=ORIENTED_EDGE('',*,*,#441,.T.);
#652=ORIENTED_EDGE('',*,*,#445,.T.);
#653=ORIENTED_EDGE('',*,*,#448,.T.);
#654=ORIENTED_EDGE('',*,*,#450,.T.);
#655=PLANE('',#737);
#656=PLANE('',#738);
#657=PLANE('',#739);
#658=PLANE('',#740);
#659=PLANE('',#741);
#660=PLANE('',#742);
#661=PLANE('',#743);
#662=PLANE('',#744);
#663=PLANE('',#745);
#664=PLANE('',#746);
#665=PLANE('',#747);
#666=PLANE('',#748);
#667=PLANE('',#749);
#668=PLANE('',#750);
#669=PLANE('',#751);
#670=PLANE('',#752);
#671=PLANE('',#753);
#672=PLANE('',#754);
#673=PLANE('',#755);
#674=PLANE('',#756);
#675=PLANE('',#757);
#676=PLANE('',#758);
#677=PLANE('',#759);
#678=PLANE('',#760);
#679=PLANE('',#761);
#680=PLANE('',#762);
#681=PLANE('',#763);
#682=PLANE('',#764);
#683=PLANE('',#765);
#684=PLANE('',#766);
#685=PLANE('',#767);
#686=PLANE('',#768);
#687=PLANE('',#769);
#688=PLANE('',#770);
#689=ADVANCED_FACE('',(#29),#655,.F.);
#690=ADVANCED_FACE('',(#30),#656,.F.);
#691=ADVANCED_FACE('',(#31),#657,.F.);
#692=ADVANCED_FACE('',(#32),#658,.F.);
#693=ADVANCED_FACE('',(#33),#659,.F.);
#694=ADVANCED_FACE('',(#34),#660,.F.);
#695=ADVANCED_FACE('',(#35),#661,.F.);
#696=ADVANCED_FACE('',(#36),#662,.F.);
#697=ADVANCED_FACE('',(#37),#663,.F.);
#698=ADVANCED_FACE('',(#38),#664,.F.);
#699=ADVANCED_FACE('',(#39),#665,.F.);
#700=ADVANCED_FACE('',(#40),#666,.F.);
#701=ADVANCED_FACE('',(#41),#667,.F.);
#702=ADVANCED_FACE('',(#42),#668,.F.);
#703=ADVANCED_FACE('',(#43),#669,.F.);
#704=ADVANCED_FACE('',(#44),#670,.F.);
#705=ADVANCED_FACE('',(#45),#671,.F.);
#706=ADVANCED_FACE('',(#46),#672,.F.);
#707=ADVANCED_FACE('',(#47),#673,.F.);
#708=ADVANCED_FACE('',(#48),#674,.F.);
#709=ADVANCED_FACE('',(#49),#675,.F.);
#710=ADVANCED_FACE('',(#50),#676,.F.);
#711=ADVANCED_FACE('',(#51),#677,.F.);
#712=ADVANCED_FACE('',(#52),#678,.F.);
#713=ADVANCED_FACE('',(#53),#679,.F.);
#714=ADVANCED_FACE('',(#54),#680,.F.);
#715=ADVANCED_FACE('',(#55),#681,.F.);
#716=ADVANCED_FACE('',(#56),#682,.F.);
#717=ADVANCED_FACE('',(#57),#683,.T.);
#718=ADVANCED_FACE('',(#58),#684,.T.);
#719=ADVANCED_FACE('',(#59),#685,.T.);
#720=ADVANCED_FACE('',(#60),#686,.T.);
#721=ADVANCED_FACE('',(#61,#15,#16,#17,#18,#19,#20,#21),#687,.T.);
#722=ADVANCED_FACE('',(#62,#22,#23,#24,#25,#26,#27,#28),#688,.F.);
#723=CLOSED_SHELL('',(#689,#690,#691,#692,#693,#694,#695,#696,#697,#698,
#699,#700,#701,#702,#703,#704,#705,#706,#707,#708,#709,#710,#711,#712,#713,
#714,#715,#716,#717,#718,#719,#720,#721,#722));
#724=DERIVED_UNIT_ELEMENT(#726,1.);
#725=DERIVED_UNIT_ELEMENT(#1137,-3.);
#726=(
MASS_UNIT()
NAMED_UNIT(*)
SI_UNIT(.KILO.,.GRAM.)
);
#727=DERIVED_UNIT((#724,#725));
#728=MEASURE_REPRESENTATION_ITEM('density measure',
POSITIVE_RATIO_MEASURE(7850.),#727);
#729=PROPERTY_DEFINITION_REPRESENTATION(#734,#731);
#730=PROPERTY_DEFINITION_REPRESENTATION(#735,#732);
#731=REPRESENTATION('material name',(#733),#1134);
#732=REPRESENTATION('density',(#728),#1134);
#733=DESCRIPTIVE_REPRESENTATION_ITEM('Steel','Steel');
#734=PROPERTY_DEFINITION('material property','material name',#1144);
#735=PROPERTY_DEFINITION('material property','density of part',#1144);
#736=AXIS2_PLACEMENT_3D('',#937,#771,#772);
#737=AXIS2_PLACEMENT_3D('',#938,#773,#774);
#738=AXIS2_PLACEMENT_3D('',#947,#779,#780);
#739=AXIS2_PLACEMENT_3D('',#953,#784,#785);
#740=AXIS2_PLACEMENT_3D('',#959,#789,#790);
#741=AXIS2_PLACEMENT_3D('',#962,#793,#794);
#742=AXIS2_PLACEMENT_3D('',#971,#799,#800);
#743=AXIS2_PLACEMENT_3D('',#977,#804,#805);
#744=AXIS2_PLACEMENT_3D('',#983,#809,#810);
#745=AXIS2_PLACEMENT_3D('',#986,#813,#814);
#746=AXIS2_PLACEMENT_3D('',#995,#819,#820);
#747=AXIS2_PLACEMENT_3D('',#1001,#824,#825);
#748=AXIS2_PLACEMENT_3D('',#1007,#829,#830);
#749=AXIS2_PLACEMENT_3D('',#1010,#833,#834);
#750=AXIS2_PLACEMENT_3D('',#1019,#839,#840);
#751=AXIS2_PLACEMENT_3D('',#1025,#844,#845);
#752=AXIS2_PLACEMENT_3D('',#1031,#849,#850);
#753=AXIS2_PLACEMENT_3D('',#1034,#853,#854);
#754=AXIS2_PLACEMENT_3D('',#1043,#859,#860);
#755=AXIS2_PLACEMENT_3D('',#1049,#864,#865);
#756=AXIS2_PLACEMENT_3D('',#1055,#869,#870);
#757=AXIS2_PLACEMENT_3D('',#1058,#873,#874);
#758=AXIS2_PLACEMENT_3D('',#1067,#879,#880);
#759=AXIS2_PLACEMENT_3D('',#1073,#884,#885);
#760=AXIS2_PLACEMENT_3D('',#1079,#889,#890);
#761=AXIS2_PLACEMENT_3D('',#1082,#893,#894);
#762=AXIS2_PLACEMENT_3D('',#1091,#899,#900);
#763=AXIS2_PLACEMENT_3D('',#1097,#904,#905);
#764=AXIS2_PLACEMENT_3D('',#1103,#909,#910);
#765=AXIS2_PLACEMENT_3D('',#1106,#913,#914);
#766=AXIS2_PLACEMENT_3D('',#1115,#919,#920);
#767=AXIS2_PLACEMENT_3D('',#1121,#924,#925);
#768=AXIS2_PLACEMENT_3D('',#1127,#929,#930);
#769=AXIS2_PLACEMENT_3D('',#1130,#933,#934);
#770=AXIS2_PLACEMENT_3D('',#1131,#935,#936);
#771=DIRECTION('axis',(0.,0.,1.));
#772=DIRECTION('refdir',(1.,0.,0.));
#773=DIRECTION('center_axis',(-1.,0.,0.));
#774=DIRECTION('ref_axis',(0.,1.,0.));
#775=DIRECTION('',(0.,1.,0.));
#776=DIRECTION('',(0.,0.,-1.));
#777=DIRECTION('',(0.,-1.,0.));
#778=DIRECTION('',(0.,0.,-1.));
#779=DIRECTION('center_axis',(0.,-1.,0.));
#780=DIRECTION('ref_axis',(-1.,0.,0.));
#781=DIRECTION('',(-1.,0.,0.));
#782=DIRECTION('',(0.,0.,-1.));
#783=DIRECTION('',(1.,0.,0.));
#784=DIRECTION('center_axis',(1.,0.,0.));
#785=DIRECTION('ref_axis',(0.,-1.,0.));
#786=DIRECTION('',(0.,-1.,0.));
#787=DIRECTION('',(0.,0.,-1.));
#788=DIRECTION('',(0.,1.,0.));
#789=DIRECTION('center_axis',(0.,1.,0.));
#790=DIRECTION('ref_axis',(1.,0.,0.));
#791=DIRECTION('',(1.,0.,0.));
#792=DIRECTION('',(-1.,0.,0.));
#793=DIRECTION('center_axis',(-1.,0.,0.));
#794=DIRECTION('ref_axis',(0.,1.,0.));
#795=DIRECTION('',(0.,1.,0.));
#796=DIRECTION('',(0.,0.,-1.));
#797=DIRECTION('',(0.,-1.,0.));
#798=DIRECTION('',(0.,0.,-1.));
#799=DIRECTION('center_axis',(0.,-1.,0.));
#800=DIRECTION('ref_axis',(-1.,0.,0.));
#801=DIRECTION('',(-1.,0.,0.));
#802=DIRECTION('',(0.,0.,-1.));
#803=DIRECTION('',(1.,0.,0.));
#804=DIRECTION('center_axis',(1.,0.,0.));
#805=DIRECTION('ref_axis',(0.,-1.,0.));
#806=DIRECTION('',(0.,-1.,0.));
#807=DIRECTION('',(0.,0.,-1.));
#808=DIRECTION('',(0.,1.,0.));
#809=DIRECTION('center_axis',(0.,1.,0.));
#810=DIRECTION('ref_axis',(1.,0.,0.));
#811=DIRECTION('',(1.,0.,0.));
#812=DIRECTION('',(-1.,0.,0.));
#813=DIRECTION('center_axis',(-1.,0.,0.));
#814=DIRECTION('ref_axis',(0.,1.,0.));
#815=DIRECTION('',(0.,1.,0.));
#816=DIRECTION('',(0.,0.,-1.));
#817=DIRECTION('',(0.,-1.,0.));
#818=DIRECTION('',(0.,0.,-1.));
#819=DIRECTION('center_axis',(0.,-1.,0.));
#820=DIRECTION('ref_axis',(-1.,0.,0.));
#821=DIRECTION('',(-1.,0.,0.));
#822=DIRECTION('',(0.,0.,-1.));
#823=DIRECTION('',(1.,0.,0.));
#824=DIRECTION('center_axis',(1.,0.,0.));
#825=DIRECTION('ref_axis',(0.,-1.,0.));
#826=DIRECTION('',(0.,-1.,0.));
#827=DIRECTION('',(0.,0.,-1.));
#828=DIRECTION('',(0.,1.,0.));
#829=DIRECTION('center_axis',(0.,1.,0.));
#830=DIRECTION('ref_axis',(1.,0.,0.));
#831=DIRECTION('',(1.,0.,0.));
#832=DIRECTION('',(-1.,0.,0.));
#833=DIRECTION('center_axis',(-1.,0.,0.));
#834=DIRECTION('ref_axis',(0.,1.,0.));
#835=DIRECTION('',(0.,1.,0.));
#836=DIRECTION('',(0.,0.,-1.));
#837=DIRECTION('',(0.,-1.,0.));
#838=DIRECTION('',(0.,0.,-1.));
#839=DIRECTION('center_axis',(0.,-1.,0.));
#840=DIRECTION('ref_axis',(-1.,0.,0.));
#841=DIRECTION('',(-1.,0.,0.));
#842=DIRECTION('',(0.,0.,-1.));
#843=DIRECTION('',(1.,0.,0.));
#844=DIRECTION('center_axis',(1.,0.,0.));
#845=DIRECTION('ref_axis',(0.,-1.,0.));
#846=DIRECTION('',(0.,-1.,0.));
#847=DIRECTION('',(0.,0.,-1.));
#848=DIRECTION('',(0.,1.,0.));
#849=DIRECTION('center_axis',(0.,1.,0.));
#850=DIRECTION('ref_axis',(1.,0.,0.));
#851=DIRECTION('',(1.,0.,0.));
#852=DIRECTION('',(-1.,0.,0.));
#853=DIRECTION('center_axis',(-1.,0.,0.));
#854=DIRECTION('ref_axis',(0.,1.,0.));
#855=DIRECTION('',(0.,1.,0.));
#856=DIRECTION('',(0.,0.,-1.));
#857=DIRECTION('',(0.,-1.,0.));
#858=DIRECTION('',(0.,0.,-1.));
#859=DIRECTION('center_axis',(0.,-1.,0.));
#860=DIRECTION('ref_axis',(-1.,0.,0.));
#861=DIRECTION('',(-1.,0.,0.));
#862=DIRECTION('',(0.,0.,-1.));
#863=DIRECTION('',(1.,0.,0.));
#864=DIRECTION('center_axis',(1.,0.,0.));
#865=DIRECTION('ref_axis',(0.,-1.,0.));
#866=DIRECTION('',(0.,-1.,0.));
#867=DIRECTION('',(0.,0.,-1.));
#868=DIRECTION('',(0.,1.,0.));
#869=DIRECTION('center_axis',(0.,1.,0.));
#870=DIRECTION('ref_axis',(1.,0.,0.));
#871=DIRECTION('',(1.,0.,0.));
#872=DIRECTION('',(-1.,0.,0.));
#873=DIRECTION('center_axis',(-1.,0.,0.));
#874=DIRECTION('ref_axis',(0.,1.,0.));
#875=DIRECTION('',(0.,1.,0.));
#876=DIRECTION('',(0.,0.,-1.));
#877=DIRECTION('',(0.,-1.,0.));
#878=DIRECTION('',(0.,0.,-1.));
#879=DIRECTION('center_axis',(0.,-1.,0.));
#880=DIRECTION('ref_axis',(-1.,0.,0.));
#881=DIRECTION('',(-1.,0.,0.));
#882=DIRECTION('',(0.,0.,-1.));
#883=DIRECTION('',(1.,0.,0.));
#884=DIRECTION('center_axis',(1.,0.,0.));
#885=DIRECTION('ref_axis',(0.,-1.,0.));
#886=DIRECTION('',(0.,-1.,0.));
#887=DIRECTION('',(0.,0.,-1.));
#888=DIRECTION('',(0.,1.,0.));
#889=DIRECTION('center_axis',(0.,1.,0.));
#890=DIRECTION('ref_axis',(1.,0.,0.));
#891=DIRECTION('',(1.,0.,0.));
#892=DIRECTION('',(-1.,0.,0.));
#893=DIRECTION('center_axis',(-1.,0.,0.));
#894=DIRECTION('ref_axis',(0.,1.,0.));
#895=DIRECTION('',(0.,1.,0.));
#896=DIRECTION('',(0.,0.,-1.));
#897=DIRECTION('',(0.,-1.,0.));
#898=DIRECTION('',(0.,0.,-1.));
#899=DIRECTION('center_axis',(0.,-1.,0.));
#900=DIRECTION('ref_axis',(-1.,0.,0.));
#901=DIRECTION('',(-1.,0.,0.));
#902=DIRECTION('',(0.,0.,-1.));
#903=DIRECTION('',(1.,0.,0.));
#904=DIRECTION('center_axis',(1.,0.,0.));
#905=DIRECTION('ref_axis',(0.,-1.,0.));
#906=DIRECTION('',(0.,-1.,0.));
#907=DIRECTION('',(0.,0.,-1.));
#908=DIRECTION('',(0.,1.,0.));
#909=DIRECTION('center_axis',(0.,1.,0.));
#910=DIRECTION('ref_axis',(1.,0.,0.));
#911=DIRECTION('',(1.,0.,0.));
#912=DIRECTION('',(-1.,0.,0.));
#913=DIRECTION('center_axis',(-1.,0.,0.));
#914=DIRECTION('ref_axis',(0.,-1.,0.));
#915=DIRECTION('',(0.,1.,0.));
#916=DIRECTION('',(0.,0.,1.));
#917=DIRECTION('',(0.,-1.,0.));
#918=DIRECTION('',(0.,0.,1.));
#919=DIRECTION('center_axis',(0.,1.,0.));
#920=DIRECTION('ref_axis',(-1.,0.,0.));
#921=DIRECTION('',(1.,0.,0.));
#922=DIRECTION('',(-1.,0.,0.));
#923=DIRECTION('',(0.,0.,1.));
#924=DIRECTION('center_axis',(1.,0.,0.));
#925=DIRECTION('ref_axis',(0.,1.,0.));
#926=DIRECTION('',(0.,-1.,0.));
#927=DIRECTION('',(0.,1.,0.));
#928=DIRECTION('',(0.,0.,1.));
#929=DIRECTION('center_axis',(0.,-1.,0.));
#930=DIRECTION('ref_axis',(1.,0.,0.));
#931=DIRECTION('',(-1.,0.,0.));
#932=DIRECTION('',(1.,0.,0.));
#933=DIRECTION('center_axis',(0.,0.,1.));
#934=DIRECTION('ref_axis',(1.,0.,0.));
#935=DIRECTION('center_axis',(0.,0.,1.));
#936=DIRECTION('ref_axis',(1.,0.,0.));
#937=CARTESIAN_POINT('',(0.,0.,0.));
#938=CARTESIAN_POINT('Origin',(-8.50000078901649,-0.950000413227826,3.));
#939=CARTESIAN_POINT('',(-8.50000078901649,-0.950000413227826,3.));
#940=CARTESIAN_POINT('',(-8.50000078901649,14.2499995867722,3.));
#941=CARTESIAN_POINT('',(-8.50000078901649,-10.3500000203494,3.));
#942=CARTESIAN_POINT('',(-8.50000078901649,-0.950000413227827,0.));
#943=CARTESIAN_POINT('',(-8.50000078901649,-0.950000413227826,3.));
#944=CARTESIAN_POINT('',(-8.50000078901649,14.2499995867722,0.));
#945=CARTESIAN_POINT('',(-8.50000078901649,-10.3500000203494,0.));
#946=CARTESIAN_POINT('',(-8.50000078901649,14.2499995867722,3.));
#947=CARTESIAN_POINT('Origin',(29.6999992109835,-0.950000413227826,3.));
#948=CARTESIAN_POINT('',(29.6999992109835,-0.950000413227827,3.));
#949=CARTESIAN_POINT('',(27.4499994564801,-0.950000413227827,3.));
#950=CARTESIAN_POINT('',(29.6999992109835,-0.950000413227827,0.));
#951=CARTESIAN_POINT('',(29.6999992109835,-0.950000413227827,3.));
#952=CARTESIAN_POINT('',(27.4499994564801,-0.950000413227827,0.));
#953=CARTESIAN_POINT('Origin',(29.6999992109835,14.2499995867722,3.));
#954=CARTESIAN_POINT('',(29.6999992109835,14.2499995867722,3.));
#955=CARTESIAN_POINT('',(29.6999992109835,-2.7500000203494,3.));
#956=CARTESIAN_POINT('',(29.6999992109835,14.2499995867722,0.));
#957=CARTESIAN_POINT('',(29.6999992109835,14.2499995867722,3.));
#958=CARTESIAN_POINT('',(29.6999992109835,-2.7500000203494,0.));
#959=CARTESIAN_POINT('Origin',(-8.50000078901649,14.2499995867722,3.));
#960=CARTESIAN_POINT('',(8.34999945648015,14.2499995867722,3.));
#961=CARTESIAN_POINT('',(8.34999945648015,14.2499995867722,0.));
#962=CARTESIAN_POINT('Origin',(35.2967197262972,-2.69999962747098,3.));
#963=CARTESIAN_POINT('',(35.2967197262972,-2.69999962747098,3.));
#964=CARTESIAN_POINT('',(35.2967197262972,11.700000372529,3.));
#965=CARTESIAN_POINT('',(35.2967197262972,-11.224999627471,3.));
#966=CARTESIAN_POINT('',(35.2967197262972,-2.69999962747098,0.));
#967=CARTESIAN_POINT('',(35.2967197262972,-2.69999962747098,3.));
#968=CARTESIAN_POINT('',(35.2967197262972,11.700000372529,0.));
#969=CARTESIAN_POINT('',(35.2967197262972,-11.224999627471,0.));
#970=CARTESIAN_POINT('',(35.2967197262972,11.700000372529,3.));
#971=CARTESIAN_POINT('Origin',(53.1967197262972,-2.69999962747098,3.));
#972=CARTESIAN_POINT('',(53.1967197262972,-2.69999962747098,3.));
#973=CARTESIAN_POINT('',(39.198359714137,-2.69999962747098,3.));
#974=CARTESIAN_POINT('',(53.1967197262972,-2.69999962747098,0.));
#975=CARTESIAN_POINT('',(53.1967197262972,-2.69999962747098,3.));
#976=CARTESIAN_POINT('',(39.198359714137,-2.69999962747098,0.));
#977=CARTESIAN_POINT('Origin',(53.1967197262972,11.700000372529,3.));
#978=CARTESIAN_POINT('',(53.1967197262972,11.700000372529,3.));
#979=CARTESIAN_POINT('',(53.1967197262972,-4.02499962747098,3.));
#980=CARTESIAN_POINT('',(53.1967197262972,11.700000372529,0.));
#981=CARTESIAN_POINT('',(53.1967197262972,11.700000372529,3.));
#982=CARTESIAN_POINT('',(53.1967197262972,-4.02499962747098,0.));
#983=CARTESIAN_POINT('Origin',(35.2967197262972,11.700000372529,3.));
#984=CARTESIAN_POINT('',(30.248359714137,11.700000372529,3.));
#985=CARTESIAN_POINT('',(30.248359714137,11.700000372529,0.));
#986=CARTESIAN_POINT('Origin',(-7.79999949336052,-28.099999627471,3.));
#987=CARTESIAN_POINT('',(-7.79999949336052,-28.099999627471,3.));
#988=CARTESIAN_POINT('',(-7.79999949336052,-8.69999962747098,3.));
#989=CARTESIAN_POINT('',(-7.79999949336052,-23.924999627471,3.));
#990=CARTESIAN_POINT('',(-7.79999949336052,-28.099999627471,0.));
#991=CARTESIAN_POINT('',(-7.79999949336052,-28.099999627471,3.));
#992=CARTESIAN_POINT('',(-7.79999949336052,-8.69999962747098,0.));
#993=CARTESIAN_POINT('',(-7.79999949336052,-23.924999627471,0.));
#994=CARTESIAN_POINT('',(-7.79999949336052,-8.69999962747098,3.));
#995=CARTESIAN_POINT('Origin',(11.6000005066395,-28.099999627471,3.));
#996=CARTESIAN_POINT('',(11.6000005066395,-28.099999627471,3.));
#997=CARTESIAN_POINT('',(18.4000001043081,-28.099999627471,3.));
#998=CARTESIAN_POINT('',(11.6000005066395,-28.099999627471,0.));
#999=CARTESIAN_POINT('',(11.6000005066395,-28.099999627471,3.));
#1000=CARTESIAN_POINT('',(18.4000001043081,-28.099999627471,0.));
#1001=CARTESIAN_POINT('Origin',(11.6000005066395,-8.69999962747098,3.));
#1002=CARTESIAN_POINT('',(11.6000005066395,-8.69999962747098,3.));
#1003=CARTESIAN_POINT('',(11.6000005066395,-14.224999627471,3.));
#1004=CARTESIAN_POINT('',(11.6000005066395,-8.69999962747098,0.));
#1005=CARTESIAN_POINT('',(11.6000005066395,-8.69999962747098,3.));
#1006=CARTESIAN_POINT('',(11.6000005066395,-14.224999627471,0.));
#1007=CARTESIAN_POINT('Origin',(-7.79999949336052,-8.69999962747098,3.));
#1008=CARTESIAN_POINT('',(8.70000010430813,-8.69999962747098,3.));
#1009=CARTESIAN_POINT('',(8.70000010430813,-8.69999962747098,0.));
#1010=CARTESIAN_POINT('Origin',(14.6000005066395,-28.099999627471,3.));
#1011=CARTESIAN_POINT('',(14.6000005066395,-28.099999627471,3.));
#1012=CARTESIAN_POINT('',(14.6000005066395,-8.69999962747098,3.));
#1013=CARTESIAN_POINT('',(14.6000005066395,-23.924999627471,3.));
#1014=CARTESIAN_POINT('',(14.6000005066395,-28.099999627471,0.));
#1015=CARTESIAN_POINT('',(14.6000005066395,-28.099999627471,3.));
#1016=CARTESIAN_POINT('',(14.6000005066395,-8.69999962747098,0.));
#1017=CARTESIAN_POINT('',(14.6000005066395,-23.924999627471,0.));
#1018=CARTESIAN_POINT('',(14.6000005066395,-8.69999962747098,3.));
#1019=CARTESIAN_POINT('Origin',(34.0000005066395,-28.099999627471,3.));
#1020=CARTESIAN_POINT('',(34.0000005066395,-28.099999627471,3.));
#1021=CARTESIAN_POINT('',(29.6000001043081,-28.099999627471,3.));
#1022=CARTESIAN_POINT('',(34.0000005066395,-28.099999627471,0.));
#1023=CARTESIAN_POINT('',(34.0000005066395,-28.099999627471,3.));
#1024=CARTESIAN_POINT('',(29.6000001043081,-28.099999627471,0.));
#1025=CARTESIAN_POINT('Origin',(34.0000005066395,-8.69999962747098,3.));
#1026=CARTESIAN_POINT('',(34.0000005066395,-8.69999962747098,3.));
#1027=CARTESIAN_POINT('',(34.0000005066395,-14.224999627471,3.));
#1028=CARTESIAN_POINT('',(34.0000005066395,-8.69999962747098,0.));
#1029=CARTESIAN_POINT('',(34.0000005066395,-8.69999962747098,3.));
#1030=CARTESIAN_POINT('',(34.0000005066395,-14.224999627471,0.));
#1031=CARTESIAN_POINT('Origin',(14.6000005066395,-8.69999962747098,3.));
#1032=CARTESIAN_POINT('',(19.9000001043081,-8.69999962747098,3.));
#1033=CARTESIAN_POINT('',(19.9000001043081,-8.69999962747098,0.));
#1034=CARTESIAN_POINT('Origin',(36.9999997019768,-28.099999627471,3.));
#1035=CARTESIAN_POINT('',(36.9999997019768,-28.099999627471,3.));
#1036=CARTESIAN_POINT('',(36.9999997019768,-8.69999962747098,3.));
#1037=CARTESIAN_POINT('',(36.9999997019768,-23.924999627471,3.));
#1038=CARTESIAN_POINT('',(36.9999997019768,-28.099999627471,0.));
#1039=CARTESIAN_POINT('',(36.9999997019768,-28.099999627471,3.));
#1040=CARTESIAN_POINT('',(36.9999997019768,-8.69999962747098,0.));
#1041=CARTESIAN_POINT('',(36.9999997019768,-23.924999627471,0.));
#1042=CARTESIAN_POINT('',(36.9999997019768,-8.69999962747098,3.));
#1043=CARTESIAN_POINT('Origin',(56.3999997019768,-28.099999627471,3.));
#1044=CARTESIAN_POINT('',(56.3999997019768,-28.099999627471,3.));
#1045=CARTESIAN_POINT('',(40.7999997019768,-28.099999627471,3.));
#1046=CARTESIAN_POINT('',(56.3999997019768,-28.099999627471,0.));
#1047=CARTESIAN_POINT('',(56.3999997019768,-28.099999627471,3.));
#1048=CARTESIAN_POINT('',(40.7999997019768,-28.099999627471,0.));
#1049=CARTESIAN_POINT('Origin',(56.3999997019768,-8.69999962747098,3.));
#1050=CARTESIAN_POINT('',(56.3999997019768,-8.69999962747098,3.));
#1051=CARTESIAN_POINT('',(56.3999997019768,-14.224999627471,3.));
#1052=CARTESIAN_POINT('',(56.3999997019768,-8.69999962747098,0.));
#1053=CARTESIAN_POINT('',(56.3999997019768,-8.69999962747098,3.));
#1054=CARTESIAN_POINT('',(56.3999997019768,-14.224999627471,0.));
#1055=CARTESIAN_POINT('Origin',(36.9999997019768,-8.69999962747098,3.));
#1056=CARTESIAN_POINT('',(31.0999997019768,-8.69999962747098,3.));
#1057=CARTESIAN_POINT('',(31.0999997019768,-8.69999962747098,0.));
#1058=CARTESIAN_POINT('Origin',(3.09999970197679,-49.499999627471,3.));
#1059=CARTESIAN_POINT('',(3.09999970197679,-49.499999627471,3.));
#1060=CARTESIAN_POINT('',(3.09999970197679,-30.099999627471,3.));
#1061=CARTESIAN_POINT('',(3.09999970197679,-34.624999627471,3.));
#1062=CARTESIAN_POINT('',(3.09999970197679,-49.499999627471,0.));
#1063=CARTESIAN_POINT('',(3.09999970197679,-49.499999627471,3.));
#1064=CARTESIAN_POINT('',(3.09999970197679,-30.099999627471,0.));
#1065=CARTESIAN_POINT('',(3.09999970197679,-34.624999627471,0.));
#1066=CARTESIAN_POINT('',(3.09999970197679,-30.099999627471,3.));
#1067=CARTESIAN_POINT('Origin',(22.4999997019768,-49.499999627471,3.));
#1068=CARTESIAN_POINT('',(22.4999997019768,-49.499999627471,3.));
#1069=CARTESIAN_POINT('',(23.8499997019768,-49.499999627471,3.));
#1070=CARTESIAN_POINT('',(22.4999997019768,-49.499999627471,0.));
#1071=CARTESIAN_POINT('',(22.4999997019768,-49.499999627471,3.));
#1072=CARTESIAN_POINT('',(23.8499997019768,-49.499999627471,0.));
#1073=CARTESIAN_POINT('Origin',(22.4999997019768,-30.099999627471,3.));
#1074=CARTESIAN_POINT('',(22.4999997019768,-30.099999627471,3.));
#1075=CARTESIAN_POINT('',(22.4999997019768,-24.924999627471,3.));
#1076=CARTESIAN_POINT('',(22.4999997019768,-30.099999627471,0.));
#1077=CARTESIAN_POINT('',(22.4999997019768,-30.099999627471,3.));
#1078=CARTESIAN_POINT('',(22.4999997019768,-24.924999627471,0.));
#1079=CARTESIAN_POINT('Origin',(3.09999970197679,-30.099999627471,3.));
#1080=CARTESIAN_POINT('',(14.1499997019768,-30.099999627471,3.));
#1081=CARTESIAN_POINT('',(14.1499997019768,-30.099999627471,0.));
#1082=CARTESIAN_POINT('Origin',(25.9999997019768,-49.499999627471,3.));
#1083=CARTESIAN_POINT('',(25.9999997019768,-49.499999627471,3.));
#1084=CARTESIAN_POINT('',(25.9999997019768,-30.099999627471,3.));
#1085=CARTESIAN_POINT('',(25.9999997019768,-34.624999627471,3.));
#1086=CARTESIAN_POINT('',(25.9999997019768,-49.499999627471,0.));
#1087=CARTESIAN_POINT('',(25.9999997019768,-49.499999627471,3.));
#1088=CARTESIAN_POINT('',(25.9999997019768,-30.099999627471,0.));
#1089=CARTESIAN_POINT('',(25.9999997019768,-34.624999627471,0.));
#1090=CARTESIAN_POINT('',(25.9999997019768,-30.099999627471,3.));
#1091=CARTESIAN_POINT('Origin',(45.3999997019768,-49.499999627471,3.));
#1092=CARTESIAN_POINT('',(45.3999997019768,-49.499999627471,3.));
#1093=CARTESIAN_POINT('',(35.2999997019768,-49.499999627471,3.));
#1094=CARTESIAN_POINT('',(45.3999997019768,-49.499999627471,0.));
#1095=CARTESIAN_POINT('',(45.3999997019768,-49.499999627471,3.));
#1096=CARTESIAN_POINT('',(35.2999997019768,-49.499999627471,0.));
#1097=CARTESIAN_POINT('Origin',(45.3999997019768,-30.099999627471,3.));
#1098=CARTESIAN_POINT('',(45.3999997019768,-30.099999627471,3.));
#1099=CARTESIAN_POINT('',(45.3999997019768,-24.924999627471,3.));
#1100=CARTESIAN_POINT('',(45.3999997019768,-30.099999627471,0.));
#1101=CARTESIAN_POINT('',(45.3999997019768,-30.099999627471,3.));
#1102=CARTESIAN_POINT('',(45.3999997019768,-24.924999627471,0.));
#1103=CARTESIAN_POINT('Origin',(25.9999997019768,-30.099999627471,3.));
#1104=CARTESIAN_POINT('',(25.5999997019768,-30.099999627471,3.));
#1105=CARTESIAN_POINT('',(25.5999997019768,-30.099999627471,0.));
#1106=CARTESIAN_POINT('Origin',(-20.0000002980232,25.000000372529,0.));
#1107=CARTESIAN_POINT('',(-20.0000002980232,-64.499999627471,0.));
#1108=CARTESIAN_POINT('',(-20.0000002980232,25.000000372529,0.));
#1109=CARTESIAN_POINT('',(-20.0000002980232,-64.499999627471,0.));
#1110=CARTESIAN_POINT('',(-20.0000002980232,-64.499999627471,3.));
#1111=CARTESIAN_POINT('',(-20.0000002980232,-64.499999627471,0.));
#1112=CARTESIAN_POINT('',(-20.0000002980232,25.000000372529,3.));
#1113=CARTESIAN_POINT('',(-20.0000002980232,-64.499999627471,3.));
#1114=CARTESIAN_POINT('',(-20.0000002980232,25.000000372529,0.));
#1115=CARTESIAN_POINT('Origin',(70.3999997019768,25.000000372529,0.));
#1116=CARTESIAN_POINT('',(70.3999997019768,25.000000372529,0.));
#1117=CARTESIAN_POINT('',(-20.0000002980232,25.000000372529,0.));
#1118=CARTESIAN_POINT('',(70.3999997019768,25.000000372529,3.));
#1119=CARTESIAN_POINT('',(-20.0000002980232,25.000000372529,3.));
#1120=CARTESIAN_POINT('',(70.3999997019768,25.000000372529,0.));
#1121=CARTESIAN_POINT('Origin',(70.3999997019768,-64.499999627471,0.));
#1122=CARTESIAN_POINT('',(70.3999997019768,-64.499999627471,0.));
#1123=CARTESIAN_POINT('',(70.3999997019768,25.000000372529,0.));
#1124=CARTESIAN_POINT('',(70.3999997019768,-64.499999627471,3.));
#1125=CARTESIAN_POINT('',(70.3999997019768,25.000000372529,3.));
#1126=CARTESIAN_POINT('',(70.3999997019768,-64.499999627471,0.));
#1127=CARTESIAN_POINT('Origin',(-20.0000002980232,-64.499999627471,0.));
#1128=CARTESIAN_POINT('',(70.3999997019768,-64.499999627471,0.));
#1129=CARTESIAN_POINT('',(70.3999997019768,-64.499999627471,3.));
#1130=CARTESIAN_POINT('Origin',(25.1999997019768,-19.749999627471,3.));
#1131=CARTESIAN_POINT('Origin',(25.1999997019768,-19.749999627471,0.));
#1132=UNCERTAINTY_MEASURE_WITH_UNIT(LENGTH_MEASURE(0.01),#1136,
'DISTANCE_ACCURACY_VALUE',
'Maximum model space distance between geometric entities at asserted c
onnectivities');
#1133=UNCERTAINTY_MEASURE_WITH_UNIT(LENGTH_MEASURE(0.01),#1136,
'DISTANCE_ACCURACY_VALUE',
'Maximum model space distance between geometric entities at asserted c
onnectivities');
#1134=(
GEOMETRIC_REPRESENTATION_CONTEXT(3)
GLOBAL_UNCERTAINTY_ASSIGNED_CONTEXT((#1132))
GLOBAL_UNIT_ASSIGNED_CONTEXT((#1136,#1138,#1139))
REPRESENTATION_CONTEXT('','3D')
);
#1135=(
GEOMETRIC_REPRESENTATION_CONTEXT(3)
GLOBAL_UNCERTAINTY_ASSIGNED_CONTEXT((#1133))
GLOBAL_UNIT_ASSIGNED_CONTEXT((#1136,#1138,#1139))
REPRESENTATION_CONTEXT('','3D')
);
#1136=(
LENGTH_UNIT()
NAMED_UNIT(*)
SI_UNIT(.MILLI.,.METRE.)
);
#1137=(
LENGTH_UNIT()
NAMED_UNIT(*)
SI_UNIT($,.METRE.)
);
#1138=(
NAMED_UNIT(*)
PLANE_ANGLE_UNIT()
SI_UNIT($,.RADIAN.)
);
#1139=(
NAMED_UNIT(*)
SI_UNIT($,.STERADIAN.)
SOLID_ANGLE_UNIT()
);
#1140=SHAPE_DEFINITION_REPRESENTATION(#1141,#1142);
#1141=PRODUCT_DEFINITION_SHAPE('',$,#1144);
#1142=SHAPE_REPRESENTATION('',(#736),#1134);
#1143=PRODUCT_DEFINITION_CONTEXT('part definition',#1148,'design');
#1144=PRODUCT_DEFINITION('2026-06-04-21-23-34-987','Jarned V1 - Top',#1145,
#1143);
#1145=PRODUCT_DEFINITION_FORMATION('',$,#1150);
#1146=PRODUCT_RELATED_PRODUCT_CATEGORY('Jarned V1 - Top',
'Jarned V1 - Top',(#1150));
#1147=APPLICATION_PROTOCOL_DEFINITION('international standard',
'automotive_design',2009,#1148);
#1148=APPLICATION_CONTEXT(
'Core Data for Automotive Mechanical Design Process');
#1149=PRODUCT_CONTEXT('part definition',#1148,'mechanical');
#1150=PRODUCT('2026-06-04-21-23-34-987','Jarned V1 - Top',$,(#1149));
#1151=PRESENTATION_STYLE_ASSIGNMENT((#1152));
#1152=SURFACE_STYLE_USAGE(.BOTH.,#1153);
#1153=SURFACE_SIDE_STYLE('',(#1154));
#1154=SURFACE_STYLE_FILL_AREA(#1155);
#1155=FILL_AREA_STYLE('Steel - Satin',(#1156));
#1156=FILL_AREA_STYLE_COLOUR('Steel - Satin',#1157);
#1157=COLOUR_RGB('Steel - Satin',0.627450980392157,0.627450980392157,0.627450980392157);
ENDSEC;
END-ISO-10303-21;
