ISO-10303-21;
HEADER;
/* Generated by software containing ST-Developer
 * from STEP Tools, Inc. (www.steptools.com) 
 */

FILE_DESCRIPTION(
/* description */ (''),
/* implementation_level */ '2;1');

FILE_NAME(
/* name */ 'Jarned V1 - Top 2.step',
/* time_stamp */ '2026-08-03T11:03:19+01:00',
/* author */ (''),
/* organization */ (''),
/* preprocessor_version */ 'ST-DEVELOPER v20.1',
/* originating_system */ 'Autodesk Translation Framework v15.8.0.0',
/* authorisation */ '');

FILE_SCHEMA (('AUTOMOTIVE_DESIGN { 1 0 10303 214 3 1 1 }'));
ENDSEC;

DATA;
#10=MECHANICAL_DESIGN_GEOMETRIC_PRESENTATION_REPRESENTATION('',(#13),#1291);
#11=SHAPE_REPRESENTATION_RELATIONSHIP('SRR','None',#1298,#12);
#12=ADVANCED_BREP_SHAPE_REPRESENTATION('',(#14),#1290);
#13=STYLED_ITEM('',(#1307),#14);
#14=MANIFOLD_SOLID_BREP('Body1',#815);
#15=FACE_BOUND('',#124,.T.);
#16=FACE_BOUND('',#125,.T.);
#17=FACE_BOUND('',#126,.T.);
#18=FACE_BOUND('',#127,.T.);
#19=FACE_BOUND('',#128,.T.);
#20=FACE_BOUND('',#129,.T.);
#21=FACE_BOUND('',#130,.T.);
#22=FACE_BOUND('',#131,.T.);
#23=FACE_BOUND('',#132,.T.);
#24=FACE_BOUND('',#133,.T.);
#25=FACE_BOUND('',#134,.T.);
#26=FACE_BOUND('',#136,.T.);
#27=FACE_BOUND('',#137,.T.);
#28=FACE_BOUND('',#138,.T.);
#29=FACE_BOUND('',#139,.T.);
#30=FACE_BOUND('',#140,.T.);
#31=FACE_BOUND('',#141,.T.);
#32=FACE_BOUND('',#142,.T.);
#33=FACE_BOUND('',#143,.T.);
#34=FACE_BOUND('',#144,.T.);
#35=FACE_BOUND('',#145,.T.);
#36=FACE_BOUND('',#146,.T.);
#37=CIRCLE('',#858,2.05);
#38=CIRCLE('',#859,2.05);
#39=CIRCLE('',#861,2.05);
#40=CIRCLE('',#862,2.05);
#41=CIRCLE('',#864,2.05);
#42=CIRCLE('',#865,2.05);
#43=CIRCLE('',#867,2.05);
#44=CIRCLE('',#868,2.05);
#45=CYLINDRICAL_SURFACE('',#857,2.05);
#46=CYLINDRICAL_SURFACE('',#860,2.05);
#47=CYLINDRICAL_SURFACE('',#863,2.05);
#48=CYLINDRICAL_SURFACE('',#866,2.05);
#49=FACE_OUTER_BOUND('',#87,.T.);
#50=FACE_OUTER_BOUND('',#88,.T.);
#51=FACE_OUTER_BOUND('',#89,.T.);
#52=FACE_OUTER_BOUND('',#90,.T.);
#53=FACE_OUTER_BOUND('',#91,.T.);
#54=FACE_OUTER_BOUND('',#92,.T.);
#55=FACE_OUTER_BOUND('',#93,.T.);
#56=FACE_OUTER_BOUND('',#94,.T.);
#57=FACE_OUTER_BOUND('',#95,.T.);
#58=FACE_OUTER_BOUND('',#96,.T.);
#59=FACE_OUTER_BOUND('',#97,.T.);
#60=FACE_OUTER_BOUND('',#98,.T.);
#61=FACE_OUTER_BOUND('',#99,.T.);
#62=FACE_OUTER_BOUND('',#100,.T.);
#63=FACE_OUTER_BOUND('',#101,.T.);
#64=FACE_OUTER_BOUND('',#102,.T.);
#65=FACE_OUTER_BOUND('',#103,.T.);
#66=FACE_OUTER_BOUND('',#104,.T.);
#67=FACE_OUTER_BOUND('',#105,.T.);
#68=FACE_OUTER_BOUND('',#106,.T.);
#69=FACE_OUTER_BOUND('',#107,.T.);
#70=FACE_OUTER_BOUND('',#108,.T.);
#71=FACE_OUTER_BOUND('',#109,.T.);
#72=FACE_OUTER_BOUND('',#110,.T.);
#73=FACE_OUTER_BOUND('',#111,.T.);
#74=FACE_OUTER_BOUND('',#112,.T.);
#75=FACE_OUTER_BOUND('',#113,.T.);
#76=FACE_OUTER_BOUND('',#114,.T.);
#77=FACE_OUTER_BOUND('',#115,.T.);
#78=FACE_OUTER_BOUND('',#116,.T.);
#79=FACE_OUTER_BOUND('',#117,.T.);
#80=FACE_OUTER_BOUND('',#118,.T.);
#81=FACE_OUTER_BOUND('',#119,.T.);
#82=FACE_OUTER_BOUND('',#120,.T.);
#83=FACE_OUTER_BOUND('',#121,.T.);
#84=FACE_OUTER_BOUND('',#122,.T.);
#85=FACE_OUTER_BOUND('',#123,.T.);
#86=FACE_OUTER_BOUND('',#135,.T.);
#87=EDGE_LOOP('',(#527,#528,#529,#530));
#88=EDGE_LOOP('',(#531,#532,#533,#534));
#89=EDGE_LOOP('',(#535,#536,#537,#538));
#90=EDGE_LOOP('',(#539,#540,#541,#542));
#91=EDGE_LOOP('',(#543,#544,#545,#546));
#92=EDGE_LOOP('',(#547,#548,#549,#550));
#93=EDGE_LOOP('',(#551,#552,#553,#554));
#94=EDGE_LOOP('',(#555,#556,#557,#558));
#95=EDGE_LOOP('',(#559,#560,#561,#562));
#96=EDGE_LOOP('',(#563,#564,#565,#566));
#97=EDGE_LOOP('',(#567,#568,#569,#570));
#98=EDGE_LOOP('',(#571,#572,#573,#574));
#99=EDGE_LOOP('',(#575,#576,#577,#578));
#100=EDGE_LOOP('',(#579,#580,#581,#582));
#101=EDGE_LOOP('',(#583,#584,#585,#586));
#102=EDGE_LOOP('',(#587,#588,#589,#590));
#103=EDGE_LOOP('',(#591,#592,#593,#594));
#104=EDGE_LOOP('',(#595,#596,#597,#598));
#105=EDGE_LOOP('',(#599,#600,#601,#602));
#106=EDGE_LOOP('',(#603,#604,#605,#606));
#107=EDGE_LOOP('',(#607,#608,#609,#610));
#108=EDGE_LOOP('',(#611,#612,#613,#614));
#109=EDGE_LOOP('',(#615,#616,#617,#618));
#110=EDGE_LOOP('',(#619,#620,#621,#622));
#111=EDGE_LOOP('',(#623,#624,#625,#626));
#112=EDGE_LOOP('',(#627,#628,#629,#630));
#113=EDGE_LOOP('',(#631,#632,#633,#634));
#114=EDGE_LOOP('',(#635,#636,#637,#638));
#115=EDGE_LOOP('',(#639,#640,#641,#642));
#116=EDGE_LOOP('',(#643,#644,#645,#646));
#117=EDGE_LOOP('',(#647,#648,#649,#650));
#118=EDGE_LOOP('',(#651,#652,#653,#654));
#119=EDGE_LOOP('',(#655,#656,#657,#658));
#120=EDGE_LOOP('',(#659,#660,#661,#662));
#121=EDGE_LOOP('',(#663,#664,#665,#666));
#122=EDGE_LOOP('',(#667,#668,#669,#670));
#123=EDGE_LOOP('',(#671,#672,#673,#674));
#124=EDGE_LOOP('',(#675,#676,#677,#678));
#125=EDGE_LOOP('',(#679,#680,#681,#682));
#126=EDGE_LOOP('',(#683));
#127=EDGE_LOOP('',(#684));
#128=EDGE_LOOP('',(#685));
#129=EDGE_LOOP('',(#686));
#130=EDGE_LOOP('',(#687,#688,#689,#690));
#131=EDGE_LOOP('',(#691,#692,#693,#694));
#132=EDGE_LOOP('',(#695,#696,#697,#698));
#133=EDGE_LOOP('',(#699,#700,#701,#702));
#134=EDGE_LOOP('',(#703,#704,#705,#706));
#135=EDGE_LOOP('',(#707,#708,#709,#710));
#136=EDGE_LOOP('',(#711,#712,#713,#714));
#137=EDGE_LOOP('',(#715,#716,#717,#718));
#138=EDGE_LOOP('',(#719,#720,#721,#722));
#139=EDGE_LOOP('',(#723,#724,#725,#726));
#140=EDGE_LOOP('',(#727,#728,#729,#730));
#141=EDGE_LOOP('',(#731));
#142=EDGE_LOOP('',(#732));
#143=EDGE_LOOP('',(#733));
#144=EDGE_LOOP('',(#734));
#145=EDGE_LOOP('',(#735,#736,#737,#738));
#146=EDGE_LOOP('',(#739,#740,#741,#742));
#147=LINE('',#1073,#247);
#148=LINE('',#1075,#248);
#149=LINE('',#1077,#249);
#150=LINE('',#1078,#250);
#151=LINE('',#1081,#251);
#152=LINE('',#1083,#252);
#153=LINE('',#1084,#253);
#154=LINE('',#1087,#254);
#155=LINE('',#1089,#255);
#156=LINE('',#1090,#256);
#157=LINE('',#1092,#257);
#158=LINE('',#1093,#258);
#159=LINE('',#1097,#259);
#160=LINE('',#1099,#260);
#161=LINE('',#1101,#261);
#162=LINE('',#1102,#262);
#163=LINE('',#1105,#263);
#164=LINE('',#1107,#264);
#165=LINE('',#1108,#265);
#166=LINE('',#1111,#266);
#167=LINE('',#1113,#267);
#168=LINE('',#1114,#268);
#169=LINE('',#1116,#269);
#170=LINE('',#1117,#270);
#171=LINE('',#1121,#271);
#172=LINE('',#1123,#272);
#173=LINE('',#1125,#273);
#174=LINE('',#1126,#274);
#175=LINE('',#1129,#275);
#176=LINE('',#1131,#276);
#177=LINE('',#1132,#277);
#178=LINE('',#1135,#278);
#179=LINE('',#1137,#279);
#180=LINE('',#1138,#280);
#181=LINE('',#1140,#281);
#182=LINE('',#1141,#282);
#183=LINE('',#1145,#283);
#184=LINE('',#1147,#284);
#185=LINE('',#1149,#285);
#186=LINE('',#1150,#286);
#187=LINE('',#1153,#287);
#188=LINE('',#1155,#288);
#189=LINE('',#1156,#289);
#190=LINE('',#1159,#290);
#191=LINE('',#1161,#291);
#192=LINE('',#1162,#292);
#193=LINE('',#1164,#293);
#194=LINE('',#1165,#294);
#195=LINE('',#1169,#295);
#196=LINE('',#1171,#296);
#197=LINE('',#1173,#297);
#198=LINE('',#1174,#298);
#199=LINE('',#1177,#299);
#200=LINE('',#1179,#300);
#201=LINE('',#1180,#301);
#202=LINE('',#1183,#302);
#203=LINE('',#1185,#303);
#204=LINE('',#1186,#304);
#205=LINE('',#1188,#305);
#206=LINE('',#1189,#306);
#207=LINE('',#1193,#307);
#208=LINE('',#1195,#308);
#209=LINE('',#1197,#309);
#210=LINE('',#1198,#310);
#211=LINE('',#1201,#311);
#212=LINE('',#1203,#312);
#213=LINE('',#1204,#313);
#214=LINE('',#1207,#314);
#215=LINE('',#1209,#315);
#216=LINE('',#1210,#316);
#217=LINE('',#1212,#317);
#218=LINE('',#1213,#318);
#219=LINE('',#1217,#319);
#220=LINE('',#1219,#320);
#221=LINE('',#1221,#321);
#222=LINE('',#1222,#322);
#223=LINE('',#1225,#323);
#224=LINE('',#1227,#324);
#225=LINE('',#1228,#325);
#226=LINE('',#1231,#326);
#227=LINE('',#1233,#327);
#228=LINE('',#1234,#328);
#229=LINE('',#1236,#329);
#230=LINE('',#1237,#330);
#231=LINE('',#1242,#331);
#232=LINE('',#1248,#332);
#233=LINE('',#1254,#333);
#234=LINE('',#1260,#334);
#235=LINE('',#1265,#335);
#236=LINE('',#1267,#336);
#237=LINE('',#1269,#337);
#238=LINE('',#1270,#338);
#239=LINE('',#1273,#339);
#240=LINE('',#1275,#340);
#241=LINE('',#1276,#341);
#242=LINE('',#1279,#342);
#243=LINE('',#1281,#343);
#244=LINE('',#1282,#344);
#245=LINE('',#1284,#345);
#246=LINE('',#1285,#346);
#247=VECTOR('',#879,10.);
#248=VECTOR('',#880,10.);
#249=VECTOR('',#881,10.);
#250=VECTOR('',#882,10.);
#251=VECTOR('',#885,10.);
#252=VECTOR('',#886,10.);
#253=VECTOR('',#887,10.);
#254=VECTOR('',#890,10.);
#255=VECTOR('',#891,10.);
#256=VECTOR('',#892,10.);
#257=VECTOR('',#895,10.);
#258=VECTOR('',#896,10.);
#259=VECTOR('',#899,10.);
#260=VECTOR('',#900,10.);
#261=VECTOR('',#901,10.);
#262=VECTOR('',#902,10.);
#263=VECTOR('',#905,10.);
#264=VECTOR('',#906,10.);
#265=VECTOR('',#907,10.);
#266=VECTOR('',#910,10.);
#267=VECTOR('',#911,10.);
#268=VECTOR('',#912,10.);
#269=VECTOR('',#915,10.);
#270=VECTOR('',#916,10.);
#271=VECTOR('',#919,10.);
#272=VECTOR('',#920,10.);
#273=VECTOR('',#921,10.);
#274=VECTOR('',#922,10.);
#275=VECTOR('',#925,10.);
#276=VECTOR('',#926,10.);
#277=VECTOR('',#927,10.);
#278=VECTOR('',#930,10.);
#279=VECTOR('',#931,10.);
#280=VECTOR('',#932,10.);
#281=VECTOR('',#935,10.);
#282=VECTOR('',#936,10.);
#283=VECTOR('',#939,10.);
#284=VECTOR('',#940,10.);
#285=VECTOR('',#941,10.);
#286=VECTOR('',#942,10.);
#287=VECTOR('',#945,10.);
#288=VECTOR('',#946,10.);
#289=VECTOR('',#947,10.);
#290=VECTOR('',#950,10.);
#291=VECTOR('',#951,10.);
#292=VECTOR('',#952,10.);
#293=VECTOR('',#955,10.);
#294=VECTOR('',#956,10.);
#295=VECTOR('',#959,10.);
#296=VECTOR('',#960,10.);
#297=VECTOR('',#961,10.);
#298=VECTOR('',#962,10.);
#299=VECTOR('',#965,10.);
#300=VECTOR('',#966,10.);
#301=VECTOR('',#967,10.);
#302=VECTOR('',#970,10.);
#303=VECTOR('',#971,10.);
#304=VECTOR('',#972,10.);
#305=VECTOR('',#975,10.);
#306=VECTOR('',#976,10.);
#307=VECTOR('',#979,10.);
#308=VECTOR('',#980,10.);
#309=VECTOR('',#981,10.);
#310=VECTOR('',#982,10.);
#311=VECTOR('',#985,10.);
#312=VECTOR('',#986,10.);
#313=VECTOR('',#987,10.);
#314=VECTOR('',#990,10.);
#315=VECTOR('',#991,10.);
#316=VECTOR('',#992,10.);
#317=VECTOR('',#995,10.);
#318=VECTOR('',#996,10.);
#319=VECTOR('',#999,10.);
#320=VECTOR('',#1000,10.);
#321=VECTOR('',#1001,10.);
#322=VECTOR('',#1002,10.);
#323=VECTOR('',#1005,10.);
#324=VECTOR('',#1006,10.);
#325=VECTOR('',#1007,10.);
#326=VECTOR('',#1010,10.);
#327=VECTOR('',#1011,10.);
#328=VECTOR('',#1012,10.);
#329=VECTOR('',#1015,10.);
#330=VECTOR('',#1016,10.);
#331=VECTOR('',#1021,2.05);
#332=VECTOR('',#1028,2.05);
#333=VECTOR('',#1035,2.05);
#334=VECTOR('',#1042,2.05);
#335=VECTOR('',#1047,10.);
#336=VECTOR('',#1048,10.);
#337=VECTOR('',#1049,10.);
#338=VECTOR('',#1050,10.);
#339=VECTOR('',#1053,10.);
#340=VECTOR('',#1054,10.);
#341=VECTOR('',#1055,10.);
#342=VECTOR('',#1058,10.);
#343=VECTOR('',#1059,10.);
#344=VECTOR('',#1060,10.);
#345=VECTOR('',#1063,10.);
#346=VECTOR('',#1064,10.);
#347=VERTEX_POINT('',#1071);
#348=VERTEX_POINT('',#1072);
#349=VERTEX_POINT('',#1074);
#350=VERTEX_POINT('',#1076);
#351=VERTEX_POINT('',#1080);
#352=VERTEX_POINT('',#1082);
#353=VERTEX_POINT('',#1086);
#354=VERTEX_POINT('',#1088);
#355=VERTEX_POINT('',#1095);
#356=VERTEX_POINT('',#1096);
#357=VERTEX_POINT('',#1098);
#358=VERTEX_POINT('',#1100);
#359=VERTEX_POINT('',#1104);
#360=VERTEX_POINT('',#1106);
#361=VERTEX_POINT('',#1110);
#362=VERTEX_POINT('',#1112);
#363=VERTEX_POINT('',#1119);
#364=VERTEX_POINT('',#1120);
#365=VERTEX_POINT('',#1122);
#366=VERTEX_POINT('',#1124);
#367=VERTEX_POINT('',#1128);
#368=VERTEX_POINT('',#1130);
#369=VERTEX_POINT('',#1134);
#370=VERTEX_POINT('',#1136);
#371=VERTEX_POINT('',#1143);
#372=VERTEX_POINT('',#1144);
#373=VERTEX_POINT('',#1146);
#374=VERTEX_POINT('',#1148);
#375=VERTEX_POINT('',#1152);
#376=VERTEX_POINT('',#1154);
#377=VERTEX_POINT('',#1158);
#378=VERTEX_POINT('',#1160);
#379=VERTEX_POINT('',#1167);
#380=VERTEX_POINT('',#1168);
#381=VERTEX_POINT('',#1170);
#382=VERTEX_POINT('',#1172);
#383=VERTEX_POINT('',#1176);
#384=VERTEX_POINT('',#1178);
#385=VERTEX_POINT('',#1182);
#386=VERTEX_POINT('',#1184);
#387=VERTEX_POINT('',#1191);
#388=VERTEX_POINT('',#1192);
#389=VERTEX_POINT('',#1194);
#390=VERTEX_POINT('',#1196);
#391=VERTEX_POINT('',#1200);
#392=VERTEX_POINT('',#1202);
#393=VERTEX_POINT('',#1206);
#394=VERTEX_POINT('',#1208);
#395=VERTEX_POINT('',#1215);
#396=VERTEX_POINT('',#1216);
#397=VERTEX_POINT('',#1218);
#398=VERTEX_POINT('',#1220);
#399=VERTEX_POINT('',#1224);
#400=VERTEX_POINT('',#1226);
#401=VERTEX_POINT('',#1230);
#402=VERTEX_POINT('',#1232);
#403=VERTEX_POINT('',#1239);
#404=VERTEX_POINT('',#1241);
#405=VERTEX_POINT('',#1245);
#406=VERTEX_POINT('',#1247);
#407=VERTEX_POINT('',#1251);
#408=VERTEX_POINT('',#1253);
#409=VERTEX_POINT('',#1257);
#410=VERTEX_POINT('',#1259);
#411=VERTEX_POINT('',#1263);
#412=VERTEX_POINT('',#1264);
#413=VERTEX_POINT('',#1266);
#414=VERTEX_POINT('',#1268);
#415=VERTEX_POINT('',#1272);
#416=VERTEX_POINT('',#1274);
#417=VERTEX_POINT('',#1278);
#418=VERTEX_POINT('',#1280);
#419=EDGE_CURVE('',#347,#348,#147,.T.);
#420=EDGE_CURVE('',#347,#349,#148,.T.);
#421=EDGE_CURVE('',#350,#349,#149,.T.);
#422=EDGE_CURVE('',#348,#350,#150,.T.);
#423=EDGE_CURVE('',#351,#347,#151,.T.);
#424=EDGE_CURVE('',#351,#352,#152,.T.);
#425=EDGE_CURVE('',#349,#352,#153,.T.);
#426=EDGE_CURVE('',#353,#351,#154,.T.);
#427=EDGE_CURVE('',#353,#354,#155,.T.);
#428=EDGE_CURVE('',#352,#354,#156,.T.);
#429=EDGE_CURVE('',#348,#353,#157,.T.);
#430=EDGE_CURVE('',#354,#350,#158,.T.);
#431=EDGE_CURVE('',#355,#356,#159,.T.);
#432=EDGE_CURVE('',#355,#357,#160,.T.);
#433=EDGE_CURVE('',#358,#357,#161,.T.);
#434=EDGE_CURVE('',#356,#358,#162,.T.);
#435=EDGE_CURVE('',#359,#357,#163,.T.);
#436=EDGE_CURVE('',#360,#355,#164,.T.);
#437=EDGE_CURVE('',#360,#359,#165,.T.);
#438=EDGE_CURVE('',#361,#360,#166,.T.);
#439=EDGE_CURVE('',#361,#362,#167,.T.);
#440=EDGE_CURVE('',#359,#362,#168,.T.);
#441=EDGE_CURVE('',#356,#361,#169,.T.);
#442=EDGE_CURVE('',#362,#358,#170,.T.);
#443=EDGE_CURVE('',#363,#364,#171,.T.);
#444=EDGE_CURVE('',#363,#365,#172,.T.);
#445=EDGE_CURVE('',#366,#365,#173,.T.);
#446=EDGE_CURVE('',#364,#366,#174,.T.);
#447=EDGE_CURVE('',#367,#363,#175,.T.);
#448=EDGE_CURVE('',#367,#368,#176,.T.);
#449=EDGE_CURVE('',#365,#368,#177,.T.);
#450=EDGE_CURVE('',#369,#367,#178,.T.);
#451=EDGE_CURVE('',#369,#370,#179,.T.);
#452=EDGE_CURVE('',#368,#370,#180,.T.);
#453=EDGE_CURVE('',#364,#369,#181,.T.);
#454=EDGE_CURVE('',#370,#366,#182,.T.);
#455=EDGE_CURVE('',#371,#372,#183,.T.);
#456=EDGE_CURVE('',#371,#373,#184,.T.);
#457=EDGE_CURVE('',#374,#373,#185,.T.);
#458=EDGE_CURVE('',#372,#374,#186,.T.);
#459=EDGE_CURVE('',#375,#371,#187,.T.);
#460=EDGE_CURVE('',#375,#376,#188,.T.);
#461=EDGE_CURVE('',#373,#376,#189,.T.);
#462=EDGE_CURVE('',#377,#375,#190,.T.);
#463=EDGE_CURVE('',#377,#378,#191,.T.);
#464=EDGE_CURVE('',#376,#378,#192,.T.);
#465=EDGE_CURVE('',#372,#377,#193,.T.);
#466=EDGE_CURVE('',#378,#374,#194,.T.);
#467=EDGE_CURVE('',#379,#380,#195,.T.);
#468=EDGE_CURVE('',#379,#381,#196,.T.);
#469=EDGE_CURVE('',#382,#381,#197,.T.);
#470=EDGE_CURVE('',#380,#382,#198,.T.);
#471=EDGE_CURVE('',#383,#379,#199,.T.);
#472=EDGE_CURVE('',#383,#384,#200,.T.);
#473=EDGE_CURVE('',#381,#384,#201,.T.);
#474=EDGE_CURVE('',#385,#383,#202,.T.);
#475=EDGE_CURVE('',#385,#386,#203,.T.);
#476=EDGE_CURVE('',#384,#386,#204,.T.);
#477=EDGE_CURVE('',#380,#385,#205,.T.);
#478=EDGE_CURVE('',#386,#382,#206,.T.);
#479=EDGE_CURVE('',#387,#388,#207,.T.);
#480=EDGE_CURVE('',#387,#389,#208,.T.);
#481=EDGE_CURVE('',#390,#389,#209,.T.);
#482=EDGE_CURVE('',#388,#390,#210,.T.);
#483=EDGE_CURVE('',#391,#387,#211,.T.);
#484=EDGE_CURVE('',#391,#392,#212,.T.);
#485=EDGE_CURVE('',#389,#392,#213,.T.);
#486=EDGE_CURVE('',#393,#391,#214,.T.);
#487=EDGE_CURVE('',#393,#394,#215,.T.);
#488=EDGE_CURVE('',#392,#394,#216,.T.);
#489=EDGE_CURVE('',#388,#393,#217,.T.);
#490=EDGE_CURVE('',#394,#390,#218,.T.);
#491=EDGE_CURVE('',#395,#396,#219,.T.);
#492=EDGE_CURVE('',#395,#397,#220,.T.);
#493=EDGE_CURVE('',#398,#397,#221,.T.);
#494=EDGE_CURVE('',#396,#398,#222,.T.);
#495=EDGE_CURVE('',#399,#395,#223,.T.);
#496=EDGE_CURVE('',#399,#400,#224,.T.);
#497=EDGE_CURVE('',#397,#400,#225,.T.);
#498=EDGE_CURVE('',#401,#399,#226,.T.);
#499=EDGE_CURVE('',#401,#402,#227,.T.);
#500=EDGE_CURVE('',#400,#402,#228,.T.);
#501=EDGE_CURVE('',#396,#401,#229,.T.);
#502=EDGE_CURVE('',#402,#398,#230,.T.);
#503=EDGE_CURVE('',#403,#403,#37,.T.);
#504=EDGE_CURVE('',#403,#404,#231,.T.);
#505=EDGE_CURVE('',#404,#404,#38,.T.);
#506=EDGE_CURVE('',#405,#405,#39,.T.);
#507=EDGE_CURVE('',#405,#406,#232,.T.);
#508=EDGE_CURVE('',#406,#406,#40,.T.);
#509=EDGE_CURVE('',#407,#407,#41,.T.);
#510=EDGE_CURVE('',#407,#408,#233,.T.);
#511=EDGE_CURVE('',#408,#408,#42,.T.);
#512=EDGE_CURVE('',#409,#409,#43,.T.);
#513=EDGE_CURVE('',#409,#410,#234,.T.);
#514=EDGE_CURVE('',#410,#410,#44,.T.);
#515=EDGE_CURVE('',#411,#412,#235,.T.);
#516=EDGE_CURVE('',#411,#413,#236,.T.);
#517=EDGE_CURVE('',#414,#413,#237,.T.);
#518=EDGE_CURVE('',#412,#414,#238,.T.);
#519=EDGE_CURVE('',#412,#415,#239,.T.);
#520=EDGE_CURVE('',#416,#414,#240,.T.);
#521=EDGE_CURVE('',#415,#416,#241,.T.);
#522=EDGE_CURVE('',#415,#417,#242,.T.);
#523=EDGE_CURVE('',#418,#416,#243,.T.);
#524=EDGE_CURVE('',#417,#418,#244,.T.);
#525=EDGE_CURVE('',#417,#411,#245,.T.);
#526=EDGE_CURVE('',#413,#418,#246,.T.);
#527=ORIENTED_EDGE('',*,*,#419,.F.);
#528=ORIENTED_EDGE('',*,*,#420,.T.);
#529=ORIENTED_EDGE('',*,*,#421,.F.);
#530=ORIENTED_EDGE('',*,*,#422,.F.);
#531=ORIENTED_EDGE('',*,*,#423,.F.);
#532=ORIENTED_EDGE('',*,*,#424,.T.);
#533=ORIENTED_EDGE('',*,*,#425,.F.);
#534=ORIENTED_EDGE('',*,*,#420,.F.);
#535=ORIENTED_EDGE('',*,*,#426,.F.);
#536=ORIENTED_EDGE('',*,*,#427,.T.);
#537=ORIENTED_EDGE('',*,*,#428,.F.);
#538=ORIENTED_EDGE('',*,*,#424,.F.);
#539=ORIENTED_EDGE('',*,*,#429,.F.);
#540=ORIENTED_EDGE('',*,*,#422,.T.);
#541=ORIENTED_EDGE('',*,*,#430,.F.);
#542=ORIENTED_EDGE('',*,*,#427,.F.);
#543=ORIENTED_EDGE('',*,*,#431,.F.);
#544=ORIENTED_EDGE('',*,*,#432,.T.);
#545=ORIENTED_EDGE('',*,*,#433,.F.);
#546=ORIENTED_EDGE('',*,*,#434,.F.);
#547=ORIENTED_EDGE('',*,*,#435,.T.);
#548=ORIENTED_EDGE('',*,*,#432,.F.);
#549=ORIENTED_EDGE('',*,*,#436,.F.);
#550=ORIENTED_EDGE('',*,*,#437,.T.);
#551=ORIENTED_EDGE('',*,*,#438,.F.);
#552=ORIENTED_EDGE('',*,*,#439,.T.);
#553=ORIENTED_EDGE('',*,*,#440,.F.);
#554=ORIENTED_EDGE('',*,*,#437,.F.);
#555=ORIENTED_EDGE('',*,*,#441,.F.);
#556=ORIENTED_EDGE('',*,*,#434,.T.);
#557=ORIENTED_EDGE('',*,*,#442,.F.);
#558=ORIENTED_EDGE('',*,*,#439,.F.);
#559=ORIENTED_EDGE('',*,*,#443,.F.);
#560=ORIENTED_EDGE('',*,*,#444,.T.);
#561=ORIENTED_EDGE('',*,*,#445,.F.);
#562=ORIENTED_EDGE('',*,*,#446,.F.);
#563=ORIENTED_EDGE('',*,*,#447,.F.);
#564=ORIENTED_EDGE('',*,*,#448,.T.);
#565=ORIENTED_EDGE('',*,*,#449,.F.);
#566=ORIENTED_EDGE('',*,*,#444,.F.);
#567=ORIENTED_EDGE('',*,*,#450,.F.);
#568=ORIENTED_EDGE('',*,*,#451,.T.);
#569=ORIENTED_EDGE('',*,*,#452,.F.);
#570=ORIENTED_EDGE('',*,*,#448,.F.);
#571=ORIENTED_EDGE('',*,*,#453,.F.);
#572=ORIENTED_EDGE('',*,*,#446,.T.);
#573=ORIENTED_EDGE('',*,*,#454,.F.);
#574=ORIENTED_EDGE('',*,*,#451,.F.);
#575=ORIENTED_EDGE('',*,*,#455,.F.);
#576=ORIENTED_EDGE('',*,*,#456,.T.);
#577=ORIENTED_EDGE('',*,*,#457,.F.);
#578=ORIENTED_EDGE('',*,*,#458,.F.);
#579=ORIENTED_EDGE('',*,*,#459,.F.);
#580=ORIENTED_EDGE('',*,*,#460,.T.);
#581=ORIENTED_EDGE('',*,*,#461,.F.);
#582=ORIENTED_EDGE('',*,*,#456,.F.);
#583=ORIENTED_EDGE('',*,*,#462,.F.);
#584=ORIENTED_EDGE('',*,*,#463,.T.);
#585=ORIENTED_EDGE('',*,*,#464,.F.);
#586=ORIENTED_EDGE('',*,*,#460,.F.);
#587=ORIENTED_EDGE('',*,*,#465,.F.);
#588=ORIENTED_EDGE('',*,*,#458,.T.);
#589=ORIENTED_EDGE('',*,*,#466,.F.);
#590=ORIENTED_EDGE('',*,*,#463,.F.);
#591=ORIENTED_EDGE('',*,*,#467,.F.);
#592=ORIENTED_EDGE('',*,*,#468,.T.);
#593=ORIENTED_EDGE('',*,*,#469,.F.);
#594=ORIENTED_EDGE('',*,*,#470,.F.);
#595=ORIENTED_EDGE('',*,*,#471,.F.);
#596=ORIENTED_EDGE('',*,*,#472,.T.);
#597=ORIENTED_EDGE('',*,*,#473,.F.);
#598=ORIENTED_EDGE('',*,*,#468,.F.);
#599=ORIENTED_EDGE('',*,*,#474,.F.);
#600=ORIENTED_EDGE('',*,*,#475,.T.);
#601=ORIENTED_EDGE('',*,*,#476,.F.);
#602=ORIENTED_EDGE('',*,*,#472,.F.);
#603=ORIENTED_EDGE('',*,*,#477,.F.);
#604=ORIENTED_EDGE('',*,*,#470,.T.);
#605=ORIENTED_EDGE('',*,*,#478,.F.);
#606=ORIENTED_EDGE('',*,*,#475,.F.);
#607=ORIENTED_EDGE('',*,*,#479,.F.);
#608=ORIENTED_EDGE('',*,*,#480,.T.);
#609=ORIENTED_EDGE('',*,*,#481,.F.);
#610=ORIENTED_EDGE('',*,*,#482,.F.);
#611=ORIENTED_EDGE('',*,*,#483,.F.);
#612=ORIENTED_EDGE('',*,*,#484,.T.);
#613=ORIENTED_EDGE('',*,*,#485,.F.);
#614=ORIENTED_EDGE('',*,*,#480,.F.);
#615=ORIENTED_EDGE('',*,*,#486,.F.);
#616=ORIENTED_EDGE('',*,*,#487,.T.);
#617=ORIENTED_EDGE('',*,*,#488,.F.);
#618=ORIENTED_EDGE('',*,*,#484,.F.);
#619=ORIENTED_EDGE('',*,*,#489,.F.);
#620=ORIENTED_EDGE('',*,*,#482,.T.);
#621=ORIENTED_EDGE('',*,*,#490,.F.);
#622=ORIENTED_EDGE('',*,*,#487,.F.);
#623=ORIENTED_EDGE('',*,*,#491,.F.);
#624=ORIENTED_EDGE('',*,*,#492,.T.);
#625=ORIENTED_EDGE('',*,*,#493,.F.);
#626=ORIENTED_EDGE('',*,*,#494,.F.);
#627=ORIENTED_EDGE('',*,*,#495,.F.);
#628=ORIENTED_EDGE('',*,*,#496,.T.);
#629=ORIENTED_EDGE('',*,*,#497,.F.);
#630=ORIENTED_EDGE('',*,*,#492,.F.);
#631=ORIENTED_EDGE('',*,*,#498,.F.);
#632=ORIENTED_EDGE('',*,*,#499,.T.);
#633=ORIENTED_EDGE('',*,*,#500,.F.);
#634=ORIENTED_EDGE('',*,*,#496,.F.);
#635=ORIENTED_EDGE('',*,*,#501,.F.);
#636=ORIENTED_EDGE('',*,*,#494,.T.);
#637=ORIENTED_EDGE('',*,*,#502,.F.);
#638=ORIENTED_EDGE('',*,*,#499,.F.);
#639=ORIENTED_EDGE('',*,*,#503,.F.);
#640=ORIENTED_EDGE('',*,*,#504,.T.);
#641=ORIENTED_EDGE('',*,*,#505,.F.);
#642=ORIENTED_EDGE('',*,*,#504,.F.);
#643=ORIENTED_EDGE('',*,*,#506,.F.);
#644=ORIENTED_EDGE('',*,*,#507,.T.);
#645=ORIENTED_EDGE('',*,*,#508,.F.);
#646=ORIENTED_EDGE('',*,*,#507,.F.);
#647=ORIENTED_EDGE('',*,*,#509,.F.);
#648=ORIENTED_EDGE('',*,*,#510,.T.);
#649=ORIENTED_EDGE('',*,*,#511,.F.);
#650=ORIENTED_EDGE('',*,*,#510,.F.);
#651=ORIENTED_EDGE('',*,*,#512,.F.);
#652=ORIENTED_EDGE('',*,*,#513,.T.);
#653=ORIENTED_EDGE('',*,*,#514,.F.);
#654=ORIENTED_EDGE('',*,*,#513,.F.);
#655=ORIENTED_EDGE('',*,*,#515,.F.);
#656=ORIENTED_EDGE('',*,*,#516,.T.);
#657=ORIENTED_EDGE('',*,*,#517,.F.);
#658=ORIENTED_EDGE('',*,*,#518,.F.);
#659=ORIENTED_EDGE('',*,*,#519,.F.);
#660=ORIENTED_EDGE('',*,*,#518,.T.);
#661=ORIENTED_EDGE('',*,*,#520,.F.);
#662=ORIENTED_EDGE('',*,*,#521,.F.);
#663=ORIENTED_EDGE('',*,*,#522,.F.);
#664=ORIENTED_EDGE('',*,*,#521,.T.);
#665=ORIENTED_EDGE('',*,*,#523,.F.);
#666=ORIENTED_EDGE('',*,*,#524,.F.);
#667=ORIENTED_EDGE('',*,*,#525,.F.);
#668=ORIENTED_EDGE('',*,*,#524,.T.);
#669=ORIENTED_EDGE('',*,*,#526,.F.);
#670=ORIENTED_EDGE('',*,*,#516,.F.);
#671=ORIENTED_EDGE('',*,*,#526,.T.);
#672=ORIENTED_EDGE('',*,*,#523,.T.);
#673=ORIENTED_EDGE('',*,*,#520,.T.);
#674=ORIENTED_EDGE('',*,*,#517,.T.);
#675=ORIENTED_EDGE('',*,*,#431,.T.);
#676=ORIENTED_EDGE('',*,*,#441,.T.);
#677=ORIENTED_EDGE('',*,*,#438,.T.);
#678=ORIENTED_EDGE('',*,*,#436,.T.);
#679=ORIENTED_EDGE('',*,*,#443,.T.);
#680=ORIENTED_EDGE('',*,*,#453,.T.);
#681=ORIENTED_EDGE('',*,*,#450,.T.);
#682=ORIENTED_EDGE('',*,*,#447,.T.);
#683=ORIENTED_EDGE('',*,*,#512,.T.);
#684=ORIENTED_EDGE('',*,*,#509,.T.);
#685=ORIENTED_EDGE('',*,*,#506,.T.);
#686=ORIENTED_EDGE('',*,*,#503,.T.);
#687=ORIENTED_EDGE('',*,*,#491,.T.);
#688=ORIENTED_EDGE('',*,*,#501,.T.);
#689=ORIENTED_EDGE('',*,*,#498,.T.);
#690=ORIENTED_EDGE('',*,*,#495,.T.);
#691=ORIENTED_EDGE('',*,*,#479,.T.);
#692=ORIENTED_EDGE('',*,*,#489,.T.);
#693=ORIENTED_EDGE('',*,*,#486,.T.);
#694=ORIENTED_EDGE('',*,*,#483,.T.);
#695=ORIENTED_EDGE('',*,*,#467,.T.);
#696=ORIENTED_EDGE('',*,*,#477,.T.);
#697=ORIENTED_EDGE('',*,*,#474,.T.);
#698=ORIENTED_EDGE('',*,*,#471,.T.);
#699=ORIENTED_EDGE('',*,*,#455,.T.);
#700=ORIENTED_EDGE('',*,*,#465,.T.);
#701=ORIENTED_EDGE('',*,*,#462,.T.);
#702=ORIENTED_EDGE('',*,*,#459,.T.);
#703=ORIENTED_EDGE('',*,*,#419,.T.);
#704=ORIENTED_EDGE('',*,*,#429,.T.);
#705=ORIENTED_EDGE('',*,*,#426,.T.);
#706=ORIENTED_EDGE('',*,*,#423,.T.);
#707=ORIENTED_EDGE('',*,*,#525,.T.);
#708=ORIENTED_EDGE('',*,*,#515,.T.);
#709=ORIENTED_EDGE('',*,*,#519,.T.);
#710=ORIENTED_EDGE('',*,*,#522,.T.);
#711=ORIENTED_EDGE('',*,*,#433,.T.);
#712=ORIENTED_EDGE('',*,*,#435,.F.);
#713=ORIENTED_EDGE('',*,*,#440,.T.);
#714=ORIENTED_EDGE('',*,*,#442,.T.);
#715=ORIENTED_EDGE('',*,*,#457,.T.);
#716=ORIENTED_EDGE('',*,*,#461,.T.);
#717=ORIENTED_EDGE('',*,*,#464,.T.);
#718=ORIENTED_EDGE('',*,*,#466,.T.);
#719=ORIENTED_EDGE('',*,*,#469,.T.);
#720=ORIENTED_EDGE('',*,*,#473,.T.);
#721=ORIENTED_EDGE('',*,*,#476,.T.);
#722=ORIENTED_EDGE('',*,*,#478,.T.);
#723=ORIENTED_EDGE('',*,*,#481,.T.);
#724=ORIENTED_EDGE('',*,*,#485,.T.);
#725=ORIENTED_EDGE('',*,*,#488,.T.);
#726=ORIENTED_EDGE('',*,*,#490,.T.);
#727=ORIENTED_EDGE('',*,*,#493,.T.);
#728=ORIENTED_EDGE('',*,*,#497,.T.);
#729=ORIENTED_EDGE('',*,*,#500,.T.);
#730=ORIENTED_EDGE('',*,*,#502,.T.);
#731=ORIENTED_EDGE('',*,*,#505,.T.);
#732=ORIENTED_EDGE('',*,*,#508,.T.);
#733=ORIENTED_EDGE('',*,*,#511,.T.);
#734=ORIENTED_EDGE('',*,*,#514,.T.);
#735=ORIENTED_EDGE('',*,*,#445,.T.);
#736=ORIENTED_EDGE('',*,*,#449,.T.);
#737=ORIENTED_EDGE('',*,*,#452,.T.);
#738=ORIENTED_EDGE('',*,*,#454,.T.);
#739=ORIENTED_EDGE('',*,*,#421,.T.);
#740=ORIENTED_EDGE('',*,*,#425,.T.);
#741=ORIENTED_EDGE('',*,*,#428,.T.);
#742=ORIENTED_EDGE('',*,*,#430,.T.);
#743=PLANE('',#829);
#744=PLANE('',#830);
#745=PLANE('',#831);
#746=PLANE('',#832);
#747=PLANE('',#833);
#748=PLANE('',#834);
#749=PLANE('',#835);
#750=PLANE('',#836);
#751=PLANE('',#837);
#752=PLANE('',#838);
#753=PLANE('',#839);
#754=PLANE('',#840);
#755=PLANE('',#841);
#756=PLANE('',#842);
#757=PLANE('',#843);
#758=PLANE('',#844);
#759=PLANE('',#845);
#760=PLANE('',#846);
#761=PLANE('',#847);
#762=PLANE('',#848);
#763=PLANE('',#849);
#764=PLANE('',#850);
#765=PLANE('',#851);
#766=PLANE('',#852);
#767=PLANE('',#853);
#768=PLANE('',#854);
#769=PLANE('',#855);
#770=PLANE('',#856);
#771=PLANE('',#869);
#772=PLANE('',#870);
#773=PLANE('',#871);
#774=PLANE('',#872);
#775=PLANE('',#873);
#776=PLANE('',#874);
#777=ADVANCED_FACE('',(#49),#743,.F.);
#778=ADVANCED_FACE('',(#50),#744,.F.);
#779=ADVANCED_FACE('',(#51),#745,.F.);
#780=ADVANCED_FACE('',(#52),#746,.F.);
#781=ADVANCED_FACE('',(#53),#747,.F.);
#782=ADVANCED_FACE('',(#54),#748,.F.);
#783=ADVANCED_FACE('',(#55),#749,.F.);
#784=ADVANCED_FACE('',(#56),#750,.F.);
#785=ADVANCED_FACE('',(#57),#751,.F.);
#786=ADVANCED_FACE('',(#58),#752,.F.);
#787=ADVANCED_FACE('',(#59),#753,.F.);
#788=ADVANCED_FACE('',(#60),#754,.F.);
#789=ADVANCED_FACE('',(#61),#755,.F.);
#790=ADVANCED_FACE('',(#62),#756,.F.);
#791=ADVANCED_FACE('',(#63),#757,.F.);
#792=ADVANCED_FACE('',(#64),#758,.F.);
#793=ADVANCED_FACE('',(#65),#759,.F.);
#794=ADVANCED_FACE('',(#66),#760,.F.);
#795=ADVANCED_FACE('',(#67),#761,.F.);
#796=ADVANCED_FACE('',(#68),#762,.F.);
#797=ADVANCED_FACE('',(#69),#763,.F.);
#798=ADVANCED_FACE('',(#70),#764,.F.);
#799=ADVANCED_FACE('',(#71),#765,.F.);
#800=ADVANCED_FACE('',(#72),#766,.F.);
#801=ADVANCED_FACE('',(#73),#767,.F.);
#802=ADVANCED_FACE('',(#74),#768,.F.);
#803=ADVANCED_FACE('',(#75),#769,.F.);
#804=ADVANCED_FACE('',(#76),#770,.F.);
#805=ADVANCED_FACE('',(#77),#45,.F.);
#806=ADVANCED_FACE('',(#78),#46,.F.);
#807=ADVANCED_FACE('',(#79),#47,.F.);
#808=ADVANCED_FACE('',(#80),#48,.F.);
#809=ADVANCED_FACE('',(#81),#771,.T.);
#810=ADVANCED_FACE('',(#82),#772,.T.);
#811=ADVANCED_FACE('',(#83),#773,.T.);
#812=ADVANCED_FACE('',(#84),#774,.T.);
#813=ADVANCED_FACE('',(#85,#15,#16,#17,#18,#19,#20,#21,#22,#23,#24,#25),
#775,.T.);
#814=ADVANCED_FACE('',(#86,#26,#27,#28,#29,#30,#31,#32,#33,#34,#35,#36),
#776,.F.);
#815=CLOSED_SHELL('',(#777,#778,#779,#780,#781,#782,#783,#784,#785,#786,
#787,#788,#789,#790,#791,#792,#793,#794,#795,#796,#797,#798,#799,#800,#801,
#802,#803,#804,#805,#806,#807,#808,#809,#810,#811,#812,#813,#814));
#816=DERIVED_UNIT_ELEMENT(#818,1.);
#817=DERIVED_UNIT_ELEMENT(#1293,-3.);
#818=(
MASS_UNIT()
NAMED_UNIT(*)
SI_UNIT(.KILO.,.GRAM.)
);
#819=DERIVED_UNIT((#816,#817));
#820=MEASURE_REPRESENTATION_ITEM('density measure',
POSITIVE_RATIO_MEASURE(7850.),#819);
#821=PROPERTY_DEFINITION_REPRESENTATION(#826,#823);
#822=PROPERTY_DEFINITION_REPRESENTATION(#827,#824);
#823=REPRESENTATION('material name',(#825),#1290);
#824=REPRESENTATION('density',(#820),#1290);
#825=DESCRIPTIVE_REPRESENTATION_ITEM('Steel','Steel');
#826=PROPERTY_DEFINITION('material property','material name',#1300);
#827=PROPERTY_DEFINITION('material property','density of part',#1300);
#828=AXIS2_PLACEMENT_3D('',#1069,#875,#876);
#829=AXIS2_PLACEMENT_3D('',#1070,#877,#878);
#830=AXIS2_PLACEMENT_3D('',#1079,#883,#884);
#831=AXIS2_PLACEMENT_3D('',#1085,#888,#889);
#832=AXIS2_PLACEMENT_3D('',#1091,#893,#894);
#833=AXIS2_PLACEMENT_3D('',#1094,#897,#898);
#834=AXIS2_PLACEMENT_3D('',#1103,#903,#904);
#835=AXIS2_PLACEMENT_3D('',#1109,#908,#909);
#836=AXIS2_PLACEMENT_3D('',#1115,#913,#914);
#837=AXIS2_PLACEMENT_3D('',#1118,#917,#918);
#838=AXIS2_PLACEMENT_3D('',#1127,#923,#924);
#839=AXIS2_PLACEMENT_3D('',#1133,#928,#929);
#840=AXIS2_PLACEMENT_3D('',#1139,#933,#934);
#841=AXIS2_PLACEMENT_3D('',#1142,#937,#938);
#842=AXIS2_PLACEMENT_3D('',#1151,#943,#944);
#843=AXIS2_PLACEMENT_3D('',#1157,#948,#949);
#844=AXIS2_PLACEMENT_3D('',#1163,#953,#954);
#845=AXIS2_PLACEMENT_3D('',#1166,#957,#958);
#846=AXIS2_PLACEMENT_3D('',#1175,#963,#964);
#847=AXIS2_PLACEMENT_3D('',#1181,#968,#969);
#848=AXIS2_PLACEMENT_3D('',#1187,#973,#974);
#849=AXIS2_PLACEMENT_3D('',#1190,#977,#978);
#850=AXIS2_PLACEMENT_3D('',#1199,#983,#984);
#851=AXIS2_PLACEMENT_3D('',#1205,#988,#989);
#852=AXIS2_PLACEMENT_3D('',#1211,#993,#994);
#853=AXIS2_PLACEMENT_3D('',#1214,#997,#998);
#854=AXIS2_PLACEMENT_3D('',#1223,#1003,#1004);
#855=AXIS2_PLACEMENT_3D('',#1229,#1008,#1009);
#856=AXIS2_PLACEMENT_3D('',#1235,#1013,#1014);
#857=AXIS2_PLACEMENT_3D('',#1238,#1017,#1018);
#858=AXIS2_PLACEMENT_3D('',#1240,#1019,#1020);
#859=AXIS2_PLACEMENT_3D('',#1243,#1022,#1023);
#860=AXIS2_PLACEMENT_3D('',#1244,#1024,#1025);
#861=AXIS2_PLACEMENT_3D('',#1246,#1026,#1027);
#862=AXIS2_PLACEMENT_3D('',#1249,#1029,#1030);
#863=AXIS2_PLACEMENT_3D('',#1250,#1031,#1032);
#864=AXIS2_PLACEMENT_3D('',#1252,#1033,#1034);
#865=AXIS2_PLACEMENT_3D('',#1255,#1036,#1037);
#866=AXIS2_PLACEMENT_3D('',#1256,#1038,#1039);
#867=AXIS2_PLACEMENT_3D('',#1258,#1040,#1041);
#868=AXIS2_PLACEMENT_3D('',#1261,#1043,#1044);
#869=AXIS2_PLACEMENT_3D('',#1262,#1045,#1046);
#870=AXIS2_PLACEMENT_3D('',#1271,#1051,#1052);
#871=AXIS2_PLACEMENT_3D('',#1277,#1056,#1057);
#872=AXIS2_PLACEMENT_3D('',#1283,#1061,#1062);
#873=AXIS2_PLACEMENT_3D('',#1286,#1065,#1066);
#874=AXIS2_PLACEMENT_3D('',#1287,#1067,#1068);
#875=DIRECTION('axis',(0.,0.,1.));
#876=DIRECTION('refdir',(1.,0.,0.));
#877=DIRECTION('center_axis',(0.,1.,0.));
#878=DIRECTION('ref_axis',(1.,0.,0.));
#879=DIRECTION('',(1.,0.,0.));
#880=DIRECTION('',(0.,0.,-1.));
#881=DIRECTION('',(-1.,0.,0.));
#882=DIRECTION('',(0.,0.,-1.));
#883=DIRECTION('center_axis',(-1.,0.,0.));
#884=DIRECTION('ref_axis',(0.,1.,0.));
#885=DIRECTION('',(0.,1.,0.));
#886=DIRECTION('',(0.,0.,-1.));
#887=DIRECTION('',(0.,-1.,0.));
#888=DIRECTION('center_axis',(0.,-1.,0.));
#889=DIRECTION('ref_axis',(-1.,0.,0.));
#890=DIRECTION('',(-1.,0.,0.));
#891=DIRECTION('',(0.,0.,-1.));
#892=DIRECTION('',(1.,0.,0.));
#893=DIRECTION('center_axis',(1.,0.,0.));
#894=DIRECTION('ref_axis',(0.,-1.,0.));
#895=DIRECTION('',(0.,-1.,0.));
#896=DIRECTION('',(0.,1.,0.));
#897=DIRECTION('center_axis',(-1.,0.,0.));
#898=DIRECTION('ref_axis',(0.,1.,0.));
#899=DIRECTION('',(0.,1.,0.));
#900=DIRECTION('',(0.,0.,-1.));
#901=DIRECTION('',(0.,-1.,0.));
#902=DIRECTION('',(0.,0.,-1.));
#903=DIRECTION('center_axis',(0.,-1.,0.));
#904=DIRECTION('ref_axis',(-1.,0.,0.));
#905=DIRECTION('',(-1.,0.,0.));
#906=DIRECTION('',(-1.,0.,0.));
#907=DIRECTION('',(0.,0.,-1.));
#908=DIRECTION('center_axis',(1.,0.,0.));
#909=DIRECTION('ref_axis',(0.,-1.,0.));
#910=DIRECTION('',(0.,-1.,0.));
#911=DIRECTION('',(0.,0.,-1.));
#912=DIRECTION('',(0.,1.,0.));
#913=DIRECTION('center_axis',(0.,1.,0.));
#914=DIRECTION('ref_axis',(1.,0.,0.));
#915=DIRECTION('',(1.,0.,0.));
#916=DIRECTION('',(-1.,0.,0.));
#917=DIRECTION('center_axis',(-1.,0.,0.));
#918=DIRECTION('ref_axis',(0.,1.,0.));
#919=DIRECTION('',(0.,1.,0.));
#920=DIRECTION('',(0.,0.,-1.));
#921=DIRECTION('',(0.,-1.,0.));
#922=DIRECTION('',(0.,0.,-1.));
#923=DIRECTION('center_axis',(0.,-1.,0.));
#924=DIRECTION('ref_axis',(-1.,0.,0.));
#925=DIRECTION('',(-1.,0.,0.));
#926=DIRECTION('',(0.,0.,-1.));
#927=DIRECTION('',(1.,0.,0.));
#928=DIRECTION('center_axis',(1.,0.,0.));
#929=DIRECTION('ref_axis',(0.,-1.,0.));
#930=DIRECTION('',(0.,-1.,0.));
#931=DIRECTION('',(0.,0.,-1.));
#932=DIRECTION('',(0.,1.,0.));
#933=DIRECTION('center_axis',(0.,1.,0.));
#934=DIRECTION('ref_axis',(1.,0.,0.));
#935=DIRECTION('',(1.,0.,0.));
#936=DIRECTION('',(-1.,0.,0.));
#937=DIRECTION('center_axis',(-1.,0.,0.));
#938=DIRECTION('ref_axis',(0.,1.,0.));
#939=DIRECTION('',(0.,1.,0.));
#940=DIRECTION('',(0.,0.,-1.));
#941=DIRECTION('',(0.,-1.,0.));
#942=DIRECTION('',(0.,0.,-1.));
#943=DIRECTION('center_axis',(0.,-1.,0.));
#944=DIRECTION('ref_axis',(-1.,0.,0.));
#945=DIRECTION('',(-1.,0.,0.));
#946=DIRECTION('',(0.,0.,-1.));
#947=DIRECTION('',(1.,0.,0.));
#948=DIRECTION('center_axis',(1.,0.,0.));
#949=DIRECTION('ref_axis',(0.,-1.,0.));
#950=DIRECTION('',(0.,-1.,0.));
#951=DIRECTION('',(0.,0.,-1.));
#952=DIRECTION('',(0.,1.,0.));
#953=DIRECTION('center_axis',(0.,1.,0.));
#954=DIRECTION('ref_axis',(1.,0.,0.));
#955=DIRECTION('',(1.,0.,0.));
#956=DIRECTION('',(-1.,0.,0.));
#957=DIRECTION('center_axis',(-1.,0.,0.));
#958=DIRECTION('ref_axis',(0.,1.,0.));
#959=DIRECTION('',(0.,1.,0.));
#960=DIRECTION('',(0.,0.,-1.));
#961=DIRECTION('',(0.,-1.,0.));
#962=DIRECTION('',(0.,0.,-1.));
#963=DIRECTION('center_axis',(0.,-1.,0.));
#964=DIRECTION('ref_axis',(-1.,0.,0.));
#965=DIRECTION('',(-1.,0.,0.));
#966=DIRECTION('',(0.,0.,-1.));
#967=DIRECTION('',(1.,0.,0.));
#968=DIRECTION('center_axis',(1.,0.,0.));
#969=DIRECTION('ref_axis',(0.,-1.,0.));
#970=DIRECTION('',(0.,-1.,0.));
#971=DIRECTION('',(0.,0.,-1.));
#972=DIRECTION('',(0.,1.,0.));
#973=DIRECTION('center_axis',(0.,1.,0.));
#974=DIRECTION('ref_axis',(1.,0.,0.));
#975=DIRECTION('',(1.,0.,0.));
#976=DIRECTION('',(-1.,0.,0.));
#977=DIRECTION('center_axis',(-1.,0.,0.));
#978=DIRECTION('ref_axis',(0.,1.,0.));
#979=DIRECTION('',(0.,1.,0.));
#980=DIRECTION('',(0.,0.,-1.));
#981=DIRECTION('',(0.,-1.,0.));
#982=DIRECTION('',(0.,0.,-1.));
#983=DIRECTION('center_axis',(0.,-1.,0.));
#984=DIRECTION('ref_axis',(-1.,0.,0.));
#985=DIRECTION('',(-1.,0.,0.));
#986=DIRECTION('',(0.,0.,-1.));
#987=DIRECTION('',(1.,0.,0.));
#988=DIRECTION('center_axis',(1.,0.,0.));
#989=DIRECTION('ref_axis',(0.,-1.,0.));
#990=DIRECTION('',(0.,-1.,0.));
#991=DIRECTION('',(0.,0.,-1.));
#992=DIRECTION('',(0.,1.,0.));
#993=DIRECTION('center_axis',(0.,1.,0.));
#994=DIRECTION('ref_axis',(1.,0.,0.));
#995=DIRECTION('',(1.,0.,0.));
#996=DIRECTION('',(-1.,0.,0.));
#997=DIRECTION('center_axis',(1.,0.,0.));
#998=DIRECTION('ref_axis',(0.,-1.,0.));
#999=DIRECTION('',(0.,-1.,0.));
#1000=DIRECTION('',(0.,0.,-1.));
#1001=DIRECTION('',(0.,1.,0.));
#1002=DIRECTION('',(0.,0.,-1.));
#1003=DIRECTION('center_axis',(0.,1.,0.));
#1004=DIRECTION('ref_axis',(1.,0.,0.));
#1005=DIRECTION('',(1.,0.,0.));
#1006=DIRECTION('',(0.,0.,-1.));
#1007=DIRECTION('',(-1.,0.,0.));
#1008=DIRECTION('center_axis',(-1.,0.,0.));
#1009=DIRECTION('ref_axis',(0.,1.,0.));
#1010=DIRECTION('',(0.,1.,0.));
#1011=DIRECTION('',(0.,0.,-1.));
#1012=DIRECTION('',(0.,-1.,0.));
#1013=DIRECTION('center_axis',(0.,-1.,0.));
#1014=DIRECTION('ref_axis',(-1.,0.,0.));
#1015=DIRECTION('',(-1.,0.,0.));
#1016=DIRECTION('',(1.,0.,0.));
#1017=DIRECTION('center_axis',(0.,0.,-1.));
#1018=DIRECTION('ref_axis',(-1.,0.,0.));
#1019=DIRECTION('center_axis',(0.,0.,-1.));
#1020=DIRECTION('ref_axis',(-1.,0.,0.));
#1021=DIRECTION('',(0.,0.,-1.));
#1022=DIRECTION('center_axis',(0.,0.,1.));
#1023=DIRECTION('ref_axis',(-1.,0.,0.));
#1024=DIRECTION('center_axis',(0.,0.,-1.));
#1025=DIRECTION('ref_axis',(-1.,0.,0.));
#1026=DIRECTION('center_axis',(0.,0.,-1.));
#1027=DIRECTION('ref_axis',(-1.,0.,0.));
#1028=DIRECTION('',(0.,0.,-1.));
#1029=DIRECTION('center_axis',(0.,0.,1.));
#1030=DIRECTION('ref_axis',(-1.,0.,0.));
#1031=DIRECTION('center_axis',(0.,0.,-1.));
#1032=DIRECTION('ref_axis',(-1.,0.,0.));
#1033=DIRECTION('center_axis',(0.,0.,-1.));
#1034=DIRECTION('ref_axis',(-1.,0.,0.));
#1035=DIRECTION('',(0.,0.,-1.));
#1036=DIRECTION('center_axis',(0.,0.,1.));
#1037=DIRECTION('ref_axis',(-1.,0.,0.));
#1038=DIRECTION('center_axis',(0.,0.,-1.));
#1039=DIRECTION('ref_axis',(-1.,0.,0.));
#1040=DIRECTION('center_axis',(0.,0.,-1.));
#1041=DIRECTION('ref_axis',(-1.,0.,0.));
#1042=DIRECTION('',(0.,0.,-1.));
#1043=DIRECTION('center_axis',(0.,0.,1.));
#1044=DIRECTION('ref_axis',(-1.,0.,0.));
#1045=DIRECTION('center_axis',(-1.,0.,0.));
#1046=DIRECTION('ref_axis',(0.,-1.,0.));
#1047=DIRECTION('',(0.,1.,0.));
#1048=DIRECTION('',(0.,0.,1.));
#1049=DIRECTION('',(0.,-1.,0.));
#1050=DIRECTION('',(0.,0.,1.));
#1051=DIRECTION('center_axis',(0.,1.,0.));
#1052=DIRECTION('ref_axis',(-1.,0.,0.));
#1053=DIRECTION('',(1.,0.,0.));
#1054=DIRECTION('',(-1.,0.,0.));
#1055=DIRECTION('',(0.,0.,1.));
#1056=DIRECTION('center_axis',(1.,0.,0.));
#1057=DIRECTION('ref_axis',(0.,1.,0.));
#1058=DIRECTION('',(0.,-1.,0.));
#1059=DIRECTION('',(0.,1.,0.));
#1060=DIRECTION('',(0.,0.,1.));
#1061=DIRECTION('center_axis',(0.,-1.,0.));
#1062=DIRECTION('ref_axis',(1.,0.,0.));
#1063=DIRECTION('',(-1.,0.,0.));
#1064=DIRECTION('',(1.,0.,0.));
#1065=DIRECTION('center_axis',(0.,0.,1.));
#1066=DIRECTION('ref_axis',(1.,0.,0.));
#1067=DIRECTION('center_axis',(0.,0.,1.));
#1068=DIRECTION('ref_axis',(1.,0.,0.));
#1069=CARTESIAN_POINT('',(0.,0.,0.));
#1070=CARTESIAN_POINT('Origin',(-26.9499999999999,9.00000037252903,3.));
#1071=CARTESIAN_POINT('',(-26.9499999999999,9.00000037252903,3.));
#1072=CARTESIAN_POINT('',(7.05000000000009,9.00000037252903,3.));
#1073=CARTESIAN_POINT('',(-14.1249999999999,9.00000037252903,3.));
#1074=CARTESIAN_POINT('',(-26.9499999999999,9.00000037252903,0.));
#1075=CARTESIAN_POINT('',(-26.9499999999999,9.00000037252903,3.));
#1076=CARTESIAN_POINT('',(7.05000000000009,9.00000037252903,0.));
#1077=CARTESIAN_POINT('',(-14.1249999999999,9.00000037252903,0.));
#1078=CARTESIAN_POINT('',(7.05000000000009,9.00000037252903,3.));
#1079=CARTESIAN_POINT('Origin',(-26.9499999999999,-2.09999962747097,3.));
#1080=CARTESIAN_POINT('',(-26.9499999999999,-2.09999962747097,3.));
#1081=CARTESIAN_POINT('',(-26.9499999999999,-11.0249998137355,3.));
#1082=CARTESIAN_POINT('',(-26.9499999999999,-2.09999962747097,0.));
#1083=CARTESIAN_POINT('',(-26.9499999999999,-2.09999962747097,3.));
#1084=CARTESIAN_POINT('',(-26.9499999999999,-11.0249998137355,0.));
#1085=CARTESIAN_POINT('Origin',(7.05000000000009,-2.09999962747097,3.));
#1086=CARTESIAN_POINT('',(7.05000000000009,-2.09999962747097,3.));
#1087=CARTESIAN_POINT('',(2.87500000000007,-2.09999962747097,3.));
#1088=CARTESIAN_POINT('',(7.05000000000009,-2.09999962747097,0.));
#1089=CARTESIAN_POINT('',(7.05000000000009,-2.09999962747097,3.));
#1090=CARTESIAN_POINT('',(2.87500000000007,-2.09999962747097,0.));
#1091=CARTESIAN_POINT('Origin',(7.05000000000009,9.00000037252903,3.));
#1092=CARTESIAN_POINT('',(7.05000000000009,-5.47499981373549,3.));
#1093=CARTESIAN_POINT('',(7.05000000000009,-5.47499981373549,0.));
#1094=CARTESIAN_POINT('Origin',(12.6500000000001,-4.55,3.));
#1095=CARTESIAN_POINT('',(12.6500000000001,-4.55,3.));
#1096=CARTESIAN_POINT('',(12.6500000000001,10.45,3.));
#1097=CARTESIAN_POINT('',(12.6500000000001,-12.25,3.));
#1098=CARTESIAN_POINT('',(12.6500000000001,-4.55,0.));
#1099=CARTESIAN_POINT('',(12.6500000000001,-4.55,3.));
#1100=CARTESIAN_POINT('',(12.6500000000001,10.45,0.));
#1101=CARTESIAN_POINT('',(12.6500022513792,-12.2875001098379,0.));
#1102=CARTESIAN_POINT('',(12.6500000000001,10.45,3.));
#1103=CARTESIAN_POINT('Origin',(30.1500000000001,-4.55,3.));
#1104=CARTESIAN_POINT('',(30.1500000000001,-4.55,0.));
#1105=CARTESIAN_POINT('',(21.4000011256896,-4.55,0.));
#1106=CARTESIAN_POINT('',(30.1500000000001,-4.55,3.));
#1107=CARTESIAN_POINT('',(14.4250000000001,-4.55,3.));
#1108=CARTESIAN_POINT('',(30.1500000000001,-4.55,3.));
#1109=CARTESIAN_POINT('Origin',(30.1500000000001,10.45,3.));
#1110=CARTESIAN_POINT('',(30.1500000000001,10.45,3.));
#1111=CARTESIAN_POINT('',(30.1500000000001,-4.75,3.));
#1112=CARTESIAN_POINT('',(30.1500000000001,10.45,0.));
#1113=CARTESIAN_POINT('',(30.1500000000001,10.45,3.));
#1114=CARTESIAN_POINT('',(30.1500022513792,-5.18750010983786,0.));
#1115=CARTESIAN_POINT('Origin',(12.6500000000001,10.45,3.));
#1116=CARTESIAN_POINT('',(5.67500000000007,10.45,3.));
#1117=CARTESIAN_POINT('',(5.67500000000007,10.45,0.));
#1118=CARTESIAN_POINT('Origin',(-29.6249999999999,-29.5,3.));
#1119=CARTESIAN_POINT('',(-29.6249999999999,-29.5,3.));
#1120=CARTESIAN_POINT('',(-29.6249999999999,-10.45,3.));
#1121=CARTESIAN_POINT('',(-29.6249999999999,-24.725,3.));
#1122=CARTESIAN_POINT('',(-29.6249999999999,-29.5,0.));
#1123=CARTESIAN_POINT('',(-29.6249999999999,-29.5,3.));
#1124=CARTESIAN_POINT('',(-29.6249999999999,-10.45,0.));
#1125=CARTESIAN_POINT('',(-29.6249999999999,-24.725,0.));
#1126=CARTESIAN_POINT('',(-29.6249999999999,-10.45,3.));
#1127=CARTESIAN_POINT('Origin',(-10.5749999999999,-29.5,3.));
#1128=CARTESIAN_POINT('',(-10.5749999999999,-29.5,3.));
#1129=CARTESIAN_POINT('',(-5.93749999999993,-29.5,3.));
#1130=CARTESIAN_POINT('',(-10.5749999999999,-29.5,0.));
#1131=CARTESIAN_POINT('',(-10.5749999999999,-29.5,3.));
#1132=CARTESIAN_POINT('',(-5.93749999999993,-29.5,0.));
#1133=CARTESIAN_POINT('Origin',(-10.5749999999999,-10.45,3.));
#1134=CARTESIAN_POINT('',(-10.5749999999999,-10.45,3.));
#1135=CARTESIAN_POINT('',(-10.5749999999999,-15.2,3.));
#1136=CARTESIAN_POINT('',(-10.5749999999999,-10.45,0.));
#1137=CARTESIAN_POINT('',(-10.5749999999999,-10.45,3.));
#1138=CARTESIAN_POINT('',(-10.5749999999999,-15.2,0.));
#1139=CARTESIAN_POINT('Origin',(-29.6249999999999,-10.45,3.));
#1140=CARTESIAN_POINT('',(-15.4624999999999,-10.45,3.));
#1141=CARTESIAN_POINT('',(-15.4624999999999,-10.45,0.));
#1142=CARTESIAN_POINT('Origin',(-7.62499999999991,-29.5,3.));
#1143=CARTESIAN_POINT('',(-7.62499999999991,-29.5,3.));
#1144=CARTESIAN_POINT('',(-7.62499999999991,-10.45,3.));
#1145=CARTESIAN_POINT('',(-7.62499999999991,-24.725,3.));
#1146=CARTESIAN_POINT('',(-7.62499999999991,-29.5,0.));
#1147=CARTESIAN_POINT('',(-7.62499999999991,-29.5,3.));
#1148=CARTESIAN_POINT('',(-7.62499999999991,-10.45,0.));
#1149=CARTESIAN_POINT('',(-7.62499999999991,-24.725,0.));
#1150=CARTESIAN_POINT('',(-7.62499999999991,-10.45,3.));
#1151=CARTESIAN_POINT('Origin',(11.4250000000001,-29.5,3.));
#1152=CARTESIAN_POINT('',(11.4250000000001,-29.5,3.));
#1153=CARTESIAN_POINT('',(5.06250000000007,-29.5,3.));
#1154=CARTESIAN_POINT('',(11.4250000000001,-29.5,0.));
#1155=CARTESIAN_POINT('',(11.4250000000001,-29.5,3.));
#1156=CARTESIAN_POINT('',(5.06250000000007,-29.5,0.));
#1157=CARTESIAN_POINT('Origin',(11.4250000000001,-10.45,3.));
#1158=CARTESIAN_POINT('',(11.4250000000001,-10.45,3.));
#1159=CARTESIAN_POINT('',(11.4250000000001,-15.2,3.));
#1160=CARTESIAN_POINT('',(11.4250000000001,-10.45,0.));
#1161=CARTESIAN_POINT('',(11.4250000000001,-10.45,3.));
#1162=CARTESIAN_POINT('',(11.4250000000001,-15.2,0.));
#1163=CARTESIAN_POINT('Origin',(-7.62499999999991,-10.45,3.));
#1164=CARTESIAN_POINT('',(-4.46249999999993,-10.45,3.));
#1165=CARTESIAN_POINT('',(-4.46249999999993,-10.45,0.));
#1166=CARTESIAN_POINT('Origin',(14.3750000000001,-29.5,3.));
#1167=CARTESIAN_POINT('',(14.3750000000001,-29.5,3.));
#1168=CARTESIAN_POINT('',(14.3750000000001,-10.45,3.));
#1169=CARTESIAN_POINT('',(14.3750000000001,-24.725,3.));
#1170=CARTESIAN_POINT('',(14.3750000000001,-29.5,0.));
#1171=CARTESIAN_POINT('',(14.3750000000001,-29.5,3.));
#1172=CARTESIAN_POINT('',(14.3750000000001,-10.45,0.));
#1173=CARTESIAN_POINT('',(14.3750000000001,-24.725,0.));
#1174=CARTESIAN_POINT('',(14.3750000000001,-10.45,3.));
#1175=CARTESIAN_POINT('Origin',(33.4250000000001,-29.5,3.));
#1176=CARTESIAN_POINT('',(33.4250000000001,-29.5,3.));
#1177=CARTESIAN_POINT('',(16.0625000000001,-29.5,3.));
#1178=CARTESIAN_POINT('',(33.4250000000001,-29.5,0.));
#1179=CARTESIAN_POINT('',(33.4250000000001,-29.5,3.));
#1180=CARTESIAN_POINT('',(16.0625000000001,-29.5,0.));
#1181=CARTESIAN_POINT('Origin',(33.4250000000001,-10.45,3.));
#1182=CARTESIAN_POINT('',(33.4250000000001,-10.45,3.));
#1183=CARTESIAN_POINT('',(33.4250000000001,-15.2,3.));
#1184=CARTESIAN_POINT('',(33.4250000000001,-10.45,0.));
#1185=CARTESIAN_POINT('',(33.4250000000001,-10.45,3.));
#1186=CARTESIAN_POINT('',(33.4250000000001,-15.2,0.));
#1187=CARTESIAN_POINT('Origin',(14.3750000000001,-10.45,3.));
#1188=CARTESIAN_POINT('',(6.53750000000007,-10.45,3.));
#1189=CARTESIAN_POINT('',(6.53750000000007,-10.45,0.));
#1190=CARTESIAN_POINT('Origin',(-19.1249999999999,-50.425,3.));
#1191=CARTESIAN_POINT('',(-19.1249999999999,-50.425,3.));
#1192=CARTESIAN_POINT('',(-19.1249999999999,-31.375,3.));
#1193=CARTESIAN_POINT('',(-19.1249999999999,-35.1875,3.));
#1194=CARTESIAN_POINT('',(-19.1249999999999,-50.425,0.));
#1195=CARTESIAN_POINT('',(-19.1249999999999,-50.425,3.));
#1196=CARTESIAN_POINT('',(-19.1249999999999,-31.375,0.));
#1197=CARTESIAN_POINT('',(-19.1249999999999,-35.1875,0.));
#1198=CARTESIAN_POINT('',(-19.1249999999999,-31.375,3.));
#1199=CARTESIAN_POINT('Origin',(-0.0749999999999168,-50.425,3.));
#1200=CARTESIAN_POINT('',(-0.0749999999999168,-50.425,3.));
#1201=CARTESIAN_POINT('',(-0.687499999999936,-50.425,3.));
#1202=CARTESIAN_POINT('',(-0.0749999999999162,-50.425,0.));
#1203=CARTESIAN_POINT('',(-0.0749999999999168,-50.425,3.));
#1204=CARTESIAN_POINT('',(-0.687499999999936,-50.425,0.));
#1205=CARTESIAN_POINT('Origin',(-0.0749999999999168,-31.375,3.));
#1206=CARTESIAN_POINT('',(-0.0749999999999168,-31.375,3.));
#1207=CARTESIAN_POINT('',(-0.0749999999999168,-25.6625,3.));
#1208=CARTESIAN_POINT('',(-0.0749999999999162,-31.375,0.));
#1209=CARTESIAN_POINT('',(-0.0749999999999168,-31.375,3.));
#1210=CARTESIAN_POINT('',(-0.0749999999999168,-25.6625,0.));
#1211=CARTESIAN_POINT('Origin',(-19.1249999999999,-31.375,3.));
#1212=CARTESIAN_POINT('',(-10.2124999999999,-31.375,3.));
#1213=CARTESIAN_POINT('',(-10.2124999999999,-31.375,0.));
#1214=CARTESIAN_POINT('Origin',(22.4250000000001,-31.375,3.));
#1215=CARTESIAN_POINT('',(22.4250000000001,-31.375,3.));
#1216=CARTESIAN_POINT('',(22.4250000000001,-50.425,3.));
#1217=CARTESIAN_POINT('',(22.4250000000001,-25.6625,3.));
#1218=CARTESIAN_POINT('',(22.4250000000001,-31.375,0.));
#1219=CARTESIAN_POINT('',(22.4250000000001,-31.375,3.));
#1220=CARTESIAN_POINT('',(22.4250000000001,-50.425,0.));
#1221=CARTESIAN_POINT('',(22.4250000000001,-25.6625,0.));
#1222=CARTESIAN_POINT('',(22.4250000000001,-50.425,3.));
#1223=CARTESIAN_POINT('Origin',(3.37500000000008,-31.375,3.));
#1224=CARTESIAN_POINT('',(3.37500000000008,-31.375,3.));
#1225=CARTESIAN_POINT('',(1.03750000000006,-31.375,3.));
#1226=CARTESIAN_POINT('',(3.37500000000008,-31.375,0.));
#1227=CARTESIAN_POINT('',(3.37500000000008,-31.375,3.));
#1228=CARTESIAN_POINT('',(1.03750000000006,-31.375,0.));
#1229=CARTESIAN_POINT('Origin',(3.37500000000008,-50.425,3.));
#1230=CARTESIAN_POINT('',(3.37500000000008,-50.425,3.));
#1231=CARTESIAN_POINT('',(3.37500000000008,-35.1875,3.));
#1232=CARTESIAN_POINT('',(3.37500000000008,-50.425,0.));
#1233=CARTESIAN_POINT('',(3.37500000000008,-50.425,3.));
#1234=CARTESIAN_POINT('',(3.37500000000008,-35.1875,0.));
#1235=CARTESIAN_POINT('Origin',(22.4250000000001,-50.425,3.));
#1236=CARTESIAN_POINT('',(10.5625000000001,-50.425,3.));
#1237=CARTESIAN_POINT('',(10.5625000000001,-50.425,0.));
#1238=CARTESIAN_POINT('Origin',(-45.0000006705523,-60.0000008940697,3.));
#1239=CARTESIAN_POINT('',(-42.9500006705523,-60.0000008940697,3.));
#1240=CARTESIAN_POINT('Origin',(-45.0000006705523,-60.0000008940697,3.));
#1241=CARTESIAN_POINT('',(-42.9500006705523,-60.0000008940697,0.));
#1242=CARTESIAN_POINT('',(-42.9500006705523,-60.0000008940697,3.));
#1243=CARTESIAN_POINT('Origin',(-45.0000006705523,-60.0000008940697,0.));
#1244=CARTESIAN_POINT('Origin',(42.4000000000001,-59.9,3.));
#1245=CARTESIAN_POINT('',(44.4500000000001,-59.9,3.));
#1246=CARTESIAN_POINT('Origin',(42.4000000000001,-59.9,3.));
#1247=CARTESIAN_POINT('',(44.4500000000001,-59.9,0.));
#1248=CARTESIAN_POINT('',(44.4500000000001,-59.9,3.));
#1249=CARTESIAN_POINT('Origin',(42.4000000000001,-59.9,0.));
#1250=CARTESIAN_POINT('Origin',(42.3999990522861,19.9999995529652,3.));
#1251=CARTESIAN_POINT('',(44.4499990522861,19.9999995529652,3.));
#1252=CARTESIAN_POINT('Origin',(42.3999990522861,19.9999995529652,3.));
#1253=CARTESIAN_POINT('',(44.4499990522861,19.9999995529652,0.));
#1254=CARTESIAN_POINT('',(44.4499990522861,19.9999995529652,3.));
#1255=CARTESIAN_POINT('Origin',(42.3999990522861,19.9999995529652,0.));
#1256=CARTESIAN_POINT('Origin',(-45.0000006705523,20.0000002980232,3.));
#1257=CARTESIAN_POINT('',(-42.9500006705523,20.0000002980232,3.));
#1258=CARTESIAN_POINT('Origin',(-45.0000006705523,20.0000002980232,3.));
#1259=CARTESIAN_POINT('',(-42.9500006705523,20.0000002980232,0.));
#1260=CARTESIAN_POINT('',(-42.9500006705523,20.0000002980232,3.));
#1261=CARTESIAN_POINT('Origin',(-45.0000006705523,20.0000002980232,0.));
#1262=CARTESIAN_POINT('Origin',(-50.,25.,0.));
#1263=CARTESIAN_POINT('',(-50.,-64.9,0.));
#1264=CARTESIAN_POINT('',(-50.,25.,0.));
#1265=CARTESIAN_POINT('',(-50.,-64.9,0.));
#1266=CARTESIAN_POINT('',(-50.,-64.9,3.));
#1267=CARTESIAN_POINT('',(-50.,-64.9,0.));
#1268=CARTESIAN_POINT('',(-50.,25.,3.));
#1269=CARTESIAN_POINT('',(-50.,-64.9,3.));
#1270=CARTESIAN_POINT('',(-50.,25.,0.));
#1271=CARTESIAN_POINT('Origin',(47.4000000000001,25.,0.));
#1272=CARTESIAN_POINT('',(47.4000000000001,25.,0.));
#1273=CARTESIAN_POINT('',(-50.,25.,0.));
#1274=CARTESIAN_POINT('',(47.4000000000001,25.,3.));
#1275=CARTESIAN_POINT('',(-50.,25.,3.));
#1276=CARTESIAN_POINT('',(47.4000000000001,25.,0.));
#1277=CARTESIAN_POINT('Origin',(47.4000000000001,-64.9,0.));
#1278=CARTESIAN_POINT('',(47.4000000000001,-64.9,0.));
#1279=CARTESIAN_POINT('',(47.4000000000001,25.,0.));
#1280=CARTESIAN_POINT('',(47.4000000000001,-64.9,3.));
#1281=CARTESIAN_POINT('',(47.4000000000001,25.,3.));
#1282=CARTESIAN_POINT('',(47.4000000000001,-64.9,0.));
#1283=CARTESIAN_POINT('Origin',(-50.,-64.9,0.));
#1284=CARTESIAN_POINT('',(47.4000000000001,-64.9,0.));
#1285=CARTESIAN_POINT('',(47.4000000000001,-64.9,3.));
#1286=CARTESIAN_POINT('Origin',(-1.29999999999995,-19.95,3.));
#1287=CARTESIAN_POINT('Origin',(-1.29999999999995,-19.95,0.));
#1288=UNCERTAINTY_MEASURE_WITH_UNIT(LENGTH_MEASURE(0.01),#1292,
'DISTANCE_ACCURACY_VALUE',
'Maximum model space distance between geometric entities at asserted c
onnectivities');
#1289=UNCERTAINTY_MEASURE_WITH_UNIT(LENGTH_MEASURE(0.01),#1292,
'DISTANCE_ACCURACY_VALUE',
'Maximum model space distance between geometric entities at asserted c
onnectivities');
#1290=(
GEOMETRIC_REPRESENTATION_CONTEXT(3)
GLOBAL_UNCERTAINTY_ASSIGNED_CONTEXT((#1288))
GLOBAL_UNIT_ASSIGNED_CONTEXT((#1292,#1294,#1295))
REPRESENTATION_CONTEXT('','3D')
);
#1291=(
GEOMETRIC_REPRESENTATION_CONTEXT(3)
GLOBAL_UNCERTAINTY_ASSIGNED_CONTEXT((#1289))
GLOBAL_UNIT_ASSIGNED_CONTEXT((#1292,#1294,#1295))
REPRESENTATION_CONTEXT('','3D')
);
#1292=(
LENGTH_UNIT()
NAMED_UNIT(*)
SI_UNIT(.MILLI.,.METRE.)
);
#1293=(
LENGTH_UNIT()
NAMED_UNIT(*)
SI_UNIT($,.METRE.)
);
#1294=(
NAMED_UNIT(*)
PLANE_ANGLE_UNIT()
SI_UNIT($,.RADIAN.)
);
#1295=(
NAMED_UNIT(*)
SI_UNIT($,.STERADIAN.)
SOLID_ANGLE_UNIT()
);
#1296=SHAPE_DEFINITION_REPRESENTATION(#1297,#1298);
#1297=PRODUCT_DEFINITION_SHAPE('',$,#1300);
#1298=SHAPE_REPRESENTATION('',(#828),#1290);
#1299=PRODUCT_DEFINITION_CONTEXT('part definition',#1304,'design');
#1300=PRODUCT_DEFINITION('2026-08-03-10-12-00-794','Jarned V1 - Top 2',
#1301,#1299);
#1301=PRODUCT_DEFINITION_FORMATION('',$,#1306);
#1302=PRODUCT_RELATED_PRODUCT_CATEGORY('Jarned V1 - Top 2',
'Jarned V1 - Top 2',(#1306));
#1303=APPLICATION_PROTOCOL_DEFINITION('international standard',
'automotive_design',2009,#1304);
#1304=APPLICATION_CONTEXT(
'Core Data for Automotive Mechanical Design Process');
#1305=PRODUCT_CONTEXT('part definition',#1304,'mechanical');
#1306=PRODUCT('2026-08-03-10-12-00-794','Jarned V1 - Top 2',$,(#1305));
#1307=PRESENTATION_STYLE_ASSIGNMENT((#1308));
#1308=SURFACE_STYLE_USAGE(.BOTH.,#1309);
#1309=SURFACE_SIDE_STYLE('',(#1310));
#1310=SURFACE_STYLE_FILL_AREA(#1311);
#1311=FILL_AREA_STYLE('Steel - Satin',(#1312));
#1312=FILL_AREA_STYLE_COLOUR('Steel - Satin',#1313);
#1313=COLOUR_RGB('Steel - Satin',0.627450980392157,0.627450980392157,0.627450980392157);
ENDSEC;
END-ISO-10303-21;
