ISO-10303-21;
HEADER;
/* Generated by software containing ST-Developer
 * from STEP Tools, Inc. (www.steptools.com) 
 */

FILE_DESCRIPTION(
/* description */ (''),
/* implementation_level */ '2;1');

FILE_NAME(
/* name */ 'assembled-model-JarnedV1.step',
/* time_stamp */ '2026-06-08T17:54:26+01:00',
/* author */ (''),
/* organization */ (''),
/* preprocessor_version */ 'ST-DEVELOPER v20.1',
/* originating_system */ 'Autodesk Translation Framework v15.8.0.0',
/* authorisation */ '');

FILE_SCHEMA (('AUTOMOTIVE_DESIGN { 1 0 10303 214 3 1 1 }'));
ENDSEC;

DATA;
#10=MECHANICAL_DESIGN_GEOMETRIC_PRESENTATION_REPRESENTATION('',(#23,#24),
#1907);
#11=ITEM_DEFINED_TRANSFORMATION($,$,#1209,#1283);
#12=ITEM_DEFINED_TRANSFORMATION($,$,#1236,#1284);
#13=(
REPRESENTATION_RELATIONSHIP($,$,#1921,#1920)
REPRESENTATION_RELATIONSHIP_WITH_TRANSFORMATION(#11)
SHAPE_REPRESENTATION_RELATIONSHIP()
);
#14=(
REPRESENTATION_RELATIONSHIP($,$,#1922,#1920)
REPRESENTATION_RELATIONSHIP_WITH_TRANSFORMATION(#12)
SHAPE_REPRESENTATION_RELATIONSHIP()
);
#15=CONTEXT_DEPENDENT_SHAPE_REPRESENTATION(#13,#1918);
#16=CONTEXT_DEPENDENT_SHAPE_REPRESENTATION(#14,#1919);
#17=NEXT_ASSEMBLY_USAGE_OCCURRENCE('Jarned V1 - Bottom:1',
'Jarned V1 - Bottom:1','Jarned V1 - Bottom:1',#1924,#1925,
'Jarned V1 - Bottom:1');
#18=NEXT_ASSEMBLY_USAGE_OCCURRENCE('Jarned V1 - Top:1',
'Jarned V1 - Top:1','Jarned V1 - Top:1',#1924,#1926,'Jarned V1 - Top:1');
#19=SHAPE_REPRESENTATION_RELATIONSHIP('SRR','None',#1921,#21);
#20=SHAPE_REPRESENTATION_RELATIONSHIP('SRR','None',#1922,#22);
#21=ADVANCED_BREP_SHAPE_REPRESENTATION('',(#25),#1905);
#22=ADVANCED_BREP_SHAPE_REPRESENTATION('',(#26),#1906);
#23=STYLED_ITEM('',(#1939),#25);
#24=STYLED_ITEM('',(#1939),#26);
#25=MANIFOLD_SOLID_BREP('Body1',#1183);
#26=MANIFOLD_SOLID_BREP('Body1',#1184);
#27=FACE_BOUND('',#153,.T.);
#28=FACE_BOUND('',#157,.T.);
#29=FACE_BOUND('',#158,.T.);
#30=FACE_BOUND('',#159,.T.);
#31=FACE_BOUND('',#160,.T.);
#32=FACE_BOUND('',#161,.T.);
#33=FACE_BOUND('',#163,.T.);
#34=FACE_BOUND('',#164,.T.);
#35=FACE_BOUND('',#165,.T.);
#36=FACE_BOUND('',#166,.T.);
#37=FACE_BOUND('',#204,.T.);
#38=FACE_BOUND('',#205,.T.);
#39=FACE_BOUND('',#206,.T.);
#40=FACE_BOUND('',#207,.T.);
#41=FACE_BOUND('',#208,.T.);
#42=FACE_BOUND('',#209,.T.);
#43=FACE_BOUND('',#210,.T.);
#44=FACE_BOUND('',#211,.T.);
#45=FACE_BOUND('',#212,.T.);
#46=FACE_BOUND('',#213,.T.);
#47=FACE_BOUND('',#214,.T.);
#48=FACE_BOUND('',#216,.T.);
#49=FACE_BOUND('',#217,.T.);
#50=FACE_BOUND('',#218,.T.);
#51=FACE_BOUND('',#219,.T.);
#52=FACE_BOUND('',#220,.T.);
#53=FACE_BOUND('',#221,.T.);
#54=FACE_BOUND('',#222,.T.);
#55=FACE_BOUND('',#223,.T.);
#56=FACE_BOUND('',#224,.T.);
#57=FACE_BOUND('',#225,.T.);
#58=FACE_BOUND('',#226,.T.);
#59=CIRCLE('',#1217,1.45);
#60=CIRCLE('',#1218,1.45);
#61=CIRCLE('',#1220,1.45);
#62=CIRCLE('',#1221,1.45);
#63=CIRCLE('',#1225,1.45);
#64=CIRCLE('',#1226,1.45);
#65=CIRCLE('',#1228,1.45);
#66=CIRCLE('',#1229,1.45);
#67=CIRCLE('',#1238,1.45);
#68=CIRCLE('',#1239,1.45);
#69=CIRCLE('',#1241,1.45);
#70=CIRCLE('',#1242,1.45);
#71=CIRCLE('',#1244,1.45);
#72=CIRCLE('',#1245,1.45);
#73=CIRCLE('',#1247,1.45);
#74=CIRCLE('',#1248,1.45);
#75=CYLINDRICAL_SURFACE('',#1216,1.45);
#76=CYLINDRICAL_SURFACE('',#1219,1.45);
#77=CYLINDRICAL_SURFACE('',#1224,1.45);
#78=CYLINDRICAL_SURFACE('',#1227,1.45);
#79=CYLINDRICAL_SURFACE('',#1237,1.45);
#80=CYLINDRICAL_SURFACE('',#1240,1.45);
#81=CYLINDRICAL_SURFACE('',#1243,1.45);
#82=CYLINDRICAL_SURFACE('',#1246,1.45);
#83=FACE_OUTER_BOUND('',#139,.T.);
#84=FACE_OUTER_BOUND('',#140,.T.);
#85=FACE_OUTER_BOUND('',#141,.T.);
#86=FACE_OUTER_BOUND('',#142,.T.);
#87=FACE_OUTER_BOUND('',#143,.T.);
#88=FACE_OUTER_BOUND('',#144,.T.);
#89=FACE_OUTER_BOUND('',#145,.T.);
#90=FACE_OUTER_BOUND('',#146,.T.);
#91=FACE_OUTER_BOUND('',#147,.T.);
#92=FACE_OUTER_BOUND('',#148,.T.);
#93=FACE_OUTER_BOUND('',#149,.T.);
#94=FACE_OUTER_BOUND('',#150,.T.);
#95=FACE_OUTER_BOUND('',#151,.T.);
#96=FACE_OUTER_BOUND('',#152,.T.);
#97=FACE_OUTER_BOUND('',#154,.T.);
#98=FACE_OUTER_BOUND('',#155,.T.);
#99=FACE_OUTER_BOUND('',#156,.T.);
#100=FACE_OUTER_BOUND('',#162,.T.);
#101=FACE_OUTER_BOUND('',#167,.T.);
#102=FACE_OUTER_BOUND('',#168,.T.);
#103=FACE_OUTER_BOUND('',#169,.T.);
#104=FACE_OUTER_BOUND('',#170,.T.);
#105=FACE_OUTER_BOUND('',#171,.T.);
#106=FACE_OUTER_BOUND('',#172,.T.);
#107=FACE_OUTER_BOUND('',#173,.T.);
#108=FACE_OUTER_BOUND('',#174,.T.);
#109=FACE_OUTER_BOUND('',#175,.T.);
#110=FACE_OUTER_BOUND('',#176,.T.);
#111=FACE_OUTER_BOUND('',#177,.T.);
#112=FACE_OUTER_BOUND('',#178,.T.);
#113=FACE_OUTER_BOUND('',#179,.T.);
#114=FACE_OUTER_BOUND('',#180,.T.);
#115=FACE_OUTER_BOUND('',#181,.T.);
#116=FACE_OUTER_BOUND('',#182,.T.);
#117=FACE_OUTER_BOUND('',#183,.T.);
#118=FACE_OUTER_BOUND('',#184,.T.);
#119=FACE_OUTER_BOUND('',#185,.T.);
#120=FACE_OUTER_BOUND('',#186,.T.);
#121=FACE_OUTER_BOUND('',#187,.T.);
#122=FACE_OUTER_BOUND('',#188,.T.);
#123=FACE_OUTER_BOUND('',#189,.T.);
#124=FACE_OUTER_BOUND('',#190,.T.);
#125=FACE_OUTER_BOUND('',#191,.T.);
#126=FACE_OUTER_BOUND('',#192,.T.);
#127=FACE_OUTER_BOUND('',#193,.T.);
#128=FACE_OUTER_BOUND('',#194,.T.);
#129=FACE_OUTER_BOUND('',#195,.T.);
#130=FACE_OUTER_BOUND('',#196,.T.);
#131=FACE_OUTER_BOUND('',#197,.T.);
#132=FACE_OUTER_BOUND('',#198,.T.);
#133=FACE_OUTER_BOUND('',#199,.T.);
#134=FACE_OUTER_BOUND('',#200,.T.);
#135=FACE_OUTER_BOUND('',#201,.T.);
#136=FACE_OUTER_BOUND('',#202,.T.);
#137=FACE_OUTER_BOUND('',#203,.T.);
#138=FACE_OUTER_BOUND('',#215,.T.);
#139=EDGE_LOOP('',(#767,#768,#769,#770));
#140=EDGE_LOOP('',(#771,#772,#773,#774));
#141=EDGE_LOOP('',(#775,#776,#777,#778));
#142=EDGE_LOOP('',(#779,#780,#781,#782,#783,#784,#785,#786));
#143=EDGE_LOOP('',(#787,#788,#789,#790,#791,#792,#793,#794));
#144=EDGE_LOOP('',(#795,#796,#797,#798));
#145=EDGE_LOOP('',(#799,#800,#801,#802));
#146=EDGE_LOOP('',(#803,#804,#805,#806));
#147=EDGE_LOOP('',(#807,#808,#809,#810));
#148=EDGE_LOOP('',(#811,#812,#813,#814));
#149=EDGE_LOOP('',(#815,#816,#817,#818));
#150=EDGE_LOOP('',(#819,#820,#821,#822));
#151=EDGE_LOOP('',(#823,#824,#825,#826));
#152=EDGE_LOOP('',(#827,#828,#829,#830));
#153=EDGE_LOOP('',(#831,#832,#833,#834));
#154=EDGE_LOOP('',(#835,#836,#837,#838));
#155=EDGE_LOOP('',(#839,#840,#841,#842));
#156=EDGE_LOOP('',(#843,#844,#845,#846));
#157=EDGE_LOOP('',(#847));
#158=EDGE_LOOP('',(#848));
#159=EDGE_LOOP('',(#849,#850,#851,#852));
#160=EDGE_LOOP('',(#853));
#161=EDGE_LOOP('',(#854));
#162=EDGE_LOOP('',(#855,#856,#857,#858));
#163=EDGE_LOOP('',(#859));
#164=EDGE_LOOP('',(#860));
#165=EDGE_LOOP('',(#861));
#166=EDGE_LOOP('',(#862));
#167=EDGE_LOOP('',(#863,#864,#865,#866));
#168=EDGE_LOOP('',(#867,#868,#869,#870));
#169=EDGE_LOOP('',(#871,#872,#873,#874));
#170=EDGE_LOOP('',(#875,#876,#877,#878));
#171=EDGE_LOOP('',(#879,#880,#881,#882));
#172=EDGE_LOOP('',(#883,#884,#885,#886));
#173=EDGE_LOOP('',(#887,#888,#889,#890));
#174=EDGE_LOOP('',(#891,#892,#893,#894));
#175=EDGE_LOOP('',(#895,#896,#897,#898));
#176=EDGE_LOOP('',(#899,#900,#901,#902));
#177=EDGE_LOOP('',(#903,#904,#905,#906));
#178=EDGE_LOOP('',(#907,#908,#909,#910));
#179=EDGE_LOOP('',(#911,#912,#913,#914));
#180=EDGE_LOOP('',(#915,#916,#917,#918));
#181=EDGE_LOOP('',(#919,#920,#921,#922));
#182=EDGE_LOOP('',(#923,#924,#925,#926));
#183=EDGE_LOOP('',(#927,#928,#929,#930));
#184=EDGE_LOOP('',(#931,#932,#933,#934));
#185=EDGE_LOOP('',(#935,#936,#937,#938));
#186=EDGE_LOOP('',(#939,#940,#941,#942));
#187=EDGE_LOOP('',(#943,#944,#945,#946));
#188=EDGE_LOOP('',(#947,#948,#949,#950));
#189=EDGE_LOOP('',(#951,#952,#953,#954));
#190=EDGE_LOOP('',(#955,#956,#957,#958));
#191=EDGE_LOOP('',(#959,#960,#961,#962));
#192=EDGE_LOOP('',(#963,#964,#965,#966));
#193=EDGE_LOOP('',(#967,#968,#969,#970));
#194=EDGE_LOOP('',(#971,#972,#973,#974));
#195=EDGE_LOOP('',(#975,#976,#977,#978));
#196=EDGE_LOOP('',(#979,#980,#981,#982));
#197=EDGE_LOOP('',(#983,#984,#985,#986));
#198=EDGE_LOOP('',(#987,#988,#989,#990));
#199=EDGE_LOOP('',(#991,#992,#993,#994));
#200=EDGE_LOOP('',(#995,#996,#997,#998));
#201=EDGE_LOOP('',(#999,#1000,#1001,#1002));
#202=EDGE_LOOP('',(#1003,#1004,#1005,#1006));
#203=EDGE_LOOP('',(#1007,#1008,#1009,#1010));
#204=EDGE_LOOP('',(#1011));
#205=EDGE_LOOP('',(#1012));
#206=EDGE_LOOP('',(#1013,#1014,#1015,#1016));
#207=EDGE_LOOP('',(#1017,#1018,#1019,#1020));
#208=EDGE_LOOP('',(#1021,#1022,#1023,#1024));
#209=EDGE_LOOP('',(#1025,#1026,#1027,#1028));
#210=EDGE_LOOP('',(#1029,#1030,#1031,#1032));
#211=EDGE_LOOP('',(#1033,#1034,#1035,#1036));
#212=EDGE_LOOP('',(#1037,#1038,#1039,#1040));
#213=EDGE_LOOP('',(#1041));
#214=EDGE_LOOP('',(#1042));
#215=EDGE_LOOP('',(#1043,#1044,#1045,#1046));
#216=EDGE_LOOP('',(#1047));
#217=EDGE_LOOP('',(#1048));
#218=EDGE_LOOP('',(#1049,#1050,#1051,#1052));
#219=EDGE_LOOP('',(#1053,#1054,#1055,#1056));
#220=EDGE_LOOP('',(#1057,#1058,#1059,#1060));
#221=EDGE_LOOP('',(#1061,#1062,#1063,#1064));
#222=EDGE_LOOP('',(#1065,#1066,#1067,#1068));
#223=EDGE_LOOP('',(#1069,#1070,#1071,#1072));
#224=EDGE_LOOP('',(#1073,#1074,#1075,#1076));
#225=EDGE_LOOP('',(#1077));
#226=EDGE_LOOP('',(#1078));
#227=LINE('',#1584,#367);
#228=LINE('',#1586,#368);
#229=LINE('',#1588,#369);
#230=LINE('',#1589,#370);
#231=LINE('',#1593,#371);
#232=LINE('',#1595,#372);
#233=LINE('',#1597,#373);
#234=LINE('',#1598,#374);
#235=LINE('',#1600,#375);
#236=LINE('',#1601,#376);
#237=LINE('',#1604,#377);
#238=LINE('',#1606,#378);
#239=LINE('',#1608,#379);
#240=LINE('',#1610,#380);
#241=LINE('',#1611,#381);
#242=LINE('',#1615,#382);
#243=LINE('',#1616,#383);
#244=LINE('',#1617,#384);
#245=LINE('',#1618,#385);
#246=LINE('',#1621,#386);
#247=LINE('',#1622,#387);
#248=LINE('',#1627,#388);
#249=LINE('',#1633,#389);
#250=LINE('',#1637,#390);
#251=LINE('',#1638,#391);
#252=LINE('',#1640,#392);
#253=LINE('',#1645,#393);
#254=LINE('',#1651,#394);
#255=LINE('',#1656,#395);
#256=LINE('',#1658,#396);
#257=LINE('',#1660,#397);
#258=LINE('',#1661,#398);
#259=LINE('',#1664,#399);
#260=LINE('',#1666,#400);
#261=LINE('',#1667,#401);
#262=LINE('',#1670,#402);
#263=LINE('',#1672,#403);
#264=LINE('',#1673,#404);
#265=LINE('',#1675,#405);
#266=LINE('',#1676,#406);
#267=LINE('',#1684,#407);
#268=LINE('',#1690,#408);
#269=LINE('',#1696,#409);
#270=LINE('',#1702,#410);
#271=LINE('',#1707,#411);
#272=LINE('',#1709,#412);
#273=LINE('',#1711,#413);
#274=LINE('',#1712,#414);
#275=LINE('',#1715,#415);
#276=LINE('',#1717,#416);
#277=LINE('',#1718,#417);
#278=LINE('',#1721,#418);
#279=LINE('',#1723,#419);
#280=LINE('',#1724,#420);
#281=LINE('',#1726,#421);
#282=LINE('',#1727,#422);
#283=LINE('',#1731,#423);
#284=LINE('',#1733,#424);
#285=LINE('',#1735,#425);
#286=LINE('',#1736,#426);
#287=LINE('',#1739,#427);
#288=LINE('',#1741,#428);
#289=LINE('',#1742,#429);
#290=LINE('',#1745,#430);
#291=LINE('',#1747,#431);
#292=LINE('',#1748,#432);
#293=LINE('',#1750,#433);
#294=LINE('',#1751,#434);
#295=LINE('',#1755,#435);
#296=LINE('',#1757,#436);
#297=LINE('',#1759,#437);
#298=LINE('',#1760,#438);
#299=LINE('',#1763,#439);
#300=LINE('',#1765,#440);
#301=LINE('',#1766,#441);
#302=LINE('',#1769,#442);
#303=LINE('',#1771,#443);
#304=LINE('',#1772,#444);
#305=LINE('',#1774,#445);
#306=LINE('',#1775,#446);
#307=LINE('',#1779,#447);
#308=LINE('',#1781,#448);
#309=LINE('',#1783,#449);
#310=LINE('',#1784,#450);
#311=LINE('',#1787,#451);
#312=LINE('',#1789,#452);
#313=LINE('',#1790,#453);
#314=LINE('',#1793,#454);
#315=LINE('',#1795,#455);
#316=LINE('',#1796,#456);
#317=LINE('',#1798,#457);
#318=LINE('',#1799,#458);
#319=LINE('',#1803,#459);
#320=LINE('',#1805,#460);
#321=LINE('',#1807,#461);
#322=LINE('',#1808,#462);
#323=LINE('',#1811,#463);
#324=LINE('',#1813,#464);
#325=LINE('',#1814,#465);
#326=LINE('',#1817,#466);
#327=LINE('',#1819,#467);
#328=LINE('',#1820,#468);
#329=LINE('',#1822,#469);
#330=LINE('',#1823,#470);
#331=LINE('',#1827,#471);
#332=LINE('',#1829,#472);
#333=LINE('',#1831,#473);
#334=LINE('',#1832,#474);
#335=LINE('',#1835,#475);
#336=LINE('',#1837,#476);
#337=LINE('',#1838,#477);
#338=LINE('',#1841,#478);
#339=LINE('',#1843,#479);
#340=LINE('',#1844,#480);
#341=LINE('',#1846,#481);
#342=LINE('',#1847,#482);
#343=LINE('',#1851,#483);
#344=LINE('',#1853,#484);
#345=LINE('',#1855,#485);
#346=LINE('',#1856,#486);
#347=LINE('',#1859,#487);
#348=LINE('',#1861,#488);
#349=LINE('',#1862,#489);
#350=LINE('',#1865,#490);
#351=LINE('',#1867,#491);
#352=LINE('',#1868,#492);
#353=LINE('',#1870,#493);
#354=LINE('',#1871,#494);
#355=LINE('',#1875,#495);
#356=LINE('',#1877,#496);
#357=LINE('',#1879,#497);
#358=LINE('',#1880,#498);
#359=LINE('',#1883,#499);
#360=LINE('',#1885,#500);
#361=LINE('',#1886,#501);
#362=LINE('',#1889,#502);
#363=LINE('',#1891,#503);
#364=LINE('',#1892,#504);
#365=LINE('',#1894,#505);
#366=LINE('',#1895,#506);
#367=VECTOR('',#1291,10.);
#368=VECTOR('',#1292,10.);
#369=VECTOR('',#1293,10.);
#370=VECTOR('',#1294,10.);
#371=VECTOR('',#1297,10.);
#372=VECTOR('',#1298,10.);
#373=VECTOR('',#1299,10.);
#374=VECTOR('',#1300,10.);
#375=VECTOR('',#1303,10.);
#376=VECTOR('',#1304,10.);
#377=VECTOR('',#1307,10.);
#378=VECTOR('',#1308,10.);
#379=VECTOR('',#1309,10.);
#380=VECTOR('',#1310,10.);
#381=VECTOR('',#1311,10.);
#382=VECTOR('',#1314,10.);
#383=VECTOR('',#1315,10.);
#384=VECTOR('',#1316,10.);
#385=VECTOR('',#1317,10.);
#386=VECTOR('',#1320,10.);
#387=VECTOR('',#1321,10.);
#388=VECTOR('',#1326,1.45);
#389=VECTOR('',#1333,1.45);
#390=VECTOR('',#1338,10.);
#391=VECTOR('',#1339,10.);
#392=VECTOR('',#1342,10.);
#393=VECTOR('',#1347,1.45);
#394=VECTOR('',#1354,1.45);
#395=VECTOR('',#1359,10.);
#396=VECTOR('',#1360,10.);
#397=VECTOR('',#1361,10.);
#398=VECTOR('',#1362,10.);
#399=VECTOR('',#1365,10.);
#400=VECTOR('',#1366,10.);
#401=VECTOR('',#1367,10.);
#402=VECTOR('',#1370,10.);
#403=VECTOR('',#1371,10.);
#404=VECTOR('',#1372,10.);
#405=VECTOR('',#1375,10.);
#406=VECTOR('',#1376,10.);
#407=VECTOR('',#1387,1.45);
#408=VECTOR('',#1394,1.45);
#409=VECTOR('',#1401,1.45);
#410=VECTOR('',#1408,1.45);
#411=VECTOR('',#1413,10.);
#412=VECTOR('',#1414,10.);
#413=VECTOR('',#1415,10.);
#414=VECTOR('',#1416,10.);
#415=VECTOR('',#1419,10.);
#416=VECTOR('',#1420,10.);
#417=VECTOR('',#1421,10.);
#418=VECTOR('',#1424,10.);
#419=VECTOR('',#1425,10.);
#420=VECTOR('',#1426,10.);
#421=VECTOR('',#1429,10.);
#422=VECTOR('',#1430,10.);
#423=VECTOR('',#1433,10.);
#424=VECTOR('',#1434,10.);
#425=VECTOR('',#1435,10.);
#426=VECTOR('',#1436,10.);
#427=VECTOR('',#1439,10.);
#428=VECTOR('',#1440,10.);
#429=VECTOR('',#1441,10.);
#430=VECTOR('',#1444,10.);
#431=VECTOR('',#1445,10.);
#432=VECTOR('',#1446,10.);
#433=VECTOR('',#1449,10.);
#434=VECTOR('',#1450,10.);
#435=VECTOR('',#1453,10.);
#436=VECTOR('',#1454,10.);
#437=VECTOR('',#1455,10.);
#438=VECTOR('',#1456,10.);
#439=VECTOR('',#1459,10.);
#440=VECTOR('',#1460,10.);
#441=VECTOR('',#1461,10.);
#442=VECTOR('',#1464,10.);
#443=VECTOR('',#1465,10.);
#444=VECTOR('',#1466,10.);
#445=VECTOR('',#1469,10.);
#446=VECTOR('',#1470,10.);
#447=VECTOR('',#1473,10.);
#448=VECTOR('',#1474,10.);
#449=VECTOR('',#1475,10.);
#450=VECTOR('',#1476,10.);
#451=VECTOR('',#1479,10.);
#452=VECTOR('',#1480,10.);
#453=VECTOR('',#1481,10.);
#454=VECTOR('',#1484,10.);
#455=VECTOR('',#1485,10.);
#456=VECTOR('',#1486,10.);
#457=VECTOR('',#1489,10.);
#458=VECTOR('',#1490,10.);
#459=VECTOR('',#1493,10.);
#460=VECTOR('',#1494,10.);
#461=VECTOR('',#1495,10.);
#462=VECTOR('',#1496,10.);
#463=VECTOR('',#1499,10.);
#464=VECTOR('',#1500,10.);
#465=VECTOR('',#1501,10.);
#466=VECTOR('',#1504,10.);
#467=VECTOR('',#1505,10.);
#468=VECTOR('',#1506,10.);
#469=VECTOR('',#1509,10.);
#470=VECTOR('',#1510,10.);
#471=VECTOR('',#1513,10.);
#472=VECTOR('',#1514,10.);
#473=VECTOR('',#1515,10.);
#474=VECTOR('',#1516,10.);
#475=VECTOR('',#1519,10.);
#476=VECTOR('',#1520,10.);
#477=VECTOR('',#1521,10.);
#478=VECTOR('',#1524,10.);
#479=VECTOR('',#1525,10.);
#480=VECTOR('',#1526,10.);
#481=VECTOR('',#1529,10.);
#482=VECTOR('',#1530,10.);
#483=VECTOR('',#1533,10.);
#484=VECTOR('',#1534,10.);
#485=VECTOR('',#1535,10.);
#486=VECTOR('',#1536,10.);
#487=VECTOR('',#1539,10.);
#488=VECTOR('',#1540,10.);
#489=VECTOR('',#1541,10.);
#490=VECTOR('',#1544,10.);
#491=VECTOR('',#1545,10.);
#492=VECTOR('',#1546,10.);
#493=VECTOR('',#1549,10.);
#494=VECTOR('',#1550,10.);
#495=VECTOR('',#1553,10.);
#496=VECTOR('',#1554,10.);
#497=VECTOR('',#1555,10.);
#498=VECTOR('',#1556,10.);
#499=VECTOR('',#1559,10.);
#500=VECTOR('',#1560,10.);
#501=VECTOR('',#1561,10.);
#502=VECTOR('',#1564,10.);
#503=VECTOR('',#1565,10.);
#504=VECTOR('',#1566,10.);
#505=VECTOR('',#1569,10.);
#506=VECTOR('',#1570,10.);
#507=VERTEX_POINT('',#1582);
#508=VERTEX_POINT('',#1583);
#509=VERTEX_POINT('',#1585);
#510=VERTEX_POINT('',#1587);
#511=VERTEX_POINT('',#1591);
#512=VERTEX_POINT('',#1592);
#513=VERTEX_POINT('',#1594);
#514=VERTEX_POINT('',#1596);
#515=VERTEX_POINT('',#1603);
#516=VERTEX_POINT('',#1605);
#517=VERTEX_POINT('',#1607);
#518=VERTEX_POINT('',#1609);
#519=VERTEX_POINT('',#1613);
#520=VERTEX_POINT('',#1614);
#521=VERTEX_POINT('',#1620);
#522=VERTEX_POINT('',#1624);
#523=VERTEX_POINT('',#1626);
#524=VERTEX_POINT('',#1630);
#525=VERTEX_POINT('',#1632);
#526=VERTEX_POINT('',#1636);
#527=VERTEX_POINT('',#1642);
#528=VERTEX_POINT('',#1644);
#529=VERTEX_POINT('',#1648);
#530=VERTEX_POINT('',#1650);
#531=VERTEX_POINT('',#1654);
#532=VERTEX_POINT('',#1655);
#533=VERTEX_POINT('',#1657);
#534=VERTEX_POINT('',#1659);
#535=VERTEX_POINT('',#1663);
#536=VERTEX_POINT('',#1665);
#537=VERTEX_POINT('',#1669);
#538=VERTEX_POINT('',#1671);
#539=VERTEX_POINT('',#1681);
#540=VERTEX_POINT('',#1683);
#541=VERTEX_POINT('',#1687);
#542=VERTEX_POINT('',#1689);
#543=VERTEX_POINT('',#1693);
#544=VERTEX_POINT('',#1695);
#545=VERTEX_POINT('',#1699);
#546=VERTEX_POINT('',#1701);
#547=VERTEX_POINT('',#1705);
#548=VERTEX_POINT('',#1706);
#549=VERTEX_POINT('',#1708);
#550=VERTEX_POINT('',#1710);
#551=VERTEX_POINT('',#1714);
#552=VERTEX_POINT('',#1716);
#553=VERTEX_POINT('',#1720);
#554=VERTEX_POINT('',#1722);
#555=VERTEX_POINT('',#1729);
#556=VERTEX_POINT('',#1730);
#557=VERTEX_POINT('',#1732);
#558=VERTEX_POINT('',#1734);
#559=VERTEX_POINT('',#1738);
#560=VERTEX_POINT('',#1740);
#561=VERTEX_POINT('',#1744);
#562=VERTEX_POINT('',#1746);
#563=VERTEX_POINT('',#1753);
#564=VERTEX_POINT('',#1754);
#565=VERTEX_POINT('',#1756);
#566=VERTEX_POINT('',#1758);
#567=VERTEX_POINT('',#1762);
#568=VERTEX_POINT('',#1764);
#569=VERTEX_POINT('',#1768);
#570=VERTEX_POINT('',#1770);
#571=VERTEX_POINT('',#1777);
#572=VERTEX_POINT('',#1778);
#573=VERTEX_POINT('',#1780);
#574=VERTEX_POINT('',#1782);
#575=VERTEX_POINT('',#1786);
#576=VERTEX_POINT('',#1788);
#577=VERTEX_POINT('',#1792);
#578=VERTEX_POINT('',#1794);
#579=VERTEX_POINT('',#1801);
#580=VERTEX_POINT('',#1802);
#581=VERTEX_POINT('',#1804);
#582=VERTEX_POINT('',#1806);
#583=VERTEX_POINT('',#1810);
#584=VERTEX_POINT('',#1812);
#585=VERTEX_POINT('',#1816);
#586=VERTEX_POINT('',#1818);
#587=VERTEX_POINT('',#1825);
#588=VERTEX_POINT('',#1826);
#589=VERTEX_POINT('',#1828);
#590=VERTEX_POINT('',#1830);
#591=VERTEX_POINT('',#1834);
#592=VERTEX_POINT('',#1836);
#593=VERTEX_POINT('',#1840);
#594=VERTEX_POINT('',#1842);
#595=VERTEX_POINT('',#1849);
#596=VERTEX_POINT('',#1850);
#597=VERTEX_POINT('',#1852);
#598=VERTEX_POINT('',#1854);
#599=VERTEX_POINT('',#1858);
#600=VERTEX_POINT('',#1860);
#601=VERTEX_POINT('',#1864);
#602=VERTEX_POINT('',#1866);
#603=VERTEX_POINT('',#1873);
#604=VERTEX_POINT('',#1874);
#605=VERTEX_POINT('',#1876);
#606=VERTEX_POINT('',#1878);
#607=VERTEX_POINT('',#1882);
#608=VERTEX_POINT('',#1884);
#609=VERTEX_POINT('',#1888);
#610=VERTEX_POINT('',#1890);
#611=EDGE_CURVE('',#507,#508,#227,.T.);
#612=EDGE_CURVE('',#507,#509,#228,.T.);
#613=EDGE_CURVE('',#510,#509,#229,.T.);
#614=EDGE_CURVE('',#508,#510,#230,.T.);
#615=EDGE_CURVE('',#511,#512,#231,.T.);
#616=EDGE_CURVE('',#511,#513,#232,.T.);
#617=EDGE_CURVE('',#514,#513,#233,.T.);
#618=EDGE_CURVE('',#512,#514,#234,.T.);
#619=EDGE_CURVE('',#508,#511,#235,.T.);
#620=EDGE_CURVE('',#513,#510,#236,.T.);
#621=EDGE_CURVE('',#509,#515,#237,.T.);
#622=EDGE_CURVE('',#515,#516,#238,.T.);
#623=EDGE_CURVE('',#517,#516,#239,.T.);
#624=EDGE_CURVE('',#518,#517,#240,.T.);
#625=EDGE_CURVE('',#518,#514,#241,.T.);
#626=EDGE_CURVE('',#519,#520,#242,.T.);
#627=EDGE_CURVE('',#515,#519,#243,.T.);
#628=EDGE_CURVE('',#512,#507,#244,.T.);
#629=EDGE_CURVE('',#520,#518,#245,.T.);
#630=EDGE_CURVE('',#519,#521,#246,.T.);
#631=EDGE_CURVE('',#516,#521,#247,.T.);
#632=EDGE_CURVE('',#522,#522,#59,.T.);
#633=EDGE_CURVE('',#522,#523,#248,.T.);
#634=EDGE_CURVE('',#523,#523,#60,.T.);
#635=EDGE_CURVE('',#524,#524,#61,.T.);
#636=EDGE_CURVE('',#524,#525,#249,.T.);
#637=EDGE_CURVE('',#525,#525,#62,.T.);
#638=EDGE_CURVE('',#526,#517,#250,.T.);
#639=EDGE_CURVE('',#520,#526,#251,.T.);
#640=EDGE_CURVE('',#521,#526,#252,.T.);
#641=EDGE_CURVE('',#527,#527,#63,.T.);
#642=EDGE_CURVE('',#527,#528,#253,.T.);
#643=EDGE_CURVE('',#528,#528,#64,.T.);
#644=EDGE_CURVE('',#529,#529,#65,.T.);
#645=EDGE_CURVE('',#529,#530,#254,.T.);
#646=EDGE_CURVE('',#530,#530,#66,.T.);
#647=EDGE_CURVE('',#531,#532,#255,.T.);
#648=EDGE_CURVE('',#531,#533,#256,.T.);
#649=EDGE_CURVE('',#534,#533,#257,.T.);
#650=EDGE_CURVE('',#532,#534,#258,.T.);
#651=EDGE_CURVE('',#532,#535,#259,.T.);
#652=EDGE_CURVE('',#536,#534,#260,.T.);
#653=EDGE_CURVE('',#535,#536,#261,.T.);
#654=EDGE_CURVE('',#535,#537,#262,.T.);
#655=EDGE_CURVE('',#538,#536,#263,.T.);
#656=EDGE_CURVE('',#537,#538,#264,.T.);
#657=EDGE_CURVE('',#537,#531,#265,.T.);
#658=EDGE_CURVE('',#533,#538,#266,.T.);
#659=EDGE_CURVE('',#539,#539,#67,.T.);
#660=EDGE_CURVE('',#539,#540,#267,.T.);
#661=EDGE_CURVE('',#540,#540,#68,.T.);
#662=EDGE_CURVE('',#541,#541,#69,.T.);
#663=EDGE_CURVE('',#541,#542,#268,.T.);
#664=EDGE_CURVE('',#542,#542,#70,.T.);
#665=EDGE_CURVE('',#543,#543,#71,.T.);
#666=EDGE_CURVE('',#543,#544,#269,.T.);
#667=EDGE_CURVE('',#544,#544,#72,.T.);
#668=EDGE_CURVE('',#545,#545,#73,.T.);
#669=EDGE_CURVE('',#545,#546,#270,.T.);
#670=EDGE_CURVE('',#546,#546,#74,.T.);
#671=EDGE_CURVE('',#547,#548,#271,.T.);
#672=EDGE_CURVE('',#547,#549,#272,.T.);
#673=EDGE_CURVE('',#550,#549,#273,.T.);
#674=EDGE_CURVE('',#548,#550,#274,.T.);
#675=EDGE_CURVE('',#551,#547,#275,.T.);
#676=EDGE_CURVE('',#551,#552,#276,.T.);
#677=EDGE_CURVE('',#549,#552,#277,.T.);
#678=EDGE_CURVE('',#553,#551,#278,.T.);
#679=EDGE_CURVE('',#553,#554,#279,.T.);
#680=EDGE_CURVE('',#552,#554,#280,.T.);
#681=EDGE_CURVE('',#548,#553,#281,.T.);
#682=EDGE_CURVE('',#554,#550,#282,.T.);
#683=EDGE_CURVE('',#555,#556,#283,.T.);
#684=EDGE_CURVE('',#555,#557,#284,.T.);
#685=EDGE_CURVE('',#558,#557,#285,.T.);
#686=EDGE_CURVE('',#556,#558,#286,.T.);
#687=EDGE_CURVE('',#559,#555,#287,.T.);
#688=EDGE_CURVE('',#559,#560,#288,.T.);
#689=EDGE_CURVE('',#557,#560,#289,.T.);
#690=EDGE_CURVE('',#561,#559,#290,.T.);
#691=EDGE_CURVE('',#561,#562,#291,.T.);
#692=EDGE_CURVE('',#560,#562,#292,.T.);
#693=EDGE_CURVE('',#556,#561,#293,.T.);
#694=EDGE_CURVE('',#562,#558,#294,.T.);
#695=EDGE_CURVE('',#563,#564,#295,.T.);
#696=EDGE_CURVE('',#563,#565,#296,.T.);
#697=EDGE_CURVE('',#566,#565,#297,.T.);
#698=EDGE_CURVE('',#564,#566,#298,.T.);
#699=EDGE_CURVE('',#567,#563,#299,.T.);
#700=EDGE_CURVE('',#567,#568,#300,.T.);
#701=EDGE_CURVE('',#565,#568,#301,.T.);
#702=EDGE_CURVE('',#569,#567,#302,.T.);
#703=EDGE_CURVE('',#569,#570,#303,.T.);
#704=EDGE_CURVE('',#568,#570,#304,.T.);
#705=EDGE_CURVE('',#564,#569,#305,.T.);
#706=EDGE_CURVE('',#570,#566,#306,.T.);
#707=EDGE_CURVE('',#571,#572,#307,.T.);
#708=EDGE_CURVE('',#571,#573,#308,.T.);
#709=EDGE_CURVE('',#574,#573,#309,.T.);
#710=EDGE_CURVE('',#572,#574,#310,.T.);
#711=EDGE_CURVE('',#575,#571,#311,.T.);
#712=EDGE_CURVE('',#575,#576,#312,.T.);
#713=EDGE_CURVE('',#573,#576,#313,.T.);
#714=EDGE_CURVE('',#577,#575,#314,.T.);
#715=EDGE_CURVE('',#577,#578,#315,.T.);
#716=EDGE_CURVE('',#576,#578,#316,.T.);
#717=EDGE_CURVE('',#572,#577,#317,.T.);
#718=EDGE_CURVE('',#578,#574,#318,.T.);
#719=EDGE_CURVE('',#579,#580,#319,.T.);
#720=EDGE_CURVE('',#579,#581,#320,.T.);
#721=EDGE_CURVE('',#582,#581,#321,.T.);
#722=EDGE_CURVE('',#580,#582,#322,.T.);
#723=EDGE_CURVE('',#583,#579,#323,.T.);
#724=EDGE_CURVE('',#583,#584,#324,.T.);
#725=EDGE_CURVE('',#581,#584,#325,.T.);
#726=EDGE_CURVE('',#585,#583,#326,.T.);
#727=EDGE_CURVE('',#585,#586,#327,.T.);
#728=EDGE_CURVE('',#584,#586,#328,.T.);
#729=EDGE_CURVE('',#580,#585,#329,.T.);
#730=EDGE_CURVE('',#586,#582,#330,.T.);
#731=EDGE_CURVE('',#587,#588,#331,.T.);
#732=EDGE_CURVE('',#587,#589,#332,.T.);
#733=EDGE_CURVE('',#590,#589,#333,.T.);
#734=EDGE_CURVE('',#588,#590,#334,.T.);
#735=EDGE_CURVE('',#591,#587,#335,.T.);
#736=EDGE_CURVE('',#591,#592,#336,.T.);
#737=EDGE_CURVE('',#589,#592,#337,.T.);
#738=EDGE_CURVE('',#593,#591,#338,.T.);
#739=EDGE_CURVE('',#593,#594,#339,.T.);
#740=EDGE_CURVE('',#592,#594,#340,.T.);
#741=EDGE_CURVE('',#588,#593,#341,.T.);
#742=EDGE_CURVE('',#594,#590,#342,.T.);
#743=EDGE_CURVE('',#595,#596,#343,.T.);
#744=EDGE_CURVE('',#595,#597,#344,.T.);
#745=EDGE_CURVE('',#598,#597,#345,.T.);
#746=EDGE_CURVE('',#596,#598,#346,.T.);
#747=EDGE_CURVE('',#599,#595,#347,.T.);
#748=EDGE_CURVE('',#599,#600,#348,.T.);
#749=EDGE_CURVE('',#597,#600,#349,.T.);
#750=EDGE_CURVE('',#601,#599,#350,.T.);
#751=EDGE_CURVE('',#601,#602,#351,.T.);
#752=EDGE_CURVE('',#600,#602,#352,.T.);
#753=EDGE_CURVE('',#596,#601,#353,.T.);
#754=EDGE_CURVE('',#602,#598,#354,.T.);
#755=EDGE_CURVE('',#603,#604,#355,.T.);
#756=EDGE_CURVE('',#603,#605,#356,.T.);
#757=EDGE_CURVE('',#606,#605,#357,.T.);
#758=EDGE_CURVE('',#604,#606,#358,.T.);
#759=EDGE_CURVE('',#604,#607,#359,.T.);
#760=EDGE_CURVE('',#608,#606,#360,.T.);
#761=EDGE_CURVE('',#607,#608,#361,.T.);
#762=EDGE_CURVE('',#607,#609,#362,.T.);
#763=EDGE_CURVE('',#610,#608,#363,.T.);
#764=EDGE_CURVE('',#609,#610,#364,.T.);
#765=EDGE_CURVE('',#609,#603,#365,.T.);
#766=EDGE_CURVE('',#605,#610,#366,.T.);
#767=ORIENTED_EDGE('',*,*,#611,.F.);
#768=ORIENTED_EDGE('',*,*,#612,.T.);
#769=ORIENTED_EDGE('',*,*,#613,.F.);
#770=ORIENTED_EDGE('',*,*,#614,.F.);
#771=ORIENTED_EDGE('',*,*,#615,.F.);
#772=ORIENTED_EDGE('',*,*,#616,.T.);
#773=ORIENTED_EDGE('',*,*,#617,.F.);
#774=ORIENTED_EDGE('',*,*,#618,.F.);
#775=ORIENTED_EDGE('',*,*,#619,.F.);
#776=ORIENTED_EDGE('',*,*,#614,.T.);
#777=ORIENTED_EDGE('',*,*,#620,.F.);
#778=ORIENTED_EDGE('',*,*,#616,.F.);
#779=ORIENTED_EDGE('',*,*,#617,.T.);
#780=ORIENTED_EDGE('',*,*,#620,.T.);
#781=ORIENTED_EDGE('',*,*,#613,.T.);
#782=ORIENTED_EDGE('',*,*,#621,.T.);
#783=ORIENTED_EDGE('',*,*,#622,.T.);
#784=ORIENTED_EDGE('',*,*,#623,.F.);
#785=ORIENTED_EDGE('',*,*,#624,.F.);
#786=ORIENTED_EDGE('',*,*,#625,.T.);
#787=ORIENTED_EDGE('',*,*,#626,.F.);
#788=ORIENTED_EDGE('',*,*,#627,.F.);
#789=ORIENTED_EDGE('',*,*,#621,.F.);
#790=ORIENTED_EDGE('',*,*,#612,.F.);
#791=ORIENTED_EDGE('',*,*,#628,.F.);
#792=ORIENTED_EDGE('',*,*,#618,.T.);
#793=ORIENTED_EDGE('',*,*,#625,.F.);
#794=ORIENTED_EDGE('',*,*,#629,.F.);
#795=ORIENTED_EDGE('',*,*,#627,.T.);
#796=ORIENTED_EDGE('',*,*,#630,.T.);
#797=ORIENTED_EDGE('',*,*,#631,.F.);
#798=ORIENTED_EDGE('',*,*,#622,.F.);
#799=ORIENTED_EDGE('',*,*,#632,.F.);
#800=ORIENTED_EDGE('',*,*,#633,.T.);
#801=ORIENTED_EDGE('',*,*,#634,.T.);
#802=ORIENTED_EDGE('',*,*,#633,.F.);
#803=ORIENTED_EDGE('',*,*,#635,.F.);
#804=ORIENTED_EDGE('',*,*,#636,.T.);
#805=ORIENTED_EDGE('',*,*,#637,.T.);
#806=ORIENTED_EDGE('',*,*,#636,.F.);
#807=ORIENTED_EDGE('',*,*,#629,.T.);
#808=ORIENTED_EDGE('',*,*,#624,.T.);
#809=ORIENTED_EDGE('',*,*,#638,.F.);
#810=ORIENTED_EDGE('',*,*,#639,.F.);
#811=ORIENTED_EDGE('',*,*,#626,.T.);
#812=ORIENTED_EDGE('',*,*,#639,.T.);
#813=ORIENTED_EDGE('',*,*,#640,.F.);
#814=ORIENTED_EDGE('',*,*,#630,.F.);
#815=ORIENTED_EDGE('',*,*,#641,.F.);
#816=ORIENTED_EDGE('',*,*,#642,.T.);
#817=ORIENTED_EDGE('',*,*,#643,.T.);
#818=ORIENTED_EDGE('',*,*,#642,.F.);
#819=ORIENTED_EDGE('',*,*,#644,.F.);
#820=ORIENTED_EDGE('',*,*,#645,.T.);
#821=ORIENTED_EDGE('',*,*,#646,.T.);
#822=ORIENTED_EDGE('',*,*,#645,.F.);
#823=ORIENTED_EDGE('',*,*,#647,.F.);
#824=ORIENTED_EDGE('',*,*,#648,.T.);
#825=ORIENTED_EDGE('',*,*,#649,.F.);
#826=ORIENTED_EDGE('',*,*,#650,.F.);
#827=ORIENTED_EDGE('',*,*,#651,.F.);
#828=ORIENTED_EDGE('',*,*,#650,.T.);
#829=ORIENTED_EDGE('',*,*,#652,.F.);
#830=ORIENTED_EDGE('',*,*,#653,.F.);
#831=ORIENTED_EDGE('',*,*,#611,.T.);
#832=ORIENTED_EDGE('',*,*,#619,.T.);
#833=ORIENTED_EDGE('',*,*,#615,.T.);
#834=ORIENTED_EDGE('',*,*,#628,.T.);
#835=ORIENTED_EDGE('',*,*,#654,.F.);
#836=ORIENTED_EDGE('',*,*,#653,.T.);
#837=ORIENTED_EDGE('',*,*,#655,.F.);
#838=ORIENTED_EDGE('',*,*,#656,.F.);
#839=ORIENTED_EDGE('',*,*,#657,.F.);
#840=ORIENTED_EDGE('',*,*,#656,.T.);
#841=ORIENTED_EDGE('',*,*,#658,.F.);
#842=ORIENTED_EDGE('',*,*,#648,.F.);
#843=ORIENTED_EDGE('',*,*,#658,.T.);
#844=ORIENTED_EDGE('',*,*,#655,.T.);
#845=ORIENTED_EDGE('',*,*,#652,.T.);
#846=ORIENTED_EDGE('',*,*,#649,.T.);
#847=ORIENTED_EDGE('',*,*,#644,.T.);
#848=ORIENTED_EDGE('',*,*,#641,.T.);
#849=ORIENTED_EDGE('',*,*,#640,.T.);
#850=ORIENTED_EDGE('',*,*,#638,.T.);
#851=ORIENTED_EDGE('',*,*,#623,.T.);
#852=ORIENTED_EDGE('',*,*,#631,.T.);
#853=ORIENTED_EDGE('',*,*,#635,.T.);
#854=ORIENTED_EDGE('',*,*,#632,.T.);
#855=ORIENTED_EDGE('',*,*,#657,.T.);
#856=ORIENTED_EDGE('',*,*,#647,.T.);
#857=ORIENTED_EDGE('',*,*,#651,.T.);
#858=ORIENTED_EDGE('',*,*,#654,.T.);
#859=ORIENTED_EDGE('',*,*,#646,.F.);
#860=ORIENTED_EDGE('',*,*,#643,.F.);
#861=ORIENTED_EDGE('',*,*,#637,.F.);
#862=ORIENTED_EDGE('',*,*,#634,.F.);
#863=ORIENTED_EDGE('',*,*,#659,.F.);
#864=ORIENTED_EDGE('',*,*,#660,.T.);
#865=ORIENTED_EDGE('',*,*,#661,.F.);
#866=ORIENTED_EDGE('',*,*,#660,.F.);
#867=ORIENTED_EDGE('',*,*,#662,.F.);
#868=ORIENTED_EDGE('',*,*,#663,.T.);
#869=ORIENTED_EDGE('',*,*,#664,.F.);
#870=ORIENTED_EDGE('',*,*,#663,.F.);
#871=ORIENTED_EDGE('',*,*,#665,.F.);
#872=ORIENTED_EDGE('',*,*,#666,.T.);
#873=ORIENTED_EDGE('',*,*,#667,.F.);
#874=ORIENTED_EDGE('',*,*,#666,.F.);
#875=ORIENTED_EDGE('',*,*,#668,.F.);
#876=ORIENTED_EDGE('',*,*,#669,.T.);
#877=ORIENTED_EDGE('',*,*,#670,.F.);
#878=ORIENTED_EDGE('',*,*,#669,.F.);
#879=ORIENTED_EDGE('',*,*,#671,.F.);
#880=ORIENTED_EDGE('',*,*,#672,.T.);
#881=ORIENTED_EDGE('',*,*,#673,.F.);
#882=ORIENTED_EDGE('',*,*,#674,.F.);
#883=ORIENTED_EDGE('',*,*,#675,.F.);
#884=ORIENTED_EDGE('',*,*,#676,.T.);
#885=ORIENTED_EDGE('',*,*,#677,.F.);
#886=ORIENTED_EDGE('',*,*,#672,.F.);
#887=ORIENTED_EDGE('',*,*,#678,.F.);
#888=ORIENTED_EDGE('',*,*,#679,.T.);
#889=ORIENTED_EDGE('',*,*,#680,.F.);
#890=ORIENTED_EDGE('',*,*,#676,.F.);
#891=ORIENTED_EDGE('',*,*,#681,.F.);
#892=ORIENTED_EDGE('',*,*,#674,.T.);
#893=ORIENTED_EDGE('',*,*,#682,.F.);
#894=ORIENTED_EDGE('',*,*,#679,.F.);
#895=ORIENTED_EDGE('',*,*,#683,.F.);
#896=ORIENTED_EDGE('',*,*,#684,.T.);
#897=ORIENTED_EDGE('',*,*,#685,.F.);
#898=ORIENTED_EDGE('',*,*,#686,.F.);
#899=ORIENTED_EDGE('',*,*,#687,.F.);
#900=ORIENTED_EDGE('',*,*,#688,.T.);
#901=ORIENTED_EDGE('',*,*,#689,.F.);
#902=ORIENTED_EDGE('',*,*,#684,.F.);
#903=ORIENTED_EDGE('',*,*,#690,.F.);
#904=ORIENTED_EDGE('',*,*,#691,.T.);
#905=ORIENTED_EDGE('',*,*,#692,.F.);
#906=ORIENTED_EDGE('',*,*,#688,.F.);
#907=ORIENTED_EDGE('',*,*,#693,.F.);
#908=ORIENTED_EDGE('',*,*,#686,.T.);
#909=ORIENTED_EDGE('',*,*,#694,.F.);
#910=ORIENTED_EDGE('',*,*,#691,.F.);
#911=ORIENTED_EDGE('',*,*,#695,.F.);
#912=ORIENTED_EDGE('',*,*,#696,.T.);
#913=ORIENTED_EDGE('',*,*,#697,.F.);
#914=ORIENTED_EDGE('',*,*,#698,.F.);
#915=ORIENTED_EDGE('',*,*,#699,.F.);
#916=ORIENTED_EDGE('',*,*,#700,.T.);
#917=ORIENTED_EDGE('',*,*,#701,.F.);
#918=ORIENTED_EDGE('',*,*,#696,.F.);
#919=ORIENTED_EDGE('',*,*,#702,.F.);
#920=ORIENTED_EDGE('',*,*,#703,.T.);
#921=ORIENTED_EDGE('',*,*,#704,.F.);
#922=ORIENTED_EDGE('',*,*,#700,.F.);
#923=ORIENTED_EDGE('',*,*,#705,.F.);
#924=ORIENTED_EDGE('',*,*,#698,.T.);
#925=ORIENTED_EDGE('',*,*,#706,.F.);
#926=ORIENTED_EDGE('',*,*,#703,.F.);
#927=ORIENTED_EDGE('',*,*,#707,.F.);
#928=ORIENTED_EDGE('',*,*,#708,.T.);
#929=ORIENTED_EDGE('',*,*,#709,.F.);
#930=ORIENTED_EDGE('',*,*,#710,.F.);
#931=ORIENTED_EDGE('',*,*,#711,.F.);
#932=ORIENTED_EDGE('',*,*,#712,.T.);
#933=ORIENTED_EDGE('',*,*,#713,.F.);
#934=ORIENTED_EDGE('',*,*,#708,.F.);
#935=ORIENTED_EDGE('',*,*,#714,.F.);
#936=ORIENTED_EDGE('',*,*,#715,.T.);
#937=ORIENTED_EDGE('',*,*,#716,.F.);
#938=ORIENTED_EDGE('',*,*,#712,.F.);
#939=ORIENTED_EDGE('',*,*,#717,.F.);
#940=ORIENTED_EDGE('',*,*,#710,.T.);
#941=ORIENTED_EDGE('',*,*,#718,.F.);
#942=ORIENTED_EDGE('',*,*,#715,.F.);
#943=ORIENTED_EDGE('',*,*,#719,.F.);
#944=ORIENTED_EDGE('',*,*,#720,.T.);
#945=ORIENTED_EDGE('',*,*,#721,.F.);
#946=ORIENTED_EDGE('',*,*,#722,.F.);
#947=ORIENTED_EDGE('',*,*,#723,.F.);
#948=ORIENTED_EDGE('',*,*,#724,.T.);
#949=ORIENTED_EDGE('',*,*,#725,.F.);
#950=ORIENTED_EDGE('',*,*,#720,.F.);
#951=ORIENTED_EDGE('',*,*,#726,.F.);
#952=ORIENTED_EDGE('',*,*,#727,.T.);
#953=ORIENTED_EDGE('',*,*,#728,.F.);
#954=ORIENTED_EDGE('',*,*,#724,.F.);
#955=ORIENTED_EDGE('',*,*,#729,.F.);
#956=ORIENTED_EDGE('',*,*,#722,.T.);
#957=ORIENTED_EDGE('',*,*,#730,.F.);
#958=ORIENTED_EDGE('',*,*,#727,.F.);
#959=ORIENTED_EDGE('',*,*,#731,.F.);
#960=ORIENTED_EDGE('',*,*,#732,.T.);
#961=ORIENTED_EDGE('',*,*,#733,.F.);
#962=ORIENTED_EDGE('',*,*,#734,.F.);
#963=ORIENTED_EDGE('',*,*,#735,.F.);
#964=ORIENTED_EDGE('',*,*,#736,.T.);
#965=ORIENTED_EDGE('',*,*,#737,.F.);
#966=ORIENTED_EDGE('',*,*,#732,.F.);
#967=ORIENTED_EDGE('',*,*,#738,.F.);
#968=ORIENTED_EDGE('',*,*,#739,.T.);
#969=ORIENTED_EDGE('',*,*,#740,.F.);
#970=ORIENTED_EDGE('',*,*,#736,.F.);
#971=ORIENTED_EDGE('',*,*,#741,.F.);
#972=ORIENTED_EDGE('',*,*,#734,.T.);
#973=ORIENTED_EDGE('',*,*,#742,.F.);
#974=ORIENTED_EDGE('',*,*,#739,.F.);
#975=ORIENTED_EDGE('',*,*,#743,.F.);
#976=ORIENTED_EDGE('',*,*,#744,.T.);
#977=ORIENTED_EDGE('',*,*,#745,.F.);
#978=ORIENTED_EDGE('',*,*,#746,.F.);
#979=ORIENTED_EDGE('',*,*,#747,.F.);
#980=ORIENTED_EDGE('',*,*,#748,.T.);
#981=ORIENTED_EDGE('',*,*,#749,.F.);
#982=ORIENTED_EDGE('',*,*,#744,.F.);
#983=ORIENTED_EDGE('',*,*,#750,.F.);
#984=ORIENTED_EDGE('',*,*,#751,.T.);
#985=ORIENTED_EDGE('',*,*,#752,.F.);
#986=ORIENTED_EDGE('',*,*,#748,.F.);
#987=ORIENTED_EDGE('',*,*,#753,.F.);
#988=ORIENTED_EDGE('',*,*,#746,.T.);
#989=ORIENTED_EDGE('',*,*,#754,.F.);
#990=ORIENTED_EDGE('',*,*,#751,.F.);
#991=ORIENTED_EDGE('',*,*,#755,.F.);
#992=ORIENTED_EDGE('',*,*,#756,.T.);
#993=ORIENTED_EDGE('',*,*,#757,.F.);
#994=ORIENTED_EDGE('',*,*,#758,.F.);
#995=ORIENTED_EDGE('',*,*,#759,.F.);
#996=ORIENTED_EDGE('',*,*,#758,.T.);
#997=ORIENTED_EDGE('',*,*,#760,.F.);
#998=ORIENTED_EDGE('',*,*,#761,.F.);
#999=ORIENTED_EDGE('',*,*,#762,.F.);
#1000=ORIENTED_EDGE('',*,*,#761,.T.);
#1001=ORIENTED_EDGE('',*,*,#763,.F.);
#1002=ORIENTED_EDGE('',*,*,#764,.F.);
#1003=ORIENTED_EDGE('',*,*,#765,.F.);
#1004=ORIENTED_EDGE('',*,*,#764,.T.);
#1005=ORIENTED_EDGE('',*,*,#766,.F.);
#1006=ORIENTED_EDGE('',*,*,#756,.F.);
#1007=ORIENTED_EDGE('',*,*,#766,.T.);
#1008=ORIENTED_EDGE('',*,*,#763,.T.);
#1009=ORIENTED_EDGE('',*,*,#760,.T.);
#1010=ORIENTED_EDGE('',*,*,#757,.T.);
#1011=ORIENTED_EDGE('',*,*,#662,.T.);
#1012=ORIENTED_EDGE('',*,*,#668,.T.);
#1013=ORIENTED_EDGE('',*,*,#671,.T.);
#1014=ORIENTED_EDGE('',*,*,#681,.T.);
#1015=ORIENTED_EDGE('',*,*,#678,.T.);
#1016=ORIENTED_EDGE('',*,*,#675,.T.);
#1017=ORIENTED_EDGE('',*,*,#683,.T.);
#1018=ORIENTED_EDGE('',*,*,#693,.T.);
#1019=ORIENTED_EDGE('',*,*,#690,.T.);
#1020=ORIENTED_EDGE('',*,*,#687,.T.);
#1021=ORIENTED_EDGE('',*,*,#695,.T.);
#1022=ORIENTED_EDGE('',*,*,#705,.T.);
#1023=ORIENTED_EDGE('',*,*,#702,.T.);
#1024=ORIENTED_EDGE('',*,*,#699,.T.);
#1025=ORIENTED_EDGE('',*,*,#707,.T.);
#1026=ORIENTED_EDGE('',*,*,#717,.T.);
#1027=ORIENTED_EDGE('',*,*,#714,.T.);
#1028=ORIENTED_EDGE('',*,*,#711,.T.);
#1029=ORIENTED_EDGE('',*,*,#719,.T.);
#1030=ORIENTED_EDGE('',*,*,#729,.T.);
#1031=ORIENTED_EDGE('',*,*,#726,.T.);
#1032=ORIENTED_EDGE('',*,*,#723,.T.);
#1033=ORIENTED_EDGE('',*,*,#731,.T.);
#1034=ORIENTED_EDGE('',*,*,#741,.T.);
#1035=ORIENTED_EDGE('',*,*,#738,.T.);
#1036=ORIENTED_EDGE('',*,*,#735,.T.);
#1037=ORIENTED_EDGE('',*,*,#743,.T.);
#1038=ORIENTED_EDGE('',*,*,#753,.T.);
#1039=ORIENTED_EDGE('',*,*,#750,.T.);
#1040=ORIENTED_EDGE('',*,*,#747,.T.);
#1041=ORIENTED_EDGE('',*,*,#665,.T.);
#1042=ORIENTED_EDGE('',*,*,#659,.T.);
#1043=ORIENTED_EDGE('',*,*,#765,.T.);
#1044=ORIENTED_EDGE('',*,*,#755,.T.);
#1045=ORIENTED_EDGE('',*,*,#759,.T.);
#1046=ORIENTED_EDGE('',*,*,#762,.T.);
#1047=ORIENTED_EDGE('',*,*,#664,.T.);
#1048=ORIENTED_EDGE('',*,*,#670,.T.);
#1049=ORIENTED_EDGE('',*,*,#673,.T.);
#1050=ORIENTED_EDGE('',*,*,#677,.T.);
#1051=ORIENTED_EDGE('',*,*,#680,.T.);
#1052=ORIENTED_EDGE('',*,*,#682,.T.);
#1053=ORIENTED_EDGE('',*,*,#685,.T.);
#1054=ORIENTED_EDGE('',*,*,#689,.T.);
#1055=ORIENTED_EDGE('',*,*,#692,.T.);
#1056=ORIENTED_EDGE('',*,*,#694,.T.);
#1057=ORIENTED_EDGE('',*,*,#697,.T.);
#1058=ORIENTED_EDGE('',*,*,#701,.T.);
#1059=ORIENTED_EDGE('',*,*,#704,.T.);
#1060=ORIENTED_EDGE('',*,*,#706,.T.);
#1061=ORIENTED_EDGE('',*,*,#709,.T.);
#1062=ORIENTED_EDGE('',*,*,#713,.T.);
#1063=ORIENTED_EDGE('',*,*,#716,.T.);
#1064=ORIENTED_EDGE('',*,*,#718,.T.);
#1065=ORIENTED_EDGE('',*,*,#721,.T.);
#1066=ORIENTED_EDGE('',*,*,#725,.T.);
#1067=ORIENTED_EDGE('',*,*,#728,.T.);
#1068=ORIENTED_EDGE('',*,*,#730,.T.);
#1069=ORIENTED_EDGE('',*,*,#733,.T.);
#1070=ORIENTED_EDGE('',*,*,#737,.T.);
#1071=ORIENTED_EDGE('',*,*,#740,.T.);
#1072=ORIENTED_EDGE('',*,*,#742,.T.);
#1073=ORIENTED_EDGE('',*,*,#745,.T.);
#1074=ORIENTED_EDGE('',*,*,#749,.T.);
#1075=ORIENTED_EDGE('',*,*,#752,.T.);
#1076=ORIENTED_EDGE('',*,*,#754,.T.);
#1077=ORIENTED_EDGE('',*,*,#667,.T.);
#1078=ORIENTED_EDGE('',*,*,#661,.T.);
#1079=PLANE('',#1210);
#1080=PLANE('',#1211);
#1081=PLANE('',#1212);
#1082=PLANE('',#1213);
#1083=PLANE('',#1214);
#1084=PLANE('',#1215);
#1085=PLANE('',#1222);
#1086=PLANE('',#1223);
#1087=PLANE('',#1230);
#1088=PLANE('',#1231);
#1089=PLANE('',#1232);
#1090=PLANE('',#1233);
#1091=PLANE('',#1234);
#1092=PLANE('',#1235);
#1093=PLANE('',#1249);
#1094=PLANE('',#1250);
#1095=PLANE('',#1251);
#1096=PLANE('',#1252);
#1097=PLANE('',#1253);
#1098=PLANE('',#1254);
#1099=PLANE('',#1255);
#1100=PLANE('',#1256);
#1101=PLANE('',#1257);
#1102=PLANE('',#1258);
#1103=PLANE('',#1259);
#1104=PLANE('',#1260);
#1105=PLANE('',#1261);
#1106=PLANE('',#1262);
#1107=PLANE('',#1263);
#1108=PLANE('',#1264);
#1109=PLANE('',#1265);
#1110=PLANE('',#1266);
#1111=PLANE('',#1267);
#1112=PLANE('',#1268);
#1113=PLANE('',#1269);
#1114=PLANE('',#1270);
#1115=PLANE('',#1271);
#1116=PLANE('',#1272);
#1117=PLANE('',#1273);
#1118=PLANE('',#1274);
#1119=PLANE('',#1275);
#1120=PLANE('',#1276);
#1121=PLANE('',#1277);
#1122=PLANE('',#1278);
#1123=PLANE('',#1279);
#1124=PLANE('',#1280);
#1125=PLANE('',#1281);
#1126=PLANE('',#1282);
#1127=ADVANCED_FACE('',(#83),#1079,.F.);
#1128=ADVANCED_FACE('',(#84),#1080,.F.);
#1129=ADVANCED_FACE('',(#85),#1081,.F.);
#1130=ADVANCED_FACE('',(#86),#1082,.T.);
#1131=ADVANCED_FACE('',(#87),#1083,.T.);
#1132=ADVANCED_FACE('',(#88),#1084,.T.);
#1133=ADVANCED_FACE('',(#89),#75,.F.);
#1134=ADVANCED_FACE('',(#90),#76,.F.);
#1135=ADVANCED_FACE('',(#91),#1085,.T.);
#1136=ADVANCED_FACE('',(#92),#1086,.T.);
#1137=ADVANCED_FACE('',(#93),#77,.F.);
#1138=ADVANCED_FACE('',(#94),#78,.F.);
#1139=ADVANCED_FACE('',(#95),#1087,.T.);
#1140=ADVANCED_FACE('',(#96,#27),#1088,.T.);
#1141=ADVANCED_FACE('',(#97),#1089,.T.);
#1142=ADVANCED_FACE('',(#98),#1090,.T.);
#1143=ADVANCED_FACE('',(#99,#28,#29,#30,#31,#32),#1091,.T.);
#1144=ADVANCED_FACE('',(#100,#33,#34,#35,#36),#1092,.F.);
#1145=ADVANCED_FACE('',(#101),#79,.F.);
#1146=ADVANCED_FACE('',(#102),#80,.F.);
#1147=ADVANCED_FACE('',(#103),#81,.F.);
#1148=ADVANCED_FACE('',(#104),#82,.F.);
#1149=ADVANCED_FACE('',(#105),#1093,.F.);
#1150=ADVANCED_FACE('',(#106),#1094,.F.);
#1151=ADVANCED_FACE('',(#107),#1095,.F.);
#1152=ADVANCED_FACE('',(#108),#1096,.F.);
#1153=ADVANCED_FACE('',(#109),#1097,.F.);
#1154=ADVANCED_FACE('',(#110),#1098,.F.);
#1155=ADVANCED_FACE('',(#111),#1099,.F.);
#1156=ADVANCED_FACE('',(#112),#1100,.F.);
#1157=ADVANCED_FACE('',(#113),#1101,.F.);
#1158=ADVANCED_FACE('',(#114),#1102,.F.);
#1159=ADVANCED_FACE('',(#115),#1103,.F.);
#1160=ADVANCED_FACE('',(#116),#1104,.F.);
#1161=ADVANCED_FACE('',(#117),#1105,.F.);
#1162=ADVANCED_FACE('',(#118),#1106,.F.);
#1163=ADVANCED_FACE('',(#119),#1107,.F.);
#1164=ADVANCED_FACE('',(#120),#1108,.F.);
#1165=ADVANCED_FACE('',(#121),#1109,.F.);
#1166=ADVANCED_FACE('',(#122),#1110,.F.);
#1167=ADVANCED_FACE('',(#123),#1111,.F.);
#1168=ADVANCED_FACE('',(#124),#1112,.F.);
#1169=ADVANCED_FACE('',(#125),#1113,.F.);
#1170=ADVANCED_FACE('',(#126),#1114,.F.);
#1171=ADVANCED_FACE('',(#127),#1115,.F.);
#1172=ADVANCED_FACE('',(#128),#1116,.F.);
#1173=ADVANCED_FACE('',(#129),#1117,.F.);
#1174=ADVANCED_FACE('',(#130),#1118,.F.);
#1175=ADVANCED_FACE('',(#131),#1119,.F.);
#1176=ADVANCED_FACE('',(#132),#1120,.F.);
#1177=ADVANCED_FACE('',(#133),#1121,.T.);
#1178=ADVANCED_FACE('',(#134),#1122,.T.);
#1179=ADVANCED_FACE('',(#135),#1123,.T.);
#1180=ADVANCED_FACE('',(#136),#1124,.T.);
#1181=ADVANCED_FACE('',(#137,#37,#38,#39,#40,#41,#42,#43,#44,#45,#46,#47),
#1125,.T.);
#1182=ADVANCED_FACE('',(#138,#48,#49,#50,#51,#52,#53,#54,#55,#56,#57,#58),
#1126,.F.);
#1183=CLOSED_SHELL('',(#1127,#1128,#1129,#1130,#1131,#1132,#1133,#1134,
#1135,#1136,#1137,#1138,#1139,#1140,#1141,#1142,#1143,#1144));
#1184=CLOSED_SHELL('',(#1145,#1146,#1147,#1148,#1149,#1150,#1151,#1152,
#1153,#1154,#1155,#1156,#1157,#1158,#1159,#1160,#1161,#1162,#1163,#1164,
#1165,#1166,#1167,#1168,#1169,#1170,#1171,#1172,#1173,#1174,#1175,#1176,
#1177,#1178,#1179,#1180,#1181,#1182));
#1185=DERIVED_UNIT_ELEMENT(#1189,1.);
#1186=DERIVED_UNIT_ELEMENT(#1909,-3.);
#1187=DERIVED_UNIT_ELEMENT(#1189,1.);
#1188=DERIVED_UNIT_ELEMENT(#1909,-3.);
#1189=(
MASS_UNIT()
NAMED_UNIT(*)
SI_UNIT(.KILO.,.GRAM.)
);
#1190=DERIVED_UNIT((#1185,#1186));
#1191=DERIVED_UNIT((#1187,#1188));
#1192=MEASURE_REPRESENTATION_ITEM('density measure',
POSITIVE_RATIO_MEASURE(7850.),#1190);
#1193=MEASURE_REPRESENTATION_ITEM('density measure',
POSITIVE_RATIO_MEASURE(7850.),#1191);
#1194=PROPERTY_DEFINITION_REPRESENTATION(#1204,#1198);
#1195=PROPERTY_DEFINITION_REPRESENTATION(#1205,#1199);
#1196=PROPERTY_DEFINITION_REPRESENTATION(#1206,#1200);
#1197=PROPERTY_DEFINITION_REPRESENTATION(#1207,#1201);
#1198=REPRESENTATION('material name',(#1202),#1905);
#1199=REPRESENTATION('density',(#1192),#1905);
#1200=REPRESENTATION('material name',(#1203),#1906);
#1201=REPRESENTATION('density',(#1193),#1906);
#1202=DESCRIPTIVE_REPRESENTATION_ITEM('Steel','Steel');
#1203=DESCRIPTIVE_REPRESENTATION_ITEM('Steel','Steel');
#1204=PROPERTY_DEFINITION('material property','material name',#1925);
#1205=PROPERTY_DEFINITION('material property','density of part',#1925);
#1206=PROPERTY_DEFINITION('material property','material name',#1926);
#1207=PROPERTY_DEFINITION('material property','density of part',#1926);
#1208=AXIS2_PLACEMENT_3D('',#1579,#1285,#1286);
#1209=AXIS2_PLACEMENT_3D('',#1580,#1287,#1288);
#1210=AXIS2_PLACEMENT_3D('',#1581,#1289,#1290);
#1211=AXIS2_PLACEMENT_3D('',#1590,#1295,#1296);
#1212=AXIS2_PLACEMENT_3D('',#1599,#1301,#1302);
#1213=AXIS2_PLACEMENT_3D('',#1602,#1305,#1306);
#1214=AXIS2_PLACEMENT_3D('',#1612,#1312,#1313);
#1215=AXIS2_PLACEMENT_3D('',#1619,#1318,#1319);
#1216=AXIS2_PLACEMENT_3D('',#1623,#1322,#1323);
#1217=AXIS2_PLACEMENT_3D('',#1625,#1324,#1325);
#1218=AXIS2_PLACEMENT_3D('',#1628,#1327,#1328);
#1219=AXIS2_PLACEMENT_3D('',#1629,#1329,#1330);
#1220=AXIS2_PLACEMENT_3D('',#1631,#1331,#1332);
#1221=AXIS2_PLACEMENT_3D('',#1634,#1334,#1335);
#1222=AXIS2_PLACEMENT_3D('',#1635,#1336,#1337);
#1223=AXIS2_PLACEMENT_3D('',#1639,#1340,#1341);
#1224=AXIS2_PLACEMENT_3D('',#1641,#1343,#1344);
#1225=AXIS2_PLACEMENT_3D('',#1643,#1345,#1346);
#1226=AXIS2_PLACEMENT_3D('',#1646,#1348,#1349);
#1227=AXIS2_PLACEMENT_3D('',#1647,#1350,#1351);
#1228=AXIS2_PLACEMENT_3D('',#1649,#1352,#1353);
#1229=AXIS2_PLACEMENT_3D('',#1652,#1355,#1356);
#1230=AXIS2_PLACEMENT_3D('',#1653,#1357,#1358);
#1231=AXIS2_PLACEMENT_3D('',#1662,#1363,#1364);
#1232=AXIS2_PLACEMENT_3D('',#1668,#1368,#1369);
#1233=AXIS2_PLACEMENT_3D('',#1674,#1373,#1374);
#1234=AXIS2_PLACEMENT_3D('',#1677,#1377,#1378);
#1235=AXIS2_PLACEMENT_3D('',#1678,#1379,#1380);
#1236=AXIS2_PLACEMENT_3D('',#1679,#1381,#1382);
#1237=AXIS2_PLACEMENT_3D('',#1680,#1383,#1384);
#1238=AXIS2_PLACEMENT_3D('',#1682,#1385,#1386);
#1239=AXIS2_PLACEMENT_3D('',#1685,#1388,#1389);
#1240=AXIS2_PLACEMENT_3D('',#1686,#1390,#1391);
#1241=AXIS2_PLACEMENT_3D('',#1688,#1392,#1393);
#1242=AXIS2_PLACEMENT_3D('',#1691,#1395,#1396);
#1243=AXIS2_PLACEMENT_3D('',#1692,#1397,#1398);
#1244=AXIS2_PLACEMENT_3D('',#1694,#1399,#1400);
#1245=AXIS2_PLACEMENT_3D('',#1697,#1402,#1403);
#1246=AXIS2_PLACEMENT_3D('',#1698,#1404,#1405);
#1247=AXIS2_PLACEMENT_3D('',#1700,#1406,#1407);
#1248=AXIS2_PLACEMENT_3D('',#1703,#1409,#1410);
#1249=AXIS2_PLACEMENT_3D('',#1704,#1411,#1412);
#1250=AXIS2_PLACEMENT_3D('',#1713,#1417,#1418);
#1251=AXIS2_PLACEMENT_3D('',#1719,#1422,#1423);
#1252=AXIS2_PLACEMENT_3D('',#1725,#1427,#1428);
#1253=AXIS2_PLACEMENT_3D('',#1728,#1431,#1432);
#1254=AXIS2_PLACEMENT_3D('',#1737,#1437,#1438);
#1255=AXIS2_PLACEMENT_3D('',#1743,#1442,#1443);
#1256=AXIS2_PLACEMENT_3D('',#1749,#1447,#1448);
#1257=AXIS2_PLACEMENT_3D('',#1752,#1451,#1452);
#1258=AXIS2_PLACEMENT_3D('',#1761,#1457,#1458);
#1259=AXIS2_PLACEMENT_3D('',#1767,#1462,#1463);
#1260=AXIS2_PLACEMENT_3D('',#1773,#1467,#1468);
#1261=AXIS2_PLACEMENT_3D('',#1776,#1471,#1472);
#1262=AXIS2_PLACEMENT_3D('',#1785,#1477,#1478);
#1263=AXIS2_PLACEMENT_3D('',#1791,#1482,#1483);
#1264=AXIS2_PLACEMENT_3D('',#1797,#1487,#1488);
#1265=AXIS2_PLACEMENT_3D('',#1800,#1491,#1492);
#1266=AXIS2_PLACEMENT_3D('',#1809,#1497,#1498);
#1267=AXIS2_PLACEMENT_3D('',#1815,#1502,#1503);
#1268=AXIS2_PLACEMENT_3D('',#1821,#1507,#1508);
#1269=AXIS2_PLACEMENT_3D('',#1824,#1511,#1512);
#1270=AXIS2_PLACEMENT_3D('',#1833,#1517,#1518);
#1271=AXIS2_PLACEMENT_3D('',#1839,#1522,#1523);
#1272=AXIS2_PLACEMENT_3D('',#1845,#1527,#1528);
#1273=AXIS2_PLACEMENT_3D('',#1848,#1531,#1532);
#1274=AXIS2_PLACEMENT_3D('',#1857,#1537,#1538);
#1275=AXIS2_PLACEMENT_3D('',#1863,#1542,#1543);
#1276=AXIS2_PLACEMENT_3D('',#1869,#1547,#1548);
#1277=AXIS2_PLACEMENT_3D('',#1872,#1551,#1552);
#1278=AXIS2_PLACEMENT_3D('',#1881,#1557,#1558);
#1279=AXIS2_PLACEMENT_3D('',#1887,#1562,#1563);
#1280=AXIS2_PLACEMENT_3D('',#1893,#1567,#1568);
#1281=AXIS2_PLACEMENT_3D('',#1896,#1571,#1572);
#1282=AXIS2_PLACEMENT_3D('',#1897,#1573,#1574);
#1283=AXIS2_PLACEMENT_3D('',#1898,#1575,#1576);
#1284=AXIS2_PLACEMENT_3D('',#1899,#1577,#1578);
#1285=DIRECTION('axis',(0.,0.,1.));
#1286=DIRECTION('refdir',(1.,0.,0.));
#1287=DIRECTION('axis',(0.,0.,1.));
#1288=DIRECTION('refdir',(1.,0.,0.));
#1289=DIRECTION('center_axis',(1.,0.,0.));
#1290=DIRECTION('ref_axis',(0.,0.,1.));
#1291=DIRECTION('',(0.,0.,1.));
#1292=DIRECTION('',(0.,-1.,0.));
#1293=DIRECTION('',(0.,0.,-1.));
#1294=DIRECTION('',(0.,-1.,0.));
#1295=DIRECTION('center_axis',(-1.,0.,0.));
#1296=DIRECTION('ref_axis',(0.,0.,-1.));
#1297=DIRECTION('',(0.,0.,-1.));
#1298=DIRECTION('',(0.,-1.,0.));
#1299=DIRECTION('',(0.,0.,1.));
#1300=DIRECTION('',(0.,-1.,0.));
#1301=DIRECTION('center_axis',(0.,0.,1.));
#1302=DIRECTION('ref_axis',(-1.,0.,0.));
#1303=DIRECTION('',(-1.,0.,0.));
#1304=DIRECTION('',(1.,0.,0.));
#1305=DIRECTION('center_axis',(0.,-1.,0.));
#1306=DIRECTION('ref_axis',(1.,0.,0.));
#1307=DIRECTION('',(1.,0.,0.));
#1308=DIRECTION('',(0.,0.,1.));
#1309=DIRECTION('',(1.,0.,0.));
#1310=DIRECTION('',(0.,0.,1.));
#1311=DIRECTION('',(1.,0.,0.));
#1312=DIRECTION('center_axis',(0.,0.,1.));
#1313=DIRECTION('ref_axis',(1.,0.,0.));
#1314=DIRECTION('',(-1.,0.,0.));
#1315=DIRECTION('',(0.,-1.,0.));
#1316=DIRECTION('',(1.,0.,0.));
#1317=DIRECTION('',(0.,1.,0.));
#1318=DIRECTION('center_axis',(-1.,0.,0.));
#1319=DIRECTION('ref_axis',(0.,-1.,0.));
#1320=DIRECTION('',(0.,0.,1.));
#1321=DIRECTION('',(0.,-1.,0.));
#1322=DIRECTION('center_axis',(0.,0.,1.));
#1323=DIRECTION('ref_axis',(1.,0.,0.));
#1324=DIRECTION('center_axis',(0.,0.,-1.));
#1325=DIRECTION('ref_axis',(1.,0.,0.));
#1326=DIRECTION('',(0.,0.,-1.));
#1327=DIRECTION('center_axis',(0.,0.,-1.));
#1328=DIRECTION('ref_axis',(1.,0.,0.));
#1329=DIRECTION('center_axis',(0.,0.,1.));
#1330=DIRECTION('ref_axis',(1.,0.,0.));
#1331=DIRECTION('center_axis',(0.,0.,-1.));
#1332=DIRECTION('ref_axis',(1.,0.,0.));
#1333=DIRECTION('',(0.,0.,-1.));
#1334=DIRECTION('center_axis',(0.,0.,-1.));
#1335=DIRECTION('ref_axis',(1.,0.,0.));
#1336=DIRECTION('center_axis',(1.,0.,0.));
#1337=DIRECTION('ref_axis',(0.,1.,0.));
#1338=DIRECTION('',(0.,1.,0.));
#1339=DIRECTION('',(0.,0.,1.));
#1340=DIRECTION('center_axis',(0.,1.,0.));
#1341=DIRECTION('ref_axis',(-1.,0.,0.));
#1342=DIRECTION('',(-1.,0.,0.));
#1343=DIRECTION('center_axis',(0.,0.,1.));
#1344=DIRECTION('ref_axis',(1.,0.,0.));
#1345=DIRECTION('center_axis',(0.,0.,-1.));
#1346=DIRECTION('ref_axis',(1.,0.,0.));
#1347=DIRECTION('',(0.,0.,-1.));
#1348=DIRECTION('center_axis',(0.,0.,-1.));
#1349=DIRECTION('ref_axis',(1.,0.,0.));
#1350=DIRECTION('center_axis',(0.,0.,1.));
#1351=DIRECTION('ref_axis',(1.,0.,0.));
#1352=DIRECTION('center_axis',(0.,0.,-1.));
#1353=DIRECTION('ref_axis',(1.,0.,0.));
#1354=DIRECTION('',(0.,0.,-1.));
#1355=DIRECTION('center_axis',(0.,0.,-1.));
#1356=DIRECTION('ref_axis',(1.,0.,0.));
#1357=DIRECTION('center_axis',(-1.,0.,0.));
#1358=DIRECTION('ref_axis',(0.,-1.,0.));
#1359=DIRECTION('',(0.,1.,0.));
#1360=DIRECTION('',(0.,0.,1.));
#1361=DIRECTION('',(0.,-1.,0.));
#1362=DIRECTION('',(0.,0.,1.));
#1363=DIRECTION('center_axis',(0.,1.,0.));
#1364=DIRECTION('ref_axis',(-1.,0.,0.));
#1365=DIRECTION('',(1.,0.,0.));
#1366=DIRECTION('',(-1.,0.,0.));
#1367=DIRECTION('',(0.,0.,1.));
#1368=DIRECTION('center_axis',(1.,0.,0.));
#1369=DIRECTION('ref_axis',(0.,1.,0.));
#1370=DIRECTION('',(0.,-1.,0.));
#1371=DIRECTION('',(0.,1.,0.));
#1372=DIRECTION('',(0.,0.,1.));
#1373=DIRECTION('center_axis',(0.,-1.,0.));
#1374=DIRECTION('ref_axis',(1.,0.,0.));
#1375=DIRECTION('',(-1.,0.,0.));
#1376=DIRECTION('',(1.,0.,0.));
#1377=DIRECTION('center_axis',(0.,0.,1.));
#1378=DIRECTION('ref_axis',(1.,0.,0.));
#1379=DIRECTION('center_axis',(0.,0.,1.));
#1380=DIRECTION('ref_axis',(1.,0.,0.));
#1381=DIRECTION('axis',(0.,0.,1.));
#1382=DIRECTION('refdir',(1.,0.,0.));
#1383=DIRECTION('center_axis',(0.,0.,-1.));
#1384=DIRECTION('ref_axis',(-1.,0.,0.));
#1385=DIRECTION('center_axis',(0.,0.,-1.));
#1386=DIRECTION('ref_axis',(-1.,0.,0.));
#1387=DIRECTION('',(0.,0.,-1.));
#1388=DIRECTION('center_axis',(0.,0.,1.));
#1389=DIRECTION('ref_axis',(-1.,0.,0.));
#1390=DIRECTION('center_axis',(0.,0.,-1.));
#1391=DIRECTION('ref_axis',(-1.,0.,0.));
#1392=DIRECTION('center_axis',(0.,0.,-1.));
#1393=DIRECTION('ref_axis',(-1.,0.,0.));
#1394=DIRECTION('',(0.,0.,-1.));
#1395=DIRECTION('center_axis',(0.,0.,1.));
#1396=DIRECTION('ref_axis',(-1.,0.,0.));
#1397=DIRECTION('center_axis',(0.,0.,-1.));
#1398=DIRECTION('ref_axis',(-1.,0.,0.));
#1399=DIRECTION('center_axis',(0.,0.,-1.));
#1400=DIRECTION('ref_axis',(-1.,0.,0.));
#1401=DIRECTION('',(0.,0.,-1.));
#1402=DIRECTION('center_axis',(0.,0.,1.));
#1403=DIRECTION('ref_axis',(-1.,0.,0.));
#1404=DIRECTION('center_axis',(0.,0.,-1.));
#1405=DIRECTION('ref_axis',(-1.,0.,0.));
#1406=DIRECTION('center_axis',(0.,0.,-1.));
#1407=DIRECTION('ref_axis',(-1.,0.,0.));
#1408=DIRECTION('',(0.,0.,-1.));
#1409=DIRECTION('center_axis',(0.,0.,1.));
#1410=DIRECTION('ref_axis',(-1.,0.,0.));
#1411=DIRECTION('center_axis',(-1.,0.,0.));
#1412=DIRECTION('ref_axis',(0.,1.,0.));
#1413=DIRECTION('',(0.,1.,0.));
#1414=DIRECTION('',(0.,0.,-1.));
#1415=DIRECTION('',(0.,-1.,0.));
#1416=DIRECTION('',(0.,0.,-1.));
#1417=DIRECTION('center_axis',(0.,-1.,0.));
#1418=DIRECTION('ref_axis',(-1.,0.,0.));
#1419=DIRECTION('',(-1.,0.,0.));
#1420=DIRECTION('',(0.,0.,-1.));
#1421=DIRECTION('',(1.,0.,0.));
#1422=DIRECTION('center_axis',(1.,0.,0.));
#1423=DIRECTION('ref_axis',(0.,-1.,0.));
#1424=DIRECTION('',(0.,-1.,0.));
#1425=DIRECTION('',(0.,0.,-1.));
#1426=DIRECTION('',(0.,1.,0.));
#1427=DIRECTION('center_axis',(0.,1.,0.));
#1428=DIRECTION('ref_axis',(1.,0.,0.));
#1429=DIRECTION('',(1.,0.,0.));
#1430=DIRECTION('',(-1.,0.,0.));
#1431=DIRECTION('center_axis',(-1.,0.,0.));
#1432=DIRECTION('ref_axis',(0.,1.,0.));
#1433=DIRECTION('',(0.,1.,0.));
#1434=DIRECTION('',(0.,0.,-1.));
#1435=DIRECTION('',(0.,-1.,0.));
#1436=DIRECTION('',(0.,0.,-1.));
#1437=DIRECTION('center_axis',(0.,-1.,0.));
#1438=DIRECTION('ref_axis',(-1.,0.,0.));
#1439=DIRECTION('',(-1.,0.,0.));
#1440=DIRECTION('',(0.,0.,-1.));
#1441=DIRECTION('',(1.,0.,0.));
#1442=DIRECTION('center_axis',(1.,0.,0.));
#1443=DIRECTION('ref_axis',(0.,-1.,0.));
#1444=DIRECTION('',(0.,-1.,0.));
#1445=DIRECTION('',(0.,0.,-1.));
#1446=DIRECTION('',(0.,1.,0.));
#1447=DIRECTION('center_axis',(0.,1.,0.));
#1448=DIRECTION('ref_axis',(1.,0.,0.));
#1449=DIRECTION('',(1.,0.,0.));
#1450=DIRECTION('',(-1.,0.,0.));
#1451=DIRECTION('center_axis',(-1.,0.,0.));
#1452=DIRECTION('ref_axis',(0.,1.,0.));
#1453=DIRECTION('',(0.,1.,0.));
#1454=DIRECTION('',(0.,0.,-1.));
#1455=DIRECTION('',(0.,-1.,0.));
#1456=DIRECTION('',(0.,0.,-1.));
#1457=DIRECTION('center_axis',(0.,-1.,0.));
#1458=DIRECTION('ref_axis',(-1.,0.,0.));
#1459=DIRECTION('',(-1.,0.,0.));
#1460=DIRECTION('',(0.,0.,-1.));
#1461=DIRECTION('',(1.,0.,0.));
#1462=DIRECTION('center_axis',(1.,0.,0.));
#1463=DIRECTION('ref_axis',(0.,-1.,0.));
#1464=DIRECTION('',(0.,-1.,0.));
#1465=DIRECTION('',(0.,0.,-1.));
#1466=DIRECTION('',(0.,1.,0.));
#1467=DIRECTION('center_axis',(0.,1.,0.));
#1468=DIRECTION('ref_axis',(1.,0.,0.));
#1469=DIRECTION('',(1.,0.,0.));
#1470=DIRECTION('',(-1.,0.,0.));
#1471=DIRECTION('center_axis',(-1.,0.,0.));
#1472=DIRECTION('ref_axis',(0.,1.,0.));
#1473=DIRECTION('',(0.,1.,0.));
#1474=DIRECTION('',(0.,0.,-1.));
#1475=DIRECTION('',(0.,-1.,0.));
#1476=DIRECTION('',(0.,0.,-1.));
#1477=DIRECTION('center_axis',(0.,-1.,0.));
#1478=DIRECTION('ref_axis',(-1.,0.,0.));
#1479=DIRECTION('',(-1.,0.,0.));
#1480=DIRECTION('',(0.,0.,-1.));
#1481=DIRECTION('',(1.,0.,0.));
#1482=DIRECTION('center_axis',(1.,0.,0.));
#1483=DIRECTION('ref_axis',(0.,-1.,0.));
#1484=DIRECTION('',(0.,-1.,0.));
#1485=DIRECTION('',(0.,0.,-1.));
#1486=DIRECTION('',(0.,1.,0.));
#1487=DIRECTION('center_axis',(0.,1.,0.));
#1488=DIRECTION('ref_axis',(1.,0.,0.));
#1489=DIRECTION('',(1.,0.,0.));
#1490=DIRECTION('',(-1.,0.,0.));
#1491=DIRECTION('center_axis',(-1.,0.,0.));
#1492=DIRECTION('ref_axis',(0.,1.,0.));
#1493=DIRECTION('',(0.,1.,0.));
#1494=DIRECTION('',(0.,0.,-1.));
#1495=DIRECTION('',(0.,-1.,0.));
#1496=DIRECTION('',(0.,0.,-1.));
#1497=DIRECTION('center_axis',(0.,-1.,0.));
#1498=DIRECTION('ref_axis',(-1.,0.,0.));
#1499=DIRECTION('',(-1.,0.,0.));
#1500=DIRECTION('',(0.,0.,-1.));
#1501=DIRECTION('',(1.,0.,0.));
#1502=DIRECTION('center_axis',(1.,0.,0.));
#1503=DIRECTION('ref_axis',(0.,-1.,0.));
#1504=DIRECTION('',(0.,-1.,0.));
#1505=DIRECTION('',(0.,0.,-1.));
#1506=DIRECTION('',(0.,1.,0.));
#1507=DIRECTION('center_axis',(0.,1.,0.));
#1508=DIRECTION('ref_axis',(1.,0.,0.));
#1509=DIRECTION('',(1.,0.,0.));
#1510=DIRECTION('',(-1.,0.,0.));
#1511=DIRECTION('center_axis',(-1.,0.,0.));
#1512=DIRECTION('ref_axis',(0.,1.,0.));
#1513=DIRECTION('',(0.,1.,0.));
#1514=DIRECTION('',(0.,0.,-1.));
#1515=DIRECTION('',(0.,-1.,0.));
#1516=DIRECTION('',(0.,0.,-1.));
#1517=DIRECTION('center_axis',(0.,-1.,0.));
#1518=DIRECTION('ref_axis',(-1.,0.,0.));
#1519=DIRECTION('',(-1.,0.,0.));
#1520=DIRECTION('',(0.,0.,-1.));
#1521=DIRECTION('',(1.,0.,0.));
#1522=DIRECTION('center_axis',(1.,0.,0.));
#1523=DIRECTION('ref_axis',(0.,-1.,0.));
#1524=DIRECTION('',(0.,-1.,0.));
#1525=DIRECTION('',(0.,0.,-1.));
#1526=DIRECTION('',(0.,1.,0.));
#1527=DIRECTION('center_axis',(0.,1.,0.));
#1528=DIRECTION('ref_axis',(1.,0.,0.));
#1529=DIRECTION('',(1.,0.,0.));
#1530=DIRECTION('',(-1.,0.,0.));
#1531=DIRECTION('center_axis',(-1.,0.,0.));
#1532=DIRECTION('ref_axis',(0.,1.,0.));
#1533=DIRECTION('',(0.,1.,0.));
#1534=DIRECTION('',(0.,0.,-1.));
#1535=DIRECTION('',(0.,-1.,0.));
#1536=DIRECTION('',(0.,0.,-1.));
#1537=DIRECTION('center_axis',(0.,-1.,0.));
#1538=DIRECTION('ref_axis',(-1.,0.,0.));
#1539=DIRECTION('',(-1.,0.,0.));
#1540=DIRECTION('',(0.,0.,-1.));
#1541=DIRECTION('',(1.,0.,0.));
#1542=DIRECTION('center_axis',(1.,0.,0.));
#1543=DIRECTION('ref_axis',(0.,-1.,0.));
#1544=DIRECTION('',(0.,-1.,0.));
#1545=DIRECTION('',(0.,0.,-1.));
#1546=DIRECTION('',(0.,1.,0.));
#1547=DIRECTION('center_axis',(0.,1.,0.));
#1548=DIRECTION('ref_axis',(1.,0.,0.));
#1549=DIRECTION('',(1.,0.,0.));
#1550=DIRECTION('',(-1.,0.,0.));
#1551=DIRECTION('center_axis',(-1.,0.,0.));
#1552=DIRECTION('ref_axis',(0.,-1.,0.));
#1553=DIRECTION('',(0.,1.,0.));
#1554=DIRECTION('',(0.,0.,1.));
#1555=DIRECTION('',(0.,-1.,0.));
#1556=DIRECTION('',(0.,0.,1.));
#1557=DIRECTION('center_axis',(0.,1.,0.));
#1558=DIRECTION('ref_axis',(-1.,0.,0.));
#1559=DIRECTION('',(1.,0.,0.));
#1560=DIRECTION('',(-1.,0.,0.));
#1561=DIRECTION('',(0.,0.,1.));
#1562=DIRECTION('center_axis',(1.,0.,0.));
#1563=DIRECTION('ref_axis',(0.,1.,0.));
#1564=DIRECTION('',(0.,-1.,0.));
#1565=DIRECTION('',(0.,1.,0.));
#1566=DIRECTION('',(0.,0.,1.));
#1567=DIRECTION('center_axis',(0.,-1.,0.));
#1568=DIRECTION('ref_axis',(1.,0.,0.));
#1569=DIRECTION('',(-1.,0.,0.));
#1570=DIRECTION('',(1.,0.,0.));
#1571=DIRECTION('center_axis',(0.,0.,1.));
#1572=DIRECTION('ref_axis',(1.,0.,0.));
#1573=DIRECTION('center_axis',(0.,0.,1.));
#1574=DIRECTION('ref_axis',(1.,0.,0.));
#1575=DIRECTION('',(0.,0.,1.));
#1576=DIRECTION('',(1.,0.,0.));
#1577=DIRECTION('',(0.,0.,1.));
#1578=DIRECTION('',(1.,0.,0.));
#1579=CARTESIAN_POINT('',(0.,0.,0.));
#1580=CARTESIAN_POINT('',(0.,0.,0.));
#1581=CARTESIAN_POINT('Origin',(15.0000002235174,20.0000002980232,3.0000000447035));
#1582=CARTESIAN_POINT('',(15.0000002235174,20.0000002980232,3.0000000447035));
#1583=CARTESIAN_POINT('',(15.0000002235174,20.0000002980232,7.00000010430813));
#1584=CARTESIAN_POINT('',(15.0000002235174,20.0000002980232,1.50000002235175));
#1585=CARTESIAN_POINT('',(15.0000002235174,10.0000002980232,3.0000000447035));
#1586=CARTESIAN_POINT('',(15.0000002235174,20.0000002980232,3.0000000447035));
#1587=CARTESIAN_POINT('',(15.0000002235174,10.0000002980232,7.00000010430813));
#1588=CARTESIAN_POINT('',(15.0000002235174,10.0000001490116,1.50000002235175));
#1589=CARTESIAN_POINT('',(15.0000002235174,20.0000002980232,7.00000010430813));
#1590=CARTESIAN_POINT('Origin',(5.00000007450581,20.0000002980232,7.00000010430813));
#1591=CARTESIAN_POINT('',(5.00000007450581,20.0000002980232,7.00000010430813));
#1592=CARTESIAN_POINT('',(5.00000007450581,20.0000002980232,3.0000000447035));
#1593=CARTESIAN_POINT('',(5.00000007450581,20.0000002980232,3.50000005215406));
#1594=CARTESIAN_POINT('',(5.00000007450581,10.0000002980232,7.00000010430813));
#1595=CARTESIAN_POINT('',(5.00000007450581,20.0000002980232,7.00000010430813));
#1596=CARTESIAN_POINT('',(5.00000007450581,10.0000002980232,3.0000000447035));
#1597=CARTESIAN_POINT('',(5.00000007450581,10.0000001490116,3.50000005215406));
#1598=CARTESIAN_POINT('',(5.00000007450581,20.0000002980232,3.0000000447035));
#1599=CARTESIAN_POINT('Origin',(15.0000002235174,20.0000002980232,7.00000010430813));
#1600=CARTESIAN_POINT('',(42.6999999627471,20.0000002980232,7.00000010430813));
#1601=CARTESIAN_POINT('',(2.5000000372529,10.0000001490116,7.00000010430813));
#1602=CARTESIAN_POINT('Origin',(-10.0000001490116,10.0000001490116,0.));
#1603=CARTESIAN_POINT('',(60.3999998509884,10.0000001490116,3.));
#1604=CARTESIAN_POINT('',(7.59999985098839,10.0000001490116,3.));
#1605=CARTESIAN_POINT('',(60.3999998509884,10.0000001490116,13.));
#1606=CARTESIAN_POINT('',(60.3999998509884,10.0000001490116,0.));
#1607=CARTESIAN_POINT('',(-10.0000001490116,10.0000001490116,13.));
#1608=CARTESIAN_POINT('',(-10.0000001490116,10.0000001490116,13.));
#1609=CARTESIAN_POINT('',(-10.0000001490116,10.0000001490116,3.));
#1610=CARTESIAN_POINT('',(-10.0000001490116,10.0000001490116,0.));
#1611=CARTESIAN_POINT('',(7.59999985098839,10.0000001490116,3.));
#1612=CARTESIAN_POINT('Origin',(25.1999998509884,-24.9499998509884,3.));
#1613=CARTESIAN_POINT('',(60.3999998509884,-59.8999998509884,3.));
#1614=CARTESIAN_POINT('',(-10.0000001490116,-59.8999998509884,3.));
#1615=CARTESIAN_POINT('',(42.7999998509884,-59.8999998509884,3.));
#1616=CARTESIAN_POINT('',(60.3999998509884,-7.47499985098839,3.));
#1617=CARTESIAN_POINT('',(37.6999998882413,20.0000002980232,3.0000000447035));
#1618=CARTESIAN_POINT('',(-10.0000001490116,-42.4249998509884,3.));
#1619=CARTESIAN_POINT('Origin',(60.3999998509884,10.0000001490116,0.));
#1620=CARTESIAN_POINT('',(60.3999998509884,-59.8999998509884,13.));
#1621=CARTESIAN_POINT('',(60.3999998509884,-59.8999998509884,0.));
#1622=CARTESIAN_POINT('',(60.3999998509884,10.0000001490116,13.));
#1623=CARTESIAN_POINT('Origin',(65.0000009685755,-65.0000009685755,0.));
#1624=CARTESIAN_POINT('',(63.5500009685755,-65.0000009685755,13.));
#1625=CARTESIAN_POINT('Origin',(65.0000009685755,-65.0000009685755,13.));
#1626=CARTESIAN_POINT('',(63.5500009685755,-65.0000009685755,0.));
#1627=CARTESIAN_POINT('',(63.5500009685755,-65.0000009685755,0.));
#1628=CARTESIAN_POINT('Origin',(65.0000009685755,-65.0000009685755,0.));
#1629=CARTESIAN_POINT('Origin',(-15.0000002235174,-65.0000009685755,0.));
#1630=CARTESIAN_POINT('',(-16.4500002235174,-65.0000009685755,13.));
#1631=CARTESIAN_POINT('Origin',(-15.0000002235174,-65.0000009685755,13.));
#1632=CARTESIAN_POINT('',(-16.4500002235174,-65.0000009685755,0.));
#1633=CARTESIAN_POINT('',(-16.4500002235174,-65.0000009685755,0.));
#1634=CARTESIAN_POINT('Origin',(-15.0000002235174,-65.0000009685755,0.));
#1635=CARTESIAN_POINT('Origin',(-10.0000001490116,-59.8999998509884,0.));
#1636=CARTESIAN_POINT('',(-10.0000001490116,-59.8999998509884,13.));
#1637=CARTESIAN_POINT('',(-10.0000001490116,-59.8999998509884,13.));
#1638=CARTESIAN_POINT('',(-10.0000001490116,-59.8999998509884,0.));
#1639=CARTESIAN_POINT('Origin',(60.3999998509884,-59.8999998509884,0.));
#1640=CARTESIAN_POINT('',(60.3999998509884,-59.8999998509884,13.));
#1641=CARTESIAN_POINT('Origin',(-15.0000002235174,15.0000002235174,0.));
#1642=CARTESIAN_POINT('',(-16.4500002235174,15.0000002235174,13.));
#1643=CARTESIAN_POINT('Origin',(-15.0000002235174,15.0000002235174,13.));
#1644=CARTESIAN_POINT('',(-16.4500002235174,15.0000002235174,0.));
#1645=CARTESIAN_POINT('',(-16.4500002235174,15.0000002235174,0.));
#1646=CARTESIAN_POINT('Origin',(-15.0000002235174,15.0000002235174,0.));
#1647=CARTESIAN_POINT('Origin',(65.0000009685755,15.0000002235174,0.));
#1648=CARTESIAN_POINT('',(63.5500009685755,15.0000002235174,13.));
#1649=CARTESIAN_POINT('Origin',(65.0000009685755,15.0000002235174,13.));
#1650=CARTESIAN_POINT('',(63.5500009685755,15.0000002235174,0.));
#1651=CARTESIAN_POINT('',(63.5500009685755,15.0000002235174,0.));
#1652=CARTESIAN_POINT('Origin',(65.0000009685755,15.0000002235174,0.));
#1653=CARTESIAN_POINT('Origin',(-20.0000002980232,20.0000002980232,0.));
#1654=CARTESIAN_POINT('',(-20.0000002980232,-69.8999997019768,0.));
#1655=CARTESIAN_POINT('',(-20.0000002980232,20.0000002980232,0.));
#1656=CARTESIAN_POINT('',(-20.0000002980232,-69.8999997019768,0.));
#1657=CARTESIAN_POINT('',(-20.0000002980232,-69.8999997019768,13.));
#1658=CARTESIAN_POINT('',(-20.0000002980232,-69.8999997019768,0.));
#1659=CARTESIAN_POINT('',(-20.0000002980232,20.0000002980232,13.));
#1660=CARTESIAN_POINT('',(-20.0000002980232,-69.8999997019768,13.));
#1661=CARTESIAN_POINT('',(-20.0000002980232,20.0000002980232,0.));
#1662=CARTESIAN_POINT('Origin',(70.3999997019768,20.0000002980232,0.));
#1663=CARTESIAN_POINT('',(70.3999997019768,20.0000002980232,0.));
#1664=CARTESIAN_POINT('',(-20.0000002980232,20.0000002980232,0.));
#1665=CARTESIAN_POINT('',(70.3999997019768,20.0000002980232,13.));
#1666=CARTESIAN_POINT('',(-20.0000002980232,20.0000002980232,13.));
#1667=CARTESIAN_POINT('',(70.3999997019768,20.0000002980232,0.));
#1668=CARTESIAN_POINT('Origin',(70.3999997019768,-69.8999997019768,0.));
#1669=CARTESIAN_POINT('',(70.3999997019768,-69.8999997019768,0.));
#1670=CARTESIAN_POINT('',(70.3999997019768,20.0000002980232,0.));
#1671=CARTESIAN_POINT('',(70.3999997019768,-69.8999997019768,13.));
#1672=CARTESIAN_POINT('',(70.3999997019768,20.0000002980232,13.));
#1673=CARTESIAN_POINT('',(70.3999997019768,-69.8999997019768,0.));
#1674=CARTESIAN_POINT('Origin',(-20.0000002980232,-69.8999997019768,0.));
#1675=CARTESIAN_POINT('',(70.3999997019768,-69.8999997019768,0.));
#1676=CARTESIAN_POINT('',(70.3999997019768,-69.8999997019768,13.));
#1677=CARTESIAN_POINT('Origin',(25.1999997019768,-24.9499997019768,13.));
#1678=CARTESIAN_POINT('Origin',(25.1999997019768,-24.9499997019768,0.));
#1679=CARTESIAN_POINT('',(0.,0.,0.));
#1680=CARTESIAN_POINT('Origin',(65.0000009685755,-60.0000008940697,3.));
#1681=CARTESIAN_POINT('',(66.4500009685755,-60.0000008940697,3.));
#1682=CARTESIAN_POINT('Origin',(65.0000009685755,-60.0000008940697,3.));
#1683=CARTESIAN_POINT('',(66.4500009685755,-60.0000008940697,0.));
#1684=CARTESIAN_POINT('',(66.4500009685755,-60.0000008940697,3.));
#1685=CARTESIAN_POINT('Origin',(65.0000009685755,-60.0000008940697,0.));
#1686=CARTESIAN_POINT('Origin',(-15.0000002235174,-60.0000008940697,3.));
#1687=CARTESIAN_POINT('',(-13.5500002235174,-60.0000008940697,3.));
#1688=CARTESIAN_POINT('Origin',(-15.0000002235174,-60.0000008940697,3.));
#1689=CARTESIAN_POINT('',(-13.5500002235174,-60.0000008940697,0.));
#1690=CARTESIAN_POINT('',(-13.5500002235174,-60.0000008940697,3.));
#1691=CARTESIAN_POINT('Origin',(-15.0000002235174,-60.0000008940697,0.));
#1692=CARTESIAN_POINT('Origin',(65.0000009685755,20.0000002980232,3.));
#1693=CARTESIAN_POINT('',(66.4500009685755,20.0000002980232,3.));
#1694=CARTESIAN_POINT('Origin',(65.0000009685755,20.0000002980232,3.));
#1695=CARTESIAN_POINT('',(66.4500009685755,20.0000002980232,0.));
#1696=CARTESIAN_POINT('',(66.4500009685755,20.0000002980232,3.));
#1697=CARTESIAN_POINT('Origin',(65.0000009685755,20.0000002980232,0.));
#1698=CARTESIAN_POINT('Origin',(-15.0000002235174,20.0000002980232,3.));
#1699=CARTESIAN_POINT('',(-13.5500002235174,20.0000002980232,3.));
#1700=CARTESIAN_POINT('Origin',(-15.0000002235174,20.0000002980232,3.));
#1701=CARTESIAN_POINT('',(-13.5500002235174,20.0000002980232,0.));
#1702=CARTESIAN_POINT('',(-13.5500002235174,20.0000002980232,3.));
#1703=CARTESIAN_POINT('Origin',(-15.0000002235174,20.0000002980232,0.));
#1704=CARTESIAN_POINT('Origin',(-8.50000078901649,-0.950000413227826,3.));
#1705=CARTESIAN_POINT('',(-8.50000078901649,-0.950000413227826,3.));
#1706=CARTESIAN_POINT('',(-8.50000078901649,14.2499995867722,3.));
#1707=CARTESIAN_POINT('',(-8.50000078901649,-10.3500000203494,3.));
#1708=CARTESIAN_POINT('',(-8.50000078901649,-0.950000413227827,0.));
#1709=CARTESIAN_POINT('',(-8.50000078901649,-0.950000413227826,3.));
#1710=CARTESIAN_POINT('',(-8.50000078901649,14.2499995867722,0.));
#1711=CARTESIAN_POINT('',(-8.50000078901649,-10.3500000203494,0.));
#1712=CARTESIAN_POINT('',(-8.50000078901649,14.2499995867722,3.));
#1713=CARTESIAN_POINT('Origin',(29.6999992109835,-0.950000413227826,3.));
#1714=CARTESIAN_POINT('',(29.6999992109835,-0.950000413227827,3.));
#1715=CARTESIAN_POINT('',(27.4499994564801,-0.950000413227827,3.));
#1716=CARTESIAN_POINT('',(29.6999992109835,-0.950000413227827,0.));
#1717=CARTESIAN_POINT('',(29.6999992109835,-0.950000413227827,3.));
#1718=CARTESIAN_POINT('',(27.4499994564801,-0.950000413227827,0.));
#1719=CARTESIAN_POINT('Origin',(29.6999992109835,14.2499995867722,3.));
#1720=CARTESIAN_POINT('',(29.6999992109835,14.2499995867722,3.));
#1721=CARTESIAN_POINT('',(29.6999992109835,-2.7500000203494,3.));
#1722=CARTESIAN_POINT('',(29.6999992109835,14.2499995867722,0.));
#1723=CARTESIAN_POINT('',(29.6999992109835,14.2499995867722,3.));
#1724=CARTESIAN_POINT('',(29.6999992109835,-2.7500000203494,0.));
#1725=CARTESIAN_POINT('Origin',(-8.50000078901649,14.2499995867722,3.));
#1726=CARTESIAN_POINT('',(8.34999945648015,14.2499995867722,3.));
#1727=CARTESIAN_POINT('',(8.34999945648015,14.2499995867722,0.));
#1728=CARTESIAN_POINT('Origin',(35.2967197262972,-2.69999962747098,3.));
#1729=CARTESIAN_POINT('',(35.2967197262972,-2.69999962747098,3.));
#1730=CARTESIAN_POINT('',(35.2967197262972,11.700000372529,3.));
#1731=CARTESIAN_POINT('',(35.2967197262972,-11.224999627471,3.));
#1732=CARTESIAN_POINT('',(35.2967197262972,-2.69999962747098,0.));
#1733=CARTESIAN_POINT('',(35.2967197262972,-2.69999962747098,3.));
#1734=CARTESIAN_POINT('',(35.2967197262972,11.700000372529,0.));
#1735=CARTESIAN_POINT('',(35.2967197262972,-11.224999627471,0.));
#1736=CARTESIAN_POINT('',(35.2967197262972,11.700000372529,3.));
#1737=CARTESIAN_POINT('Origin',(53.1967197262972,-2.69999962747098,3.));
#1738=CARTESIAN_POINT('',(53.1967197262972,-2.69999962747098,3.));
#1739=CARTESIAN_POINT('',(39.198359714137,-2.69999962747098,3.));
#1740=CARTESIAN_POINT('',(53.1967197262972,-2.69999962747098,0.));
#1741=CARTESIAN_POINT('',(53.1967197262972,-2.69999962747098,3.));
#1742=CARTESIAN_POINT('',(39.198359714137,-2.69999962747098,0.));
#1743=CARTESIAN_POINT('Origin',(53.1967197262972,11.700000372529,3.));
#1744=CARTESIAN_POINT('',(53.1967197262972,11.700000372529,3.));
#1745=CARTESIAN_POINT('',(53.1967197262972,-4.02499962747098,3.));
#1746=CARTESIAN_POINT('',(53.1967197262972,11.700000372529,0.));
#1747=CARTESIAN_POINT('',(53.1967197262972,11.700000372529,3.));
#1748=CARTESIAN_POINT('',(53.1967197262972,-4.02499962747098,0.));
#1749=CARTESIAN_POINT('Origin',(35.2967197262972,11.700000372529,3.));
#1750=CARTESIAN_POINT('',(30.248359714137,11.700000372529,3.));
#1751=CARTESIAN_POINT('',(30.248359714137,11.700000372529,0.));
#1752=CARTESIAN_POINT('Origin',(-7.79999949336052,-28.099999627471,3.));
#1753=CARTESIAN_POINT('',(-7.79999949336052,-28.099999627471,3.));
#1754=CARTESIAN_POINT('',(-7.79999949336052,-8.69999962747098,3.));
#1755=CARTESIAN_POINT('',(-7.79999949336052,-23.924999627471,3.));
#1756=CARTESIAN_POINT('',(-7.79999949336052,-28.099999627471,0.));
#1757=CARTESIAN_POINT('',(-7.79999949336052,-28.099999627471,3.));
#1758=CARTESIAN_POINT('',(-7.79999949336052,-8.69999962747098,0.));
#1759=CARTESIAN_POINT('',(-7.79999949336052,-23.924999627471,0.));
#1760=CARTESIAN_POINT('',(-7.79999949336052,-8.69999962747098,3.));
#1761=CARTESIAN_POINT('Origin',(11.6000005066395,-28.099999627471,3.));
#1762=CARTESIAN_POINT('',(11.6000005066395,-28.099999627471,3.));
#1763=CARTESIAN_POINT('',(18.4000001043081,-28.099999627471,3.));
#1764=CARTESIAN_POINT('',(11.6000005066395,-28.099999627471,0.));
#1765=CARTESIAN_POINT('',(11.6000005066395,-28.099999627471,3.));
#1766=CARTESIAN_POINT('',(18.4000001043081,-28.099999627471,0.));
#1767=CARTESIAN_POINT('Origin',(11.6000005066395,-8.69999962747098,3.));
#1768=CARTESIAN_POINT('',(11.6000005066395,-8.69999962747098,3.));
#1769=CARTESIAN_POINT('',(11.6000005066395,-14.224999627471,3.));
#1770=CARTESIAN_POINT('',(11.6000005066395,-8.69999962747098,0.));
#1771=CARTESIAN_POINT('',(11.6000005066395,-8.69999962747098,3.));
#1772=CARTESIAN_POINT('',(11.6000005066395,-14.224999627471,0.));
#1773=CARTESIAN_POINT('Origin',(-7.79999949336052,-8.69999962747098,3.));
#1774=CARTESIAN_POINT('',(8.70000010430813,-8.69999962747098,3.));
#1775=CARTESIAN_POINT('',(8.70000010430813,-8.69999962747098,0.));
#1776=CARTESIAN_POINT('Origin',(14.6000005066395,-28.099999627471,3.));
#1777=CARTESIAN_POINT('',(14.6000005066395,-28.099999627471,3.));
#1778=CARTESIAN_POINT('',(14.6000005066395,-8.69999962747098,3.));
#1779=CARTESIAN_POINT('',(14.6000005066395,-23.924999627471,3.));
#1780=CARTESIAN_POINT('',(14.6000005066395,-28.099999627471,0.));
#1781=CARTESIAN_POINT('',(14.6000005066395,-28.099999627471,3.));
#1782=CARTESIAN_POINT('',(14.6000005066395,-8.69999962747098,0.));
#1783=CARTESIAN_POINT('',(14.6000005066395,-23.924999627471,0.));
#1784=CARTESIAN_POINT('',(14.6000005066395,-8.69999962747098,3.));
#1785=CARTESIAN_POINT('Origin',(34.0000005066395,-28.099999627471,3.));
#1786=CARTESIAN_POINT('',(34.0000005066395,-28.099999627471,3.));
#1787=CARTESIAN_POINT('',(29.6000001043081,-28.099999627471,3.));
#1788=CARTESIAN_POINT('',(34.0000005066395,-28.099999627471,0.));
#1789=CARTESIAN_POINT('',(34.0000005066395,-28.099999627471,3.));
#1790=CARTESIAN_POINT('',(29.6000001043081,-28.099999627471,0.));
#1791=CARTESIAN_POINT('Origin',(34.0000005066395,-8.69999962747098,3.));
#1792=CARTESIAN_POINT('',(34.0000005066395,-8.69999962747098,3.));
#1793=CARTESIAN_POINT('',(34.0000005066395,-14.224999627471,3.));
#1794=CARTESIAN_POINT('',(34.0000005066395,-8.69999962747098,0.));
#1795=CARTESIAN_POINT('',(34.0000005066395,-8.69999962747098,3.));
#1796=CARTESIAN_POINT('',(34.0000005066395,-14.224999627471,0.));
#1797=CARTESIAN_POINT('Origin',(14.6000005066395,-8.69999962747098,3.));
#1798=CARTESIAN_POINT('',(19.9000001043081,-8.69999962747098,3.));
#1799=CARTESIAN_POINT('',(19.9000001043081,-8.69999962747098,0.));
#1800=CARTESIAN_POINT('Origin',(36.9999997019768,-28.099999627471,3.));
#1801=CARTESIAN_POINT('',(36.9999997019768,-28.099999627471,3.));
#1802=CARTESIAN_POINT('',(36.9999997019768,-8.69999962747098,3.));
#1803=CARTESIAN_POINT('',(36.9999997019768,-23.924999627471,3.));
#1804=CARTESIAN_POINT('',(36.9999997019768,-28.099999627471,0.));
#1805=CARTESIAN_POINT('',(36.9999997019768,-28.099999627471,3.));
#1806=CARTESIAN_POINT('',(36.9999997019768,-8.69999962747098,0.));
#1807=CARTESIAN_POINT('',(36.9999997019768,-23.924999627471,0.));
#1808=CARTESIAN_POINT('',(36.9999997019768,-8.69999962747098,3.));
#1809=CARTESIAN_POINT('Origin',(56.3999997019768,-28.099999627471,3.));
#1810=CARTESIAN_POINT('',(56.3999997019768,-28.099999627471,3.));
#1811=CARTESIAN_POINT('',(40.7999997019768,-28.099999627471,3.));
#1812=CARTESIAN_POINT('',(56.3999997019768,-28.099999627471,0.));
#1813=CARTESIAN_POINT('',(56.3999997019768,-28.099999627471,3.));
#1814=CARTESIAN_POINT('',(40.7999997019768,-28.099999627471,0.));
#1815=CARTESIAN_POINT('Origin',(56.3999997019768,-8.69999962747098,3.));
#1816=CARTESIAN_POINT('',(56.3999997019768,-8.69999962747098,3.));
#1817=CARTESIAN_POINT('',(56.3999997019768,-14.224999627471,3.));
#1818=CARTESIAN_POINT('',(56.3999997019768,-8.69999962747098,0.));
#1819=CARTESIAN_POINT('',(56.3999997019768,-8.69999962747098,3.));
#1820=CARTESIAN_POINT('',(56.3999997019768,-14.224999627471,0.));
#1821=CARTESIAN_POINT('Origin',(36.9999997019768,-8.69999962747098,3.));
#1822=CARTESIAN_POINT('',(31.0999997019768,-8.69999962747098,3.));
#1823=CARTESIAN_POINT('',(31.0999997019768,-8.69999962747098,0.));
#1824=CARTESIAN_POINT('Origin',(3.09999970197679,-49.499999627471,3.));
#1825=CARTESIAN_POINT('',(3.09999970197679,-49.499999627471,3.));
#1826=CARTESIAN_POINT('',(3.09999970197679,-30.099999627471,3.));
#1827=CARTESIAN_POINT('',(3.09999970197679,-34.624999627471,3.));
#1828=CARTESIAN_POINT('',(3.09999970197679,-49.499999627471,0.));
#1829=CARTESIAN_POINT('',(3.09999970197679,-49.499999627471,3.));
#1830=CARTESIAN_POINT('',(3.09999970197679,-30.099999627471,0.));
#1831=CARTESIAN_POINT('',(3.09999970197679,-34.624999627471,0.));
#1832=CARTESIAN_POINT('',(3.09999970197679,-30.099999627471,3.));
#1833=CARTESIAN_POINT('Origin',(22.4999997019768,-49.499999627471,3.));
#1834=CARTESIAN_POINT('',(22.4999997019768,-49.499999627471,3.));
#1835=CARTESIAN_POINT('',(23.8499997019768,-49.499999627471,3.));
#1836=CARTESIAN_POINT('',(22.4999997019768,-49.499999627471,0.));
#1837=CARTESIAN_POINT('',(22.4999997019768,-49.499999627471,3.));
#1838=CARTESIAN_POINT('',(23.8499997019768,-49.499999627471,0.));
#1839=CARTESIAN_POINT('Origin',(22.4999997019768,-30.099999627471,3.));
#1840=CARTESIAN_POINT('',(22.4999997019768,-30.099999627471,3.));
#1841=CARTESIAN_POINT('',(22.4999997019768,-24.924999627471,3.));
#1842=CARTESIAN_POINT('',(22.4999997019768,-30.099999627471,0.));
#1843=CARTESIAN_POINT('',(22.4999997019768,-30.099999627471,3.));
#1844=CARTESIAN_POINT('',(22.4999997019768,-24.924999627471,0.));
#1845=CARTESIAN_POINT('Origin',(3.09999970197679,-30.099999627471,3.));
#1846=CARTESIAN_POINT('',(14.1499997019768,-30.099999627471,3.));
#1847=CARTESIAN_POINT('',(14.1499997019768,-30.099999627471,0.));
#1848=CARTESIAN_POINT('Origin',(25.9999997019768,-49.499999627471,3.));
#1849=CARTESIAN_POINT('',(25.9999997019768,-49.499999627471,3.));
#1850=CARTESIAN_POINT('',(25.9999997019768,-30.099999627471,3.));
#1851=CARTESIAN_POINT('',(25.9999997019768,-34.624999627471,3.));
#1852=CARTESIAN_POINT('',(25.9999997019768,-49.499999627471,0.));
#1853=CARTESIAN_POINT('',(25.9999997019768,-49.499999627471,3.));
#1854=CARTESIAN_POINT('',(25.9999997019768,-30.099999627471,0.));
#1855=CARTESIAN_POINT('',(25.9999997019768,-34.624999627471,0.));
#1856=CARTESIAN_POINT('',(25.9999997019768,-30.099999627471,3.));
#1857=CARTESIAN_POINT('Origin',(45.3999997019768,-49.499999627471,3.));
#1858=CARTESIAN_POINT('',(45.3999997019768,-49.499999627471,3.));
#1859=CARTESIAN_POINT('',(35.2999997019768,-49.499999627471,3.));
#1860=CARTESIAN_POINT('',(45.3999997019768,-49.499999627471,0.));
#1861=CARTESIAN_POINT('',(45.3999997019768,-49.499999627471,3.));
#1862=CARTESIAN_POINT('',(35.2999997019768,-49.499999627471,0.));
#1863=CARTESIAN_POINT('Origin',(45.3999997019768,-30.099999627471,3.));
#1864=CARTESIAN_POINT('',(45.3999997019768,-30.099999627471,3.));
#1865=CARTESIAN_POINT('',(45.3999997019768,-24.924999627471,3.));
#1866=CARTESIAN_POINT('',(45.3999997019768,-30.099999627471,0.));
#1867=CARTESIAN_POINT('',(45.3999997019768,-30.099999627471,3.));
#1868=CARTESIAN_POINT('',(45.3999997019768,-24.924999627471,0.));
#1869=CARTESIAN_POINT('Origin',(25.9999997019768,-30.099999627471,3.));
#1870=CARTESIAN_POINT('',(25.5999997019768,-30.099999627471,3.));
#1871=CARTESIAN_POINT('',(25.5999997019768,-30.099999627471,0.));
#1872=CARTESIAN_POINT('Origin',(-20.0000002980232,25.000000372529,0.));
#1873=CARTESIAN_POINT('',(-20.0000002980232,-64.499999627471,0.));
#1874=CARTESIAN_POINT('',(-20.0000002980232,25.000000372529,0.));
#1875=CARTESIAN_POINT('',(-20.0000002980232,-64.499999627471,0.));
#1876=CARTESIAN_POINT('',(-20.0000002980232,-64.499999627471,3.));
#1877=CARTESIAN_POINT('',(-20.0000002980232,-64.499999627471,0.));
#1878=CARTESIAN_POINT('',(-20.0000002980232,25.000000372529,3.));
#1879=CARTESIAN_POINT('',(-20.0000002980232,-64.499999627471,3.));
#1880=CARTESIAN_POINT('',(-20.0000002980232,25.000000372529,0.));
#1881=CARTESIAN_POINT('Origin',(70.3999997019768,25.000000372529,0.));
#1882=CARTESIAN_POINT('',(70.3999997019768,25.000000372529,0.));
#1883=CARTESIAN_POINT('',(-20.0000002980232,25.000000372529,0.));
#1884=CARTESIAN_POINT('',(70.3999997019768,25.000000372529,3.));
#1885=CARTESIAN_POINT('',(-20.0000002980232,25.000000372529,3.));
#1886=CARTESIAN_POINT('',(70.3999997019768,25.000000372529,0.));
#1887=CARTESIAN_POINT('Origin',(70.3999997019768,-64.499999627471,0.));
#1888=CARTESIAN_POINT('',(70.3999997019768,-64.499999627471,0.));
#1889=CARTESIAN_POINT('',(70.3999997019768,25.000000372529,0.));
#1890=CARTESIAN_POINT('',(70.3999997019768,-64.499999627471,3.));
#1891=CARTESIAN_POINT('',(70.3999997019768,25.000000372529,3.));
#1892=CARTESIAN_POINT('',(70.3999997019768,-64.499999627471,0.));
#1893=CARTESIAN_POINT('Origin',(-20.0000002980232,-64.499999627471,0.));
#1894=CARTESIAN_POINT('',(70.3999997019768,-64.499999627471,0.));
#1895=CARTESIAN_POINT('',(70.3999997019768,-64.499999627471,3.));
#1896=CARTESIAN_POINT('Origin',(25.1999997019768,-19.749999627471,3.));
#1897=CARTESIAN_POINT('Origin',(25.1999997019768,-19.749999627471,0.));
#1898=CARTESIAN_POINT('',(0.,0.,0.));
#1899=CARTESIAN_POINT('',(0.,-5.,13.));
#1900=UNCERTAINTY_MEASURE_WITH_UNIT(LENGTH_MEASURE(0.01),#1908,
'DISTANCE_ACCURACY_VALUE',
'Maximum model space distance between geometric entities at asserted c
onnectivities');
#1901=UNCERTAINTY_MEASURE_WITH_UNIT(LENGTH_MEASURE(0.01),#1908,
'DISTANCE_ACCURACY_VALUE',
'Maximum model space distance between geometric entities at asserted c
onnectivities');
#1902=UNCERTAINTY_MEASURE_WITH_UNIT(LENGTH_MEASURE(0.01),#1908,
'DISTANCE_ACCURACY_VALUE',
'Maximum model space distance between geometric entities at asserted c
onnectivities');
#1903=UNCERTAINTY_MEASURE_WITH_UNIT(LENGTH_MEASURE(0.01),#1908,
'DISTANCE_ACCURACY_VALUE',
'Maximum model space distance between geometric entities at asserted c
onnectivities');
#1904=(
GEOMETRIC_REPRESENTATION_CONTEXT(3)
GLOBAL_UNCERTAINTY_ASSIGNED_CONTEXT((#1900))
GLOBAL_UNIT_ASSIGNED_CONTEXT((#1908,#1910,#1911))
REPRESENTATION_CONTEXT('','3D')
);
#1905=(
GEOMETRIC_REPRESENTATION_CONTEXT(3)
GLOBAL_UNCERTAINTY_ASSIGNED_CONTEXT((#1901))
GLOBAL_UNIT_ASSIGNED_CONTEXT((#1908,#1910,#1911))
REPRESENTATION_CONTEXT('','3D')
);
#1906=(
GEOMETRIC_REPRESENTATION_CONTEXT(3)
GLOBAL_UNCERTAINTY_ASSIGNED_CONTEXT((#1902))
GLOBAL_UNIT_ASSIGNED_CONTEXT((#1908,#1910,#1911))
REPRESENTATION_CONTEXT('','3D')
);
#1907=(
GEOMETRIC_REPRESENTATION_CONTEXT(3)
GLOBAL_UNCERTAINTY_ASSIGNED_CONTEXT((#1903))
GLOBAL_UNIT_ASSIGNED_CONTEXT((#1908,#1910,#1911))
REPRESENTATION_CONTEXT('','3D')
);
#1908=(
LENGTH_UNIT()
NAMED_UNIT(*)
SI_UNIT(.MILLI.,.METRE.)
);
#1909=(
LENGTH_UNIT()
NAMED_UNIT(*)
SI_UNIT($,.METRE.)
);
#1910=(
NAMED_UNIT(*)
PLANE_ANGLE_UNIT()
SI_UNIT($,.RADIAN.)
);
#1911=(
NAMED_UNIT(*)
SI_UNIT($,.STERADIAN.)
SOLID_ANGLE_UNIT()
);
#1912=SHAPE_DEFINITION_REPRESENTATION(#1915,#1920);
#1913=SHAPE_DEFINITION_REPRESENTATION(#1916,#1921);
#1914=SHAPE_DEFINITION_REPRESENTATION(#1917,#1922);
#1915=PRODUCT_DEFINITION_SHAPE('',$,#1924);
#1916=PRODUCT_DEFINITION_SHAPE('',$,#1925);
#1917=PRODUCT_DEFINITION_SHAPE('',$,#1926);
#1918=PRODUCT_DEFINITION_SHAPE($,$,#17);
#1919=PRODUCT_DEFINITION_SHAPE($,$,#18);
#1920=SHAPE_REPRESENTATION('',(#1208,#1283,#1284),#1904);
#1921=SHAPE_REPRESENTATION('',(#1209),#1905);
#1922=SHAPE_REPRESENTATION('',(#1236),#1906);
#1923=PRODUCT_DEFINITION_CONTEXT('part definition',#1934,'design');
#1924=PRODUCT_DEFINITION('2026-06-07-22-07-13-088',
'assembled-model-JarnedV1',#1927,#1923);
#1925=PRODUCT_DEFINITION('2026-06-04-20-17-53-801','Jarned V1 - Bottom',
#1928,#1923);
#1926=PRODUCT_DEFINITION('2026-06-04-21-23-34-987','Jarned V1 - Top',#1929,
#1923);
#1927=PRODUCT_DEFINITION_FORMATION('',$,#1936);
#1928=PRODUCT_DEFINITION_FORMATION('',$,#1937);
#1929=PRODUCT_DEFINITION_FORMATION('',$,#1938);
#1930=PRODUCT_RELATED_PRODUCT_CATEGORY('assembled-model-JarnedV1',
'assembled-model-JarnedV1',(#1936));
#1931=PRODUCT_RELATED_PRODUCT_CATEGORY('Jarned V1 - Bottom',
'Jarned V1 - Bottom',(#1937));
#1932=PRODUCT_RELATED_PRODUCT_CATEGORY('Jarned V1 - Top',
'Jarned V1 - Top',(#1938));
#1933=APPLICATION_PROTOCOL_DEFINITION('international standard',
'automotive_design',2009,#1934);
#1934=APPLICATION_CONTEXT(
'Core Data for Automotive Mechanical Design Process');
#1935=PRODUCT_CONTEXT('part definition',#1934,'mechanical');
#1936=PRODUCT('2026-06-07-22-07-13-088','assembled-model-JarnedV1',$,(#1935));
#1937=PRODUCT('2026-06-04-20-17-53-801','Jarned V1 - Bottom',$,(#1935));
#1938=PRODUCT('2026-06-04-21-23-34-987','Jarned V1 - Top',$,(#1935));
#1939=PRESENTATION_STYLE_ASSIGNMENT((#1940));
#1940=SURFACE_STYLE_USAGE(.BOTH.,#1941);
#1941=SURFACE_SIDE_STYLE('',(#1942));
#1942=SURFACE_STYLE_FILL_AREA(#1943);
#1943=FILL_AREA_STYLE('Steel - Satin',(#1944));
#1944=FILL_AREA_STYLE_COLOUR('Steel - Satin',#1945);
#1945=COLOUR_RGB('Steel - Satin',0.627450980392157,0.627450980392157,0.627450980392157);
ENDSEC;
END-ISO-10303-21;
